<svg width="638" height="638" viewBox="0 0 638 638" fill="none" xmlns="http://www.w3.org/2000/svg">
<circle cx="319" cy="319" r="319" fill="white"/>
<g clip-path="url(#clip0_30_134)">
<path d="M366.424 275.522L381.851 284.45C383.208 285.236 385.422 285.236 386.779 284.45L395.564 279.308C396.921 278.522 396.921 277.236 395.564 276.451L380.137 267.523C378.78 266.737 376.566 266.737 375.209 267.523L366.424 272.665C365.067 273.451 365.067 274.737 366.424 275.522Z" fill="#23D160" stroke="#23D160" stroke-width="1.63249"/>
<path d="M485.34 304.876L485.412 263.452C485.412 263.309 485.412 263.238 485.412 263.095V263.024C485.269 262.095 484.626 261.167 483.412 260.381L283.718 145.178C281.004 143.607 276.504 143.607 273.79 145.178L154.731 214.314C153.16 215.243 152.517 216.457 152.803 217.671V256.953L152.588 257.096L152.803 257.238V295.735L152.588 295.877L152.803 296.02V334.588L152.588 334.731L152.803 334.873V373.512L345.354 485.001L356.853 491.643L360.853 494L485.126 421.793L485.197 382.797V382.726L485.34 304.876ZM205.583 206.529C204.44 205.887 203.297 205.315 202.012 204.815L257.506 172.604C258.363 173.318 259.292 174.033 260.435 174.675C270.576 180.532 287.003 180.532 297.074 174.675C298.216 174.033 299.216 173.318 300.073 172.533L435.06 250.382C433.274 251.025 431.56 251.739 430.06 252.667C419.99 258.524 420.061 268.023 430.203 273.88C431.774 274.808 433.488 275.522 435.345 276.165L379.351 308.733C378.28 307.662 376.923 306.662 375.351 305.805C365.21 299.948 348.783 299.948 338.712 305.805C337.927 306.233 337.284 306.733 336.641 307.233L202.012 229.527C203.297 229.027 204.512 228.456 205.726 227.741C215.796 221.885 215.725 212.386 205.583 206.529ZM470.413 412.365L360.781 476.002L167.515 364.228V343.373L345.14 446.005L356.639 452.647L360.71 455.004L470.413 391.153V412.365ZM470.413 373.227L360.567 437.006L167.515 325.374V304.519L345.354 407.366L356.853 414.008L360.853 416.365L470.413 352.657V373.227ZM470.413 333.445L360.781 398.367L167.515 286.664V265.738L345.14 368.37L356.639 375.012L360.71 377.369L470.413 313.59V333.445ZM470.413 295.52L360.567 359.299L167.515 247.882V227.456L354.425 335.373C357.21 336.945 361.638 336.945 364.352 335.373L470.413 273.737V295.52Z" fill="#23D160"/>
<path d="M485.34 304.876L485.412 263.452C485.412 263.309 485.412 263.238 485.412 263.095V263.024C485.269 262.095 484.626 261.167 483.412 260.381L283.718 145.178C281.004 143.607 276.504 143.607 273.79 145.178L154.731 214.314C153.16 215.243 152.517 216.457 152.803 217.671V256.953L152.588 257.096L152.803 257.238V295.735L152.588 295.877L152.803 296.02V334.588L152.588 334.731L152.803 334.873V373.512L345.354 485.001L356.853 491.643L360.853 494L485.126 421.793L485.197 382.797V382.726L485.34 304.876ZM485.34 304.876L485.412 304.805M205.583 206.529C204.44 205.887 203.297 205.315 202.012 204.815L257.506 172.604C258.363 173.318 259.292 174.033 260.435 174.675C270.576 180.532 287.003 180.532 297.074 174.675C298.216 174.033 299.216 173.318 300.073 172.533L435.06 250.382C433.274 251.025 431.56 251.739 430.06 252.667C419.99 258.524 420.061 268.023 430.203 273.88C431.774 274.808 433.488 275.522 435.345 276.165L379.351 308.733C378.28 307.662 376.923 306.662 375.351 305.805C365.21 299.948 348.783 299.948 338.712 305.805C337.927 306.233 337.284 306.733 336.641 307.233L202.012 229.527C203.297 229.027 204.512 228.456 205.726 227.741C215.796 221.885 215.725 212.386 205.583 206.529ZM470.413 412.365L360.781 476.002L167.515 364.228V343.373L345.14 446.005L356.639 452.647L360.71 455.004L470.413 391.153V412.365ZM470.413 373.227L360.567 437.006L167.515 325.374V304.519L345.354 407.366L356.853 414.008L360.853 416.365L470.413 352.657V373.227ZM470.413 333.445L360.781 398.367L167.515 286.664V265.738L345.14 368.37L356.639 375.012L360.71 377.369L470.413 313.59V333.445ZM470.413 295.52L360.567 359.299L167.515 247.882V227.456L354.425 335.373C357.21 336.945 361.638 336.945 364.352 335.373L470.413 273.737V295.52Z" stroke="#23D160" stroke-width="1.63249"/>
<path d="M242.579 204.03L258.006 212.957C259.363 213.743 261.577 213.743 262.934 212.957L271.719 207.815C273.076 207.029 273.076 205.744 271.719 204.958L256.292 196.102C254.935 195.316 252.721 195.316 251.364 196.102L242.579 201.173C241.222 201.958 241.222 203.244 242.579 204.03Z" fill="#23D160" stroke="#23D160" stroke-width="1.63249"/>
<path d="M358.567 217.314C336.641 204.672 301.145 204.672 279.29 217.314C257.506 229.956 257.649 250.525 279.575 263.166C301.502 275.808 336.998 275.808 358.782 263.166C380.565 250.525 380.422 229.956 358.567 217.314ZM312.858 246.882H297.431V237.955V229.313L312.858 229.384V238.026L348.14 238.098V247.025L312.858 246.882Z" fill="#23D160" stroke="#23D160" stroke-width="1.63249"/>
</g>
<defs>
<clipPath id="clip0_30_134">
<rect width="350" height="350" fill="white" transform="translate(144 144)"/>
</clipPath>
</defs>
</svg>
