<svg width="638" height="638" viewBox="0 0 638 638" fill="none" xmlns="http://www.w3.org/2000/svg">
<circle cx="319" cy="319" r="319" fill="white"/>
<path d="M278.241 56.6686C277.608 56.8495 275.934 57.5732 274.487 58.2517C272.677 59.111 271.501 59.4276 270.687 59.2467C270.054 59.0658 268.878 59.1563 268.064 59.4276C266.842 59.8347 266.164 59.7443 264.264 58.9753C261.459 57.8898 261.052 57.8446 261.052 58.7492C261.052 59.6538 258.383 59.6538 257.162 58.7492C256.031 57.8898 255.398 57.8898 254.538 58.7492C254.177 59.1563 252.91 59.6086 251.779 59.8347C250.603 60.0609 249.427 60.4679 249.156 60.7393C248.568 61.3273 246.577 61.4178 246.577 60.8298C246.577 60.6036 245.175 60.1513 243.456 59.8799C240.606 59.3372 239.34 59.3824 233.143 60.1966C231.876 60.3322 231.198 60.2418 231.198 59.9252C231.198 59.111 230.383 59.3372 229.207 60.5584C228.167 61.5535 227.715 61.6891 224.503 61.6891C218.17 61.6891 212.471 63.3627 209.485 66.0312C207.676 67.6595 206.952 67.9309 206.681 67.0263C206.545 66.6192 206.138 66.6644 205.278 67.2524C204.645 67.6595 203.605 68.0213 202.971 68.0213C202.338 68.0213 200.981 68.745 199.805 69.7853C197.453 71.8207 195.869 72.4087 192.16 72.68C189.899 72.861 189.356 72.7253 188.315 71.8659C187.275 70.9613 187.004 70.9161 185.782 71.4136C184.923 71.7302 182.254 71.9111 179.133 71.9111C174.112 71.8659 173.84 71.8207 172.257 70.5995C171.081 69.7401 170.583 68.9712 170.583 68.157C170.583 67.0715 170.538 67.0263 168.503 67.3429C167.327 67.4786 166.151 67.75 165.879 67.8404C165.562 67.9761 164.567 69.8758 163.617 72.1373C162.667 74.3988 160.994 77.4292 159.908 78.8313C158.008 81.319 157.692 81.5903 152.354 83.8518C147.604 85.842 146.293 86.6561 143.759 89.0081C141.272 91.2696 140.729 92.0385 140.729 93.1692C140.729 94.0738 140.141 95.3403 139.055 96.7876C137.608 98.6873 137.291 99.4562 137.065 102.17C136.839 104.567 136.884 105.517 137.381 106.06C137.743 106.422 138.015 107.055 138.015 107.417C138.015 108.231 132.406 113.704 128.832 116.463C127.385 117.548 125.485 118.996 124.671 119.629C123.494 120.533 122.273 120.895 119.016 121.302C115.036 121.8 111.914 122.976 112.095 123.926C112.141 124.152 112.005 124.514 111.779 124.785C111.598 125.011 111.055 126.504 110.648 128.042C109.743 131.208 109.517 131.479 105.944 133.379C103.682 134.6 103.275 135.052 101.872 137.902C101.013 139.756 100.244 142.199 100.018 143.736C99.7012 146.586 99.9726 146.224 94.635 150.702C93.3684 151.787 92.1018 153.099 91.8304 153.642L91.2876 154.637L92.3732 153.732L93.4136 152.828L92.3732 154.411C91.4233 155.903 90.6543 157.486 88.7997 161.783C88.3926 162.778 87.6236 163.728 87.0808 163.954C86.4928 164.135 85.769 164.904 85.4071 165.582C84.5929 167.165 83.5073 174.04 83.9144 175.081C84.1858 175.759 84.3668 175.669 85.2714 174.538L86.3118 173.226L87.307 175.126C88.2569 176.98 89.1616 177.614 89.1616 176.438C89.2068 176.166 89.5687 176.619 90.0663 177.478C91.1519 179.468 91.2876 182.544 90.2925 182.182C89.8853 182.001 89.4782 182.227 89.2973 182.725C89.1164 183.177 89.2068 183.584 89.5235 183.72C89.8853 183.81 89.8853 184.172 89.5235 184.986C89.0711 185.891 89.1616 186.253 90.021 187.112C91.2424 188.469 91.6495 189.916 92.0566 194.258C92.3732 197.515 92.328 197.922 90.7448 201.947C89.6592 204.706 89.0259 207.194 88.8902 209.094C88.664 212.576 87.3975 215.019 84.412 217.642C82.1955 219.587 81.9693 219.994 83.1002 219.994C84.1406 219.994 86.8999 222.889 86.8999 224.02C86.8999 224.608 87.1713 224.969 87.6689 224.969C88.2569 224.969 88.3021 225.105 87.895 225.512C87.126 226.281 87.2165 226.914 87.9855 226.643C88.4378 226.462 88.5735 226.598 88.4378 227.005C88.2569 227.412 88.7545 228 89.7044 228.588C90.8353 229.266 90.971 229.492 90.3377 229.492C89.8401 229.492 89.1164 229.176 88.664 228.769C87.9403 228.135 87.8498 228.135 87.3975 228.95C87.126 229.447 87.0356 229.945 87.2165 230.126C87.3522 230.261 87.4427 231.799 87.3975 233.563C87.307 236.413 87.3975 236.865 88.3474 237.634C88.9354 238.131 89.6139 238.493 89.8401 238.538C90.1115 238.538 90.3377 238.991 90.3829 239.488C90.4282 240.031 90.6996 240.709 90.971 240.981C91.5138 241.524 94.4993 241.569 95.6753 241.026C96.3539 240.755 96.4443 240.8 96.1729 241.207C95.7658 241.931 96.6705 242.564 98.2085 242.654C99.1584 242.7 99.2036 242.745 98.4346 242.926C97.9371 243.061 97.2585 243.378 96.9419 243.604C96.3086 244.147 96.2182 245.051 96.8514 244.644C97.1228 244.509 97.3038 244.69 97.3038 245.097C97.3038 245.911 98.3442 247.132 99.0679 247.132C99.2941 247.132 99.656 247.539 99.7917 248.037C100.154 249.167 100.877 249.213 101.646 248.127C102.189 247.449 102.234 247.494 102.28 248.625C102.28 249.484 102.461 249.801 102.822 249.574C103.139 249.394 103.184 249.439 103.003 249.755C102.822 250.027 103.049 250.796 103.456 251.429C104.27 252.695 107.979 255.454 109.472 255.952C110.196 256.178 110.422 256.54 110.286 257.083C110.15 257.58 110.512 258.304 111.1 258.892C111.688 259.435 112.276 260.384 112.412 260.972C112.593 261.56 112.91 262.058 113.181 262.058C113.452 262.058 113.407 262.42 113.091 263.053C112.638 263.867 112.729 264.139 113.407 264.681C114.221 265.269 114.176 265.315 113 265.043L111.688 264.727L112.503 266.083C112.91 266.807 113.769 267.621 114.357 267.893C114.945 268.164 115.398 268.662 115.307 269.023C115.217 269.385 115.669 270.109 116.257 270.606C117.297 271.511 117.297 271.556 116.393 271.556C114.855 271.556 114.809 272.37 116.393 272.687C118.971 273.275 125.756 276.758 126.616 277.979C126.932 278.431 128.018 279.2 129.013 279.698C129.963 280.195 130.777 280.828 130.777 281.1C130.777 281.326 131.727 281.959 132.858 282.411C134.034 282.954 136.477 284.809 138.648 286.889C141.679 289.784 143.171 290.824 146.881 292.588C149.323 293.764 151.902 294.985 152.625 295.347C153.756 295.98 154.118 295.935 157.827 294.578C159.999 293.809 161.989 292.995 162.26 292.769C163.482 291.774 167.191 290.915 172.619 290.281C178.499 289.603 186.416 289.558 186.416 290.191C186.416 290.417 187.275 290.553 188.361 290.553C189.401 290.598 191.075 290.915 192.07 291.277C195.281 292.498 195.508 292.498 196.819 291.548C197.498 291.05 199.307 290.281 200.8 289.874C202.338 289.513 205.278 288.382 207.314 287.387C209.395 286.392 211.837 285.442 212.787 285.261C213.692 285.125 214.461 284.854 214.461 284.628C214.461 284.13 213.104 282.864 212.561 282.864C212.29 282.864 212.154 282.728 212.29 282.592C212.742 282.14 214.37 283.271 214.687 284.221C215.049 285.397 216.496 285.08 217.944 283.497C219.346 282.004 223.87 281.009 229.569 281.009C232.916 281.009 234.409 280.828 235.178 280.331C235.766 279.924 236.354 279.743 236.535 279.879C236.671 280.014 236.535 280.15 236.264 280.15C235.947 280.15 235.721 280.286 235.721 280.467C235.721 280.693 236.897 280.828 238.345 280.874C241.647 280.874 244.632 282.457 245.899 284.854C246.396 285.758 247.075 286.482 247.391 286.482C247.708 286.482 247.844 286.708 247.708 286.98C247.527 287.251 247.799 287.568 248.341 287.703C249.156 287.929 249.201 288.065 248.748 288.653C248.296 289.196 248.296 289.377 248.748 289.513C249.02 289.648 249.291 290.146 249.291 290.598C249.291 292.588 251.643 295.573 253.679 296.161C254.222 296.342 254.765 296.297 254.9 296.026C255.036 295.8 255.579 295.709 256.076 295.845C256.574 295.98 257.705 295.935 258.61 295.8C259.921 295.528 260.102 295.347 259.695 294.804C259.017 294.036 259.74 293.945 260.509 294.714C260.917 295.121 261.188 295.121 261.595 294.714C262.364 293.945 263.359 294.036 263.043 294.85C262.862 295.212 262.997 295.528 263.269 295.528C263.585 295.528 263.902 295.257 264.038 294.94C264.173 294.488 265.259 294.262 267.295 294.216C268.968 294.171 270.416 293.945 270.461 293.674C270.732 292.995 271.456 293.221 271.456 293.945C271.456 294.397 271.908 294.624 272.723 294.624C273.673 294.624 274.125 294.985 274.623 296.071C275.482 297.925 277.97 299.463 278.875 298.739C279.327 298.378 279.598 298.332 279.824 298.694C279.96 298.92 279.87 299.147 279.644 299.147C278.784 299.147 279.101 300.323 280.548 302.313L281.951 304.212L281.272 307.514C280.91 309.323 280.729 311.359 280.82 311.992C281.001 312.761 280.639 313.892 279.779 315.294C277.879 318.415 277.698 319.048 278.467 319.319C278.829 319.5 279.146 320.088 279.146 320.676C279.146 321.445 278.829 321.807 278.015 322.033L276.839 322.304L277.834 323.978C278.332 324.882 278.513 325.335 278.196 325.018C277.201 324.068 277.02 324.385 277.065 326.963C277.065 329.224 276.929 329.632 275.708 330.762C274.713 331.667 274.125 331.938 273.673 331.667C273.311 331.441 272.904 331.26 272.677 331.26C272.27 331.26 273.492 334.2 274.532 335.783C275.256 336.868 275.346 337.094 275.482 338.044C275.482 338.27 275.98 338.497 276.522 338.497C277.291 338.497 277.382 338.632 276.975 339.039C276.115 339.899 276.296 340.261 277.925 340.984C278.739 341.346 278.92 341.527 278.332 341.391L277.291 341.12L278.513 343.02C279.508 344.512 280.005 344.874 280.82 344.693C281.362 344.603 281.724 344.648 281.634 344.874C281.498 345.055 281.77 345.326 282.177 345.417C282.629 345.507 282.448 345.552 281.724 345.507C279.96 345.417 280.367 346.095 283.398 348.357C284.8 349.442 287.062 351.704 288.374 353.332C289.731 355.006 291.54 357.086 292.49 357.946C293.395 358.805 294.526 360.252 294.933 361.112C295.385 361.971 296.154 363.464 296.697 364.413C297.24 365.363 297.647 366.675 297.602 367.353C297.556 368.032 298.687 371.062 300.089 374.093C301.492 377.123 302.849 380.38 303.075 381.329C303.346 382.279 304.161 384.269 304.93 385.717C306.694 389.199 306.694 390.647 304.93 391.732C304.206 392.139 303.573 392.818 303.573 393.134C303.573 394.175 307.282 403.221 308.458 405.166C309.543 406.884 309.543 407.111 309.136 411.317C308.639 416.383 307.779 418.011 304.884 419.458C303.844 420.001 303.12 420.725 303.12 421.177C303.12 421.629 302.396 422.67 301.537 423.529C300.451 424.569 299.954 425.474 299.954 426.378C299.954 427.057 299.728 428.097 299.411 428.64C299.14 429.183 298.732 430.63 298.552 431.897C298.054 435.605 296.426 440.49 295.249 441.757C294.299 442.797 294.209 443.068 294.616 445.466C294.842 446.913 294.933 448.315 294.797 448.586C294.707 448.858 294.571 448.722 294.571 448.27C294.526 447.863 294.299 447.501 294.028 447.501C293.711 447.501 293.666 447.817 293.892 448.27C294.073 448.722 294.299 451.029 294.345 453.381C294.39 456.954 294.616 458.085 295.566 460.165C296.245 461.567 297.421 463.286 298.19 464.01C298.959 464.779 300.044 466.271 300.632 467.402C301.22 468.533 302.396 470.613 303.301 472.106C304.161 473.553 305.246 475.77 305.653 477.036C306.06 478.302 307.327 480.654 308.367 482.238C309.453 483.821 310.358 485.358 310.358 485.675C310.358 485.992 310.901 486.715 311.534 487.348C312.167 487.936 313.072 489.022 313.524 489.791C314.474 491.329 315.243 494.811 314.564 494.404C314.293 494.223 314.203 496.033 314.338 499.199C314.519 503.315 314.745 504.672 315.605 506.345C316.238 507.612 316.781 509.918 317.098 512.451C317.686 517.743 318.048 519.462 318.771 520.593C319.133 521.09 319.269 521.633 319.133 521.814C318.726 522.221 320.49 526.563 322.209 529.503C323.43 531.583 327.366 535.609 328.768 536.242C329.763 536.649 331.754 540.087 333.246 543.886C335.372 549.359 336.232 551.032 338.946 555.058C340.167 556.912 341.479 559.083 341.841 559.897C343.153 563.018 342.338 566.003 340.167 566.003C338.946 566.003 339.082 567.36 340.439 568.672C341.072 569.26 341.569 569.938 341.569 570.165C341.569 570.391 341.977 571.205 342.519 571.929C343.334 573.105 343.379 573.466 342.926 574.869C342.61 575.728 342.519 576.723 342.655 577.085C343.017 578.08 344.148 577.899 344.419 576.859C344.736 575.637 346.002 575.728 346.183 576.949C346.274 577.763 346.681 578.035 347.812 578.125C348.626 578.216 349.44 578.577 349.576 578.939C350.119 580.387 355.547 581.653 356.271 580.477C356.994 579.301 360.704 578.261 364.232 578.261C367.534 578.261 368.077 578.125 369.705 577.04C371.379 575.864 371.922 575.773 376.128 575.637C383.999 575.456 385.04 575.502 387.618 576.18C389.835 576.723 390.242 576.723 390.875 576.18C391.372 575.728 392.549 575.502 394.177 575.502C396.439 575.502 396.71 575.411 396.846 574.461C396.982 573.557 397.208 573.466 400.374 573.421C403.36 573.421 404.174 573.195 406.933 571.793C411.366 569.531 416.251 565.913 420.503 561.842C422.494 559.943 425.208 557.591 426.52 556.641C428.962 554.877 434.436 547.911 436.064 544.519C437.15 542.258 439.185 540.177 442.533 537.87C445.473 535.88 446.151 534.795 446.966 530.95C447.282 529.458 447.915 527.241 448.413 525.975C448.911 524.754 449.182 523.397 449.092 522.99C448.956 522.583 449.001 520.864 449.182 519.236C449.453 516.567 449.408 516.16 448.639 515.662C447.78 515.12 447.78 515.029 448.503 513.627C449.544 511.637 450.991 510.823 457.596 508.607C461.667 507.204 463.702 506.255 465.059 505.033C467.502 502.953 469.311 499.018 467.502 499.696C466.914 499.922 466.823 499.696 467.095 498.068C467.276 496.982 467.683 495.535 468.045 494.811C468.452 493.952 468.542 493.364 468.271 493.183C468 493.047 467.864 491.781 467.909 490.379C468 487.756 467.321 486.761 466.823 488.751C466.688 489.339 466.552 488.66 466.597 487.303C466.597 485.675 466.281 484.182 465.647 483.006C465.059 481.83 464.788 480.7 464.924 479.75C465.105 478.529 464.924 478.031 463.747 476.946C462.436 475.724 462.3 475.363 462.39 473.327C462.481 471.382 462.662 471.02 463.386 471.02C463.928 471.02 465.647 469.618 467.502 467.719C469.311 465.909 471.347 464.281 472.161 464.01C473.111 463.693 474.694 462.291 476.685 459.939C478.403 457.949 480.575 455.778 481.57 455.1C483.651 453.697 489.395 451.255 491.748 450.848C492.607 450.667 493.828 450.079 494.462 449.536C495.095 448.948 496.452 448.089 497.538 447.546C498.623 447.003 499.618 446.189 499.754 445.782C500.161 444.742 503.192 440.671 504.368 439.631C506.132 438.048 507.399 431.897 506.042 431.399C505.68 431.263 505.499 430.811 505.635 430.268C505.77 429.816 505.68 429.409 505.454 429.409C505.273 429.409 505.046 427.419 505.001 424.976C504.911 421.72 504.73 420.634 504.323 420.725C504.006 420.815 504.142 420.453 504.594 419.956C505.227 419.277 505.318 418.87 504.956 418.463C504.73 418.147 504.368 415.93 504.187 413.578C503.961 410.231 504.051 408.829 504.594 407.246C504.956 406.115 505.092 405.166 504.866 405.075C504.639 404.985 504.594 404.623 504.73 404.261C505.046 403.402 503.418 401.683 500.93 400.19C499.845 399.602 498.985 399.014 498.985 398.969C498.94 397.522 497.945 393.406 497.538 392.908C497.221 392.501 496.95 391.958 496.95 391.687C496.904 391.416 496.633 390.647 496.271 389.968C495.773 388.928 495.773 388.295 496.271 386.305C496.769 384.134 496.769 383.727 496.045 382.686C495.321 381.556 495.321 381.42 496.226 379.973C496.769 379.113 497.176 378.163 497.176 377.847C497.176 377.53 496.09 376.173 494.733 374.816C493.376 373.459 492.155 371.876 492.019 371.288C491.838 370.655 492.245 368.936 493.059 366.901C493.783 365.092 494.552 363.056 494.688 362.378C494.869 361.7 495.412 361.021 495.909 360.84C496.497 360.659 497.583 358.941 499.076 355.865C500.297 353.287 501.518 351.071 501.744 350.935C501.971 350.754 502.151 349.985 502.151 349.216C502.151 347.316 503.192 345.869 504.775 345.552C506.268 345.191 509.298 342.522 509.027 341.753C508.937 341.437 509.253 341.21 509.706 341.21C510.836 341.21 511.967 339.944 514.184 336.235C516.129 332.979 524.542 323.842 530.559 318.505C533.227 316.153 535.987 314.208 539.017 312.625C543.043 310.544 544.174 309.64 549.421 304.393C556.433 297.337 559.102 294.397 560.187 292.317C560.594 291.457 562.268 288.879 563.896 286.573C565.48 284.311 566.927 281.914 567.063 281.281C567.199 280.647 567.379 279.698 567.515 279.11C567.606 278.567 568.556 276.848 569.551 275.265C570.591 273.727 571.767 271.556 572.22 270.516C572.672 269.476 573.396 268.3 573.803 267.938C574.255 267.621 575.341 265.857 576.2 264.139C577.06 262.375 578.145 260.52 578.643 260.023C579.14 259.48 579.683 257.761 580 255.726C580.316 253.871 580.859 251.972 581.221 251.519C582.081 250.524 582.714 245.685 582.081 245.232C581.764 245.051 581.9 244.192 582.397 242.835C582.895 241.569 583.076 240.574 582.804 240.302C582.578 240.076 581.447 239.76 580.226 239.624C578.236 239.352 578.01 239.398 576.788 240.709C576.11 241.478 574.934 242.247 574.21 242.383C573.531 242.519 571.812 242.971 570.455 243.378C569.098 243.785 566.656 244.147 565.027 244.147C563.399 244.192 561.589 244.463 561.001 244.825C560.232 245.232 559.102 245.368 557.156 245.142C554.578 244.871 554.352 244.961 551.366 246.725L548.245 248.625L545.531 247.856L542.862 247.132L540.465 248.444C539.198 249.167 537.163 250.027 536.032 250.298C534.177 250.75 533.635 250.705 531.916 249.936C530.785 249.439 529.202 248.218 528.342 247.132C527.483 246.092 526.352 244.69 525.809 244.056C524.95 242.971 524.542 242.835 522.145 242.835C519.205 242.835 519.25 242.654 522.869 241.026C525.583 239.76 525.945 239.172 525.266 237.091C524.723 235.508 522.778 233.066 522.19 233.156C521.24 233.337 520.698 233.066 520.698 232.387C520.698 231.98 520.11 231.437 519.341 231.166C518.481 230.849 517.938 230.261 517.757 229.447C517.441 228.09 516.129 226.779 514.003 225.693C513.234 225.286 512.058 224.155 511.47 223.205C509.977 220.853 508.439 219.723 506.177 219.361C504.142 219.044 501.699 217.913 501.699 217.325C501.699 217.145 501.292 216.511 500.84 215.969C500.342 215.381 499.845 214.702 499.754 214.431C499.437 213.436 498.442 214.702 498.714 215.878C498.895 216.918 498.849 216.873 498.307 215.607C497.945 214.838 497.402 214.024 497.085 213.798C496.271 213.3 495.366 210.812 494.688 207.104C494.055 203.666 493.783 202.942 491.431 197.922C490.526 195.977 489.622 194.665 489.214 194.665C488.853 194.665 487.586 193.761 486.41 192.675C485.234 191.59 483.832 190.595 483.289 190.414C482.746 190.233 482.113 189.509 481.841 188.74C481.208 186.931 480.303 178.202 480.575 176.438C480.665 175.578 480.529 174.764 480.168 174.402C479.308 173.543 479.353 172.684 480.213 173.407C481.57 174.538 481.389 173.498 479.987 171.869C479.082 170.874 478.449 169.563 478.268 168.341C477.996 166.758 477.499 165.989 475.463 164.09C474.106 162.823 472.297 161.421 471.528 161.014C469.718 160.11 467.773 156.536 467.773 154.139C467.773 152.601 467.864 152.511 468.904 152.782C469.537 152.963 470.035 152.963 470.035 152.828C470.035 152.737 469.085 151.742 467.954 150.702C466.733 149.571 465.24 147.536 464.426 145.817C463.612 144.189 461.712 140.842 460.219 138.354C458.681 135.866 457.008 132.519 456.465 130.936C455.922 129.353 454.972 127.363 454.339 126.504C453.344 125.192 453.253 124.875 453.796 124.514C454.293 124.197 453.977 123.699 452.258 122.071C451.082 120.895 449.634 119.176 449.001 118.227C448.413 117.277 447.689 116.372 447.463 116.237C447.192 116.056 447.101 115.649 447.237 115.287C447.373 114.925 447.101 113.93 446.558 113.116C445.518 111.442 445.337 109.859 446.061 109.407C446.332 109.271 446.513 109.497 446.513 109.95C446.513 110.402 447.418 111.985 448.549 113.477C449.77 115.106 450.584 116.644 450.584 117.367C450.584 118.272 451.353 119.312 453.705 121.483C455.379 123.111 457.188 124.514 457.731 124.649C459.043 125.011 460.31 123.473 460.355 121.438C460.4 119.9 460.852 118.317 462.888 112.889C463.521 111.261 463.657 110.357 463.34 109.95C463.069 109.678 461.983 107.145 460.852 104.341L458.817 99.2753L459.903 98.2802C460.491 97.7374 460.988 97.1042 460.988 96.8781C460.988 96.1996 459.767 96.5162 458.907 97.4661C457.234 99.3205 455.651 99.818 452.348 99.5014C450.403 99.2753 449.227 99.3657 449.001 99.6371C448.594 100.361 446.242 100.225 445.608 99.4562C445.337 99.0943 444.613 98.6873 444.116 98.5064C443.573 98.3707 442.849 97.9636 442.487 97.6922C441.854 97.1947 439.683 96.9685 435.205 96.9685C430.365 96.9685 429.776 97.059 429.776 97.9636C429.776 98.5968 429.505 98.823 428.736 98.6873C428.193 98.642 427.108 99.0039 426.384 99.5014C424.348 100.949 422.222 101.944 421.272 101.944C420.775 101.944 419.508 101.537 418.423 101.039C417.337 100.542 415.663 100.135 414.759 100.135C413.854 100.135 412.949 99.9085 412.814 99.6823C412.678 99.411 411.909 99.23 411.185 99.23C410.461 99.23 409.376 98.9134 408.833 98.5516C408.245 98.1897 406.3 97.6922 404.49 97.4208C402.681 97.1495 400.329 96.7424 399.243 96.471C397.886 96.1092 396.846 96.1092 395.579 96.471C393.091 97.1495 392.775 97.1042 392.413 95.9282C391.78 93.8024 390.92 93.3501 387.618 93.3501C385.899 93.3501 384.045 93.124 383.502 92.8074C382.959 92.536 381.511 92.0837 380.245 91.8123C378.255 91.36 377.983 91.1339 377.847 90.0483C377.712 88.9628 377.35 88.7367 373.912 87.6512C369.66 86.3395 367.67 86.3395 362.784 87.7868C358.804 88.9628 356.044 90.5459 354.823 92.4003C353.557 94.3 353.511 96.0187 354.687 98.3254C355.728 100.406 355.456 101.537 353.511 103.346C351.476 105.246 349.35 106.15 347.721 105.834C346.952 105.653 345.188 104.748 343.786 103.753C340.484 101.446 334.196 99.3657 328.994 98.823C326.506 98.5516 324.426 98.0993 323.702 97.6018C322.39 96.7424 321.214 94.7523 321.214 93.4406C321.214 91.7671 319.54 90.3197 317.279 89.9579C316.102 89.777 314.429 89.2794 313.524 88.8271C312.665 88.4201 310.946 87.8773 309.679 87.6964C308.458 87.5155 307.056 87.1989 306.603 86.9275C306.06 86.6561 304.749 86.6561 302.713 87.0632C299.728 87.5607 299.501 87.5607 297.104 86.3847C294.209 85.0278 292.942 84.8921 292.354 85.9776C291.721 87.0179 290.455 86.3847 290.455 84.9826C290.455 83.7614 289.052 82.8115 288.736 83.7614C288.509 84.4851 287.243 84.4398 287.379 83.7614C287.469 83.4448 287.017 83.1282 286.383 83.0377C283.896 82.7211 282.041 81.0476 282.539 79.6455C282.674 79.3288 283.488 78.6956 284.348 78.2886C285.207 77.8815 286.429 77.1126 287.062 76.5246C288.736 75.1225 290.997 71.7302 290.5 71.4588C290.319 71.3231 290.002 70.5995 289.867 69.8758C289.64 68.8807 289.098 68.2475 287.741 67.569C286.248 66.8001 285.931 66.4383 285.931 65.3075C285.931 64.5386 286.112 63.9506 286.338 63.9506C287.379 63.9506 289.55 61.5082 289.821 60.0609C289.957 59.2015 290.002 58.3421 289.821 58.2064C289.686 58.0707 288.781 58.4326 287.876 59.0658C285.479 60.6036 284.574 60.9202 284.574 60.0609C284.574 59.699 284.257 59.292 283.85 59.111C283.353 58.9301 283.308 58.7492 283.669 58.523C284.619 57.9351 283.624 57.0757 282.267 57.2566C281.543 57.3923 281.046 57.2566 281.091 56.9852C281.227 56.3972 279.689 56.2163 278.241 56.6686ZM94.0469 228.904C93.5946 228.995 92.8708 228.995 92.4637 228.904C92.0114 228.769 92.3732 228.678 93.2327 228.678C94.0921 228.678 94.454 228.769 94.0469 228.904ZM100.018 240.348C100.018 240.574 99.6107 240.8 99.0679 240.8C98.5703 240.8 98.2989 240.574 98.4346 240.348C98.5703 240.076 99.0227 239.895 99.3846 239.895C99.7464 239.895 100.018 240.076 100.018 240.348Z" fill="#3ABF0A"/>
<path d="M106.034 115.694C104.948 116.598 104.903 116.87 105.401 117.503C106.215 118.453 106.441 118.408 107.889 117.096C110.241 114.88 108.522 113.568 106.034 115.694Z" fill="#3ABF0A"/>
<path d="M74.8675 118C74.5056 118.86 75.9079 121.076 76.6316 120.805C77.1744 120.624 77.8982 117.955 77.4911 117.548C76.9935 117.051 75.0936 117.367 74.8675 118Z" fill="#3ABF0A"/>
<path d="M103.365 119.674C102.958 120.488 102.099 121.709 101.465 122.388L100.289 123.654H101.556C103.546 123.654 105.401 122.433 105.808 120.805C106.034 120.036 106.125 119.086 105.989 118.769C105.627 117.684 104.134 118.227 103.365 119.674Z" fill="#3ABF0A"/>
<path d="M86.6738 119.764C86.1762 120.081 85.0906 120.533 84.3216 120.714C83.5074 120.85 82.8289 121.121 82.8289 121.257C82.8289 122.071 84.7739 124.468 85.2715 124.287C86.2214 123.926 89.2521 120.081 88.9355 119.583C88.5284 118.95 87.7142 119.041 86.6738 119.764Z" fill="#3ABF0A"/>
<path d="M80.1147 122.523C79.4362 123.338 79.8885 124.106 81.0194 124.106C81.4717 124.106 82.0145 123.88 82.1502 123.654C82.4669 123.157 81.6074 121.845 81.0194 121.845C80.8384 121.845 80.4313 122.162 80.1147 122.523Z" fill="#3ABF0A"/>
<path d="M91.5139 122.84C90.0212 124.333 91.7853 126.956 93.6399 125.961C94.7255 125.373 94.9969 124.559 94.5446 123.292C94.1375 122.207 92.4186 121.935 91.5139 122.84Z" fill="#3ABF0A"/>
<path d="M74.2794 125.056C73.42 125.418 73.3295 125.599 73.7818 126.142C74.5508 127.092 75.7269 127.001 76.3602 125.961C76.8126 125.237 76.7673 125.056 76.2245 124.83C75.8174 124.694 75.5008 124.559 75.4555 124.604C75.4103 124.604 74.8675 124.83 74.2794 125.056Z" fill="#3ABF0A"/>
<path d="M456.012 126.278C456.012 126.504 456.329 126.866 456.736 127.001C457.189 127.182 457.369 127.046 457.279 126.73C457.053 126.051 456.012 125.69 456.012 126.278Z" fill="#3ABF0A"/>
<path d="M39.9919 203.53C39.4943 203.756 39.1324 205.52 39.5848 205.52C40.4442 205.52 42.5702 204.39 42.4345 203.983C42.2536 203.44 40.8513 203.168 39.9919 203.53Z" fill="#3ABF0A"/>
<path d="M41.8012 205.385C40.8965 205.747 41.1227 206.425 42.1178 206.425C42.6154 206.425 43.0225 206.108 43.0225 205.747C43.0225 205.068 42.7511 204.978 41.8012 205.385Z" fill="#3ABF0A"/>
<path d="M56.412 205.43C56.0501 206.018 56.8644 207.782 57.4976 207.782C58.1309 207.782 58.0404 206.742 57.3619 205.747C56.9096 205.204 56.6382 205.113 56.412 205.43Z" fill="#3ABF0A"/>
<path d="M43.7012 206.425C43.5655 206.651 43.656 206.877 43.8821 206.877C44.1536 206.877 44.3797 206.651 44.3797 206.425C44.3797 206.154 44.2893 205.973 44.1988 205.973C44.0631 205.973 43.8369 206.154 43.7012 206.425Z" fill="#3ABF0A"/>
<path d="M46.5057 207.149C45.8724 207.782 46.7771 208.506 47.9984 208.325C49.6268 208.099 49.7625 207.556 48.3603 207.149C47.0485 206.832 46.8675 206.832 46.5057 207.149Z" fill="#3ABF0A"/>
<path d="M499.89 209.953C499.89 210.224 500.116 210.496 500.387 210.586C500.749 210.722 500.659 211.039 500.161 211.536C499.709 211.943 499.573 212.305 499.845 212.305C500.116 212.305 500.206 212.622 500.071 212.983C499.709 213.843 500.523 213.843 501.247 212.983C501.518 212.622 501.609 212.079 501.428 211.762C501.202 211.446 501.021 210.903 501.021 210.541C501.021 209.817 499.89 209.275 499.89 209.953Z" fill="#3ABF0A"/>
<path d="M56.8642 210.767C56.3214 212.214 57.8142 212.893 58.8093 211.672C59.2617 211.129 59.1712 210.903 58.4475 210.541C57.2714 209.908 57.1809 209.908 56.8642 210.767Z" fill="#3ABF0A"/>
<path d="M502.378 212.757C502.016 213.345 502.332 213.843 503.011 213.617C503.282 213.481 503.328 213.164 503.101 212.802C502.83 212.35 502.649 212.35 502.378 212.757Z" fill="#3ABF0A"/>
<path d="M54.7834 217.733C54.7834 218.23 55.0096 218.637 55.2358 218.637C55.5072 218.637 55.6881 218.23 55.6881 217.733C55.6881 217.235 55.5072 216.828 55.2358 216.828C55.0096 216.828 54.7834 217.235 54.7834 217.733Z" fill="#3ABF0A"/>
<path d="M51.029 217.597C49.9433 218.637 51.7527 220.853 53.2454 220.265C54.1049 219.949 54.0597 219.27 52.974 218.185C52.0241 217.235 51.5265 217.099 51.029 217.597Z" fill="#3ABF0A"/>
<path d="M520.019 224.517C519.702 225.06 520.109 225.874 520.743 225.874C521.286 225.874 521.286 224.653 520.743 224.291C520.517 224.155 520.2 224.246 520.019 224.517Z" fill="#3ABF0A"/>
<path d="M519.341 227.231C519.341 227.457 519.522 227.683 519.748 227.683C520.019 227.683 520.336 227.457 520.471 227.231C520.607 226.959 520.426 226.779 520.064 226.779C519.657 226.779 519.341 226.959 519.341 227.231Z" fill="#3ABF0A"/>
<path d="M598.048 234.694C597.641 235.146 597.777 235.553 598.455 236.232C599.677 237.453 602.165 237.453 604.833 236.232C606.733 235.372 606.779 235.282 605.964 234.784C604.607 234.015 598.682 233.97 598.048 234.694Z" fill="#3ABF0A"/>
<path d="M588.549 237.589C588.549 238.041 590.811 238.719 591.173 238.312C591.535 237.996 591.218 237.815 589.816 237.453C589.092 237.317 588.549 237.362 588.549 237.589Z" fill="#3ABF0A"/>
<path d="M595.334 238.086C595.334 238.312 595.56 238.538 595.787 238.538C596.058 238.538 596.239 238.312 596.239 238.086C596.239 237.815 596.058 237.634 595.787 237.634C595.56 237.634 595.334 237.815 595.334 238.086Z" fill="#3ABF0A"/>
<path d="M89.795 243.152C89.5688 243.514 89.7045 243.559 90.2021 243.378C90.6544 243.197 90.9711 243.287 90.9711 243.559C90.9711 243.83 91.2425 243.966 91.6044 243.83C91.921 243.695 92.4638 243.83 92.7352 244.102C93.1423 244.509 93.3685 244.463 93.6851 243.966C94.3184 243.016 94.228 242.609 93.459 242.609C93.0971 242.609 92.7805 242.79 92.7805 243.061C92.7805 243.333 92.3733 243.333 91.6044 243.061C90.1569 242.519 90.2021 242.519 89.795 243.152Z" fill="#3ABF0A"/>
<path d="M94.816 243.514C94.6803 243.74 94.7256 243.966 94.997 243.966C95.2232 243.966 95.585 243.74 95.7207 243.514C95.8564 243.242 95.8112 243.061 95.5398 243.061C95.3136 243.061 94.9517 243.242 94.816 243.514Z" fill="#3ABF0A"/>
<path d="M91.1973 244.871C91.0616 245.097 91.1521 245.323 91.3782 245.323C91.6496 245.323 91.8758 245.097 91.8758 244.871C91.8758 244.599 91.7854 244.418 91.6949 244.418C91.5592 244.418 91.333 244.599 91.1973 244.871Z" fill="#3ABF0A"/>
<path d="M95.0422 244.825C95.0422 245.097 94.7708 245.187 94.4994 245.097C93.5947 244.78 92.7352 245.549 93.0519 246.363C93.3685 247.177 94.1375 247.403 94.1375 246.68C94.1375 246.408 93.9113 246.227 93.6399 246.227C93.4137 246.227 93.3233 246.001 93.459 245.775C93.6851 245.413 93.9566 245.413 94.3637 245.775C94.7708 246.092 95.0874 246.047 95.4493 245.594C95.8112 245.142 95.8564 244.871 95.4945 244.644C95.2684 244.509 95.0422 244.554 95.0422 244.825Z" fill="#3ABF0A"/>
<path d="M91.0616 246.318C91.2877 246.996 92.3281 247.132 92.3734 246.454C92.3734 246.182 92.0567 245.911 91.6044 245.866C91.152 245.73 90.9259 245.911 91.0616 246.318Z" fill="#3ABF0A"/>
<path d="M273.401 299.011C273.085 299.146 272.813 299.463 272.813 299.78C272.813 300.142 272.361 300.956 271.818 301.634C270.868 302.855 270.868 302.901 271.682 303.489C273.039 304.484 273.627 304.257 274.623 302.358C275.799 300.051 275.165 298.378 273.401 299.011Z" fill="#3ABF0A"/>
<path d="M263.495 315.022C263.359 315.294 263.45 315.746 263.721 316.017C264.083 316.379 264.219 316.243 264.219 315.52C264.219 314.434 263.993 314.253 263.495 315.022Z" fill="#3ABF0A"/>
<path d="M497.899 364.142C497.945 365.363 498.126 366.268 498.261 366.177C498.397 366.132 498.714 366.087 498.94 366.087C499.528 366.087 499.844 363.237 499.347 362.559C498.352 361.383 497.809 362.016 497.899 364.142Z" fill="#3ABF0A"/>
<path d="M494.643 368.982C494.281 369.931 494.643 372.645 495.095 372.51C495.321 372.419 495.683 372.645 495.909 373.052C496.135 373.459 496.497 373.776 496.678 373.776C497.447 373.776 497.628 372.283 497.04 371.56C496.678 371.153 496.271 370.293 496.09 369.57C495.773 368.258 495.05 367.941 494.643 368.982Z" fill="#3ABF0A"/>
<path d="M498.442 383.455C497.719 383.998 497.176 384.586 497.176 384.767C497.176 385.4 498.397 385.083 499.166 384.224C500.387 382.867 499.845 382.324 498.442 383.455Z" fill="#3ABF0A"/>
<path d="M547.386 397.296C547.386 397.522 547.612 397.748 547.838 397.748C548.109 397.748 548.29 397.522 548.29 397.296C548.29 397.024 548.109 396.843 547.838 396.843C547.612 396.843 547.386 397.024 547.386 397.296Z" fill="#3ABF0A"/>
<path d="M523.683 409.779C523.185 411.045 523.412 412.086 524.316 412.9C525.719 414.166 526.352 413.262 525.628 410.91C525.085 409.01 524.181 408.513 523.683 409.779Z" fill="#3ABF0A"/>
<path d="M566.972 414.347C566.52 415.704 565.389 416.744 564.439 416.744C563.58 416.744 563.58 416.79 564.258 417.559C564.711 418.011 565.027 418.87 565.027 419.503C565.027 421.132 563.58 423.619 562.449 424.026C561.544 424.343 561.408 424.253 561.408 423.303C561.408 422.67 561.182 422.172 560.956 422.172C560.232 422.172 559.78 423.665 560.413 423.891C561.047 424.072 561.137 425.61 560.549 426.017C560.323 426.152 560.006 425.836 559.825 425.338C559.69 424.841 559.373 424.434 559.147 424.434C558.423 424.434 557.247 426.605 557.609 427.238C557.835 427.554 558.016 428.369 558.061 429.047C558.106 429.997 557.925 430.313 557.292 430.313C556.207 430.313 555.845 430.992 556.342 431.987C556.84 432.892 555.799 434.294 555.302 433.48C554.804 432.665 554.216 433.027 552.995 434.836C552.135 436.103 551.909 436.962 552.09 437.776C552.271 438.41 552.181 438.907 551.909 438.907C551.683 438.907 551.457 438.545 551.457 438.093C551.457 436.827 551.005 436.6 549.693 437.279C547.793 438.274 546.345 440.083 546.617 441.169C546.753 441.666 546.662 441.983 546.436 441.802C546.21 441.666 546.029 441.259 546.029 440.897C546.029 440.4 545.848 440.354 545.169 440.716C544.672 440.942 543.767 441.169 543.134 441.169C542.5 441.169 541.822 441.44 541.641 441.757C541.143 442.571 539.334 443.023 539.108 442.39C539.017 442.073 538.429 442.254 537.66 442.887C536.891 443.521 535.761 443.882 534.765 443.882C532.685 443.882 532.006 444.516 532.006 446.596C532.006 447.682 531.509 448.858 530.423 450.396C528.84 452.657 528.84 452.657 529.111 456.275C529.292 458.401 529.79 460.663 530.242 461.613C530.74 462.562 531.101 463.874 531.101 464.553C531.101 465.231 531.418 466.226 531.825 466.724C532.278 467.357 532.413 468.126 532.232 469.256C532.051 470.206 532.142 471.066 532.413 471.201C532.685 471.382 532.413 472.151 531.735 473.146C531.147 474.051 529.971 476.131 529.156 477.805C528.387 479.478 527.347 481.016 526.849 481.242C526.397 481.469 525.492 482.871 524.904 484.363C523.321 488.163 523.547 491.193 525.809 494.766C527.166 496.892 527.347 497.57 526.94 498.294C526.171 499.741 526.714 503.903 527.845 505.079C528.387 505.667 528.84 506.39 528.84 506.707C528.84 507.657 532.458 510.823 533.499 510.823C534.042 510.823 535.444 511.32 536.62 511.954C537.796 512.587 539.017 513.084 539.334 513.084C539.696 513.084 541.37 512.406 543.089 511.592C544.853 510.732 547.25 509.918 548.471 509.783C551.593 509.33 552.588 508.516 553.492 505.757C553.945 504.445 554.669 502.591 555.121 501.686C555.618 500.737 556.568 497.48 557.292 494.45C558.016 491.374 559.282 487.439 560.051 485.72C560.82 483.956 561.77 481.288 562.132 479.705C562.494 478.122 563.218 475.815 563.715 474.503C564.258 473.191 565.887 468.623 567.334 464.372C569.596 457.768 570.003 456.095 570.003 453.426C570.003 450.848 570.139 450.169 570.862 449.672C571.315 449.355 571.948 448.224 572.265 447.184C572.762 445.511 572.762 445.104 572.084 444.109C571.677 443.475 571.45 442.752 571.586 442.526C571.722 442.299 571.586 441.711 571.315 441.259C570.772 440.354 570.998 438.907 571.722 438.907C571.948 438.907 572.446 439.721 572.853 440.716C573.622 442.661 574.843 443.475 575.476 442.48C575.703 442.118 576.2 440.852 576.607 439.676C577.331 437.505 577.331 437.505 576.11 435.741C575.205 434.475 574.934 433.57 575.024 432.258C575.114 431.308 575.024 430.268 574.843 429.997C574.662 429.68 574.617 428.957 574.753 428.369C574.934 427.645 574.707 426.559 574.119 425.429C573.577 424.388 573.169 422.986 573.169 422.217C573.169 421.403 572.672 420.408 571.812 419.458C571.089 418.644 570.455 417.739 570.455 417.423C570.455 417.061 570.093 416.518 569.596 416.202C569.144 415.885 568.691 415.207 568.601 414.754C568.375 413.578 567.379 413.307 566.972 414.347Z" fill="#3ABF0A"/>
<path d="M532.142 414.392C530.83 414.573 530.83 415.161 532.097 416.021C533.318 416.88 534.177 416.292 533.544 415.071C533.273 414.528 532.775 414.302 532.142 414.392Z" fill="#3ABF0A"/>
<path d="M526.578 415.84C526.578 416.428 527.845 416.971 528.297 416.564C528.433 416.383 528.297 416.066 527.935 415.84C527.03 415.252 526.578 415.297 526.578 415.84Z" fill="#3ABF0A"/>
<path d="M537.118 419.684C537.118 420.363 537.344 420.815 537.706 420.815C538.068 420.815 538.339 420.499 538.339 420.137C538.339 419.775 538.61 419.458 538.927 419.458C539.289 419.458 539.244 419.277 538.791 419.006C537.66 418.282 537.118 418.508 537.118 419.684Z" fill="#3ABF0A"/>
<path d="M572.536 448.813C572.084 449.31 571.813 450.079 571.903 450.531C572.039 451.164 572.265 451.029 572.898 449.853C573.803 448.044 573.667 447.591 572.536 448.813Z" fill="#3ABF0A"/>
<path d="M520.019 450.667C520.155 450.893 520.381 451.119 520.517 451.119C520.607 451.119 520.698 450.893 520.698 450.667C520.698 450.396 520.471 450.215 520.2 450.215C519.974 450.215 519.883 450.396 520.019 450.667Z" fill="#3ABF0A"/>
<path d="M466.869 484.137C466.869 484.635 467.095 485.042 467.321 485.042C467.592 485.042 467.773 484.635 467.773 484.137C467.773 483.64 467.592 483.233 467.321 483.233C467.095 483.233 466.869 483.64 466.869 484.137Z" fill="#3ABF0A"/>
</svg>
