<svg width="638" height="638" viewBox="0 0 638 638" fill="none" xmlns="http://www.w3.org/2000/svg">
<circle cx="319" cy="319" r="319" fill="white"/>
<path d="M269.281 325.398C269.281 314.458 273.627 303.966 281.363 296.23C289.099 288.494 299.591 284.148 310.531 284.148C321.471 284.148 331.964 288.494 339.699 296.23C347.435 303.966 351.781 314.458 351.781 325.398H269.281Z" stroke="#23D160" stroke-width="9" stroke-linecap="round" stroke-linejoin="round"/>
<path d="M161 448.911H454.906" stroke="#23D160" stroke-width="9" stroke-linecap="round" stroke-linejoin="round"/>
<path d="M423.969 433.442V391.986H444.377V433.442" stroke="#23D160" stroke-width="9" stroke-linecap="round" stroke-linejoin="round"/>
<path d="M444.377 350.942V376.723H423.969V353.35" stroke="#23D160" stroke-width="9" stroke-linecap="round" stroke-linejoin="round"/>
<path d="M423.969 335.473V309.692H444.377V332.895" stroke="#23D160" stroke-width="9" stroke-linecap="round" stroke-linejoin="round"/>
<path d="M449.75 335.473H418.812V350.942H449.75V335.473Z" stroke="#23D160" stroke-width="9" stroke-linecap="round" stroke-linejoin="round"/>
<path d="M444.594 309.692L434.281 241.563L423.969 309.692" stroke="#23D160" stroke-width="9" stroke-linecap="round" stroke-linejoin="round"/>
<path d="M444.594 392.192H423.969L418.085 376.723H450.905L444.594 392.192Z" stroke="#23D160" stroke-width="9" stroke-linecap="round" stroke-linejoin="round"/>
<path d="M171.312 433.442V391.986H191.721V433.442" stroke="#23D160" stroke-width="9" stroke-linecap="round" stroke-linejoin="round"/>
<path d="M171.312 332.895V309.692H191.721V332.895" stroke="#23D160" stroke-width="9" stroke-linecap="round" stroke-linejoin="round"/>
<path d="M191.721 353.35V376.723H171.312V353.35" stroke="#23D160" stroke-width="9" stroke-linecap="round" stroke-linejoin="round"/>
<path d="M197.094 335.473H166.156V350.942H197.094V335.473Z" stroke="#23D160" stroke-width="9" stroke-linecap="round" stroke-linejoin="round"/>
<path d="M191.938 309.692L181.625 241.563L171.312 309.692" stroke="#23D160" stroke-width="9" stroke-linecap="round" stroke-linejoin="round"/>
<path d="M191.937 392.192H171.312L165.429 376.723H198.249L191.937 392.192Z" stroke="#23D160" stroke-width="9" stroke-linecap="round" stroke-linejoin="round"/>
<path d="M397.971 340.423H377.562V387.036H397.971V340.423Z" stroke="#23D160" stroke-width="9" stroke-linecap="round" stroke-linejoin="round"/>
<path d="M403.344 283.911H372.406V299.38H403.344V283.911Z" stroke="#23D160" stroke-width="9" stroke-linecap="round" stroke-linejoin="round"/>
<path d="M377.562 258.13H398.188L387.875 190L377.562 258.13Z" stroke="#23D160" stroke-width="9" stroke-linecap="round" stroke-linejoin="round"/>
<path d="M398.187 340.63H377.562L371.679 325.161H404.499L398.187 340.63Z" stroke="#23D160" stroke-width="9" stroke-linecap="round" stroke-linejoin="round"/>
<path d="M217.719 387.036V340.423H238.127V387.036" stroke="#23D160" stroke-width="9" stroke-linecap="round" stroke-linejoin="round"/>
<path d="M238.127 387.036H217.719" stroke="#23D160" stroke-width="9" stroke-linecap="round" stroke-linejoin="round"/>
<path d="M217.719 283.911V258.13" stroke="#23D160" stroke-width="9" stroke-linecap="round" stroke-linejoin="round"/>
<path d="M238.127 258.13V283.911" stroke="#23D160" stroke-width="9" stroke-linecap="round" stroke-linejoin="round"/>
<path d="M217.719 325.161V299.38" stroke="#23D160" stroke-width="9" stroke-linecap="round" stroke-linejoin="round"/>
<path d="M238.127 299.38V325.161" stroke="#23D160" stroke-width="9" stroke-linecap="round" stroke-linejoin="round"/>
<path d="M377.562 283.911V258.13" stroke="#23D160" stroke-width="9" stroke-linecap="round" stroke-linejoin="round"/>
<path d="M397.971 258.13V283.911" stroke="#23D160" stroke-width="9" stroke-linecap="round" stroke-linejoin="round"/>
<path d="M377.562 325.161V299.38" stroke="#23D160" stroke-width="9" stroke-linecap="round" stroke-linejoin="round"/>
<path d="M397.971 299.38V325.161" stroke="#23D160" stroke-width="9" stroke-linecap="round" stroke-linejoin="round"/>
<path d="M243.5 283.911H212.562V299.38H243.5V283.911Z" stroke="#23D160" stroke-width="9" stroke-linecap="round" stroke-linejoin="round"/>
<path d="M217.719 258.13H238.344L228.031 190L217.719 258.13Z" stroke="#23D160" stroke-width="9" stroke-linecap="round" stroke-linejoin="round"/>
<path d="M238.344 340.63H217.719L211.835 325.161H244.655L238.344 340.63Z" stroke="#23D160" stroke-width="9" stroke-linecap="round" stroke-linejoin="round"/>
<path d="M407.458 433.772H444.377V448.911H171.312V433.772H208.283" stroke="#23D160" stroke-width="9" stroke-linecap="round" stroke-linejoin="round"/>
<path d="M217.719 421.237V387.036H398.188V420.448" stroke="#23D160" stroke-width="9" stroke-linecap="round" stroke-linejoin="round"/>
<path d="M222.859 446.307C229.657 446.307 235.167 440.695 235.167 433.772C235.167 426.849 229.657 421.237 222.859 421.237C216.062 421.237 210.552 426.849 210.552 433.772C210.552 440.695 216.062 446.307 222.859 446.307Z" stroke="#23D160" stroke-width="9" stroke-linecap="round" stroke-linejoin="round"/>
<path d="M247.475 446.307C254.273 446.307 259.783 440.695 259.783 433.772C259.783 426.849 254.273 421.237 247.475 421.237C240.678 421.237 235.167 426.849 235.167 433.772C235.167 440.695 240.678 446.307 247.475 446.307Z" stroke="#23D160" stroke-width="9" stroke-linecap="round" stroke-linejoin="round"/>
<path d="M272.086 446.307C278.884 446.307 284.394 440.695 284.394 433.772C284.394 426.849 278.884 421.237 272.086 421.237C265.289 421.237 259.778 426.849 259.778 433.772C259.778 440.695 265.289 446.307 272.086 446.307Z" stroke="#23D160" stroke-width="9" stroke-linecap="round" stroke-linejoin="round"/>
<path d="M296.702 446.307C303.5 446.307 309.01 440.695 309.01 433.772C309.01 426.849 303.5 421.237 296.702 421.237C289.905 421.237 284.394 426.849 284.394 433.772C284.394 440.695 289.905 446.307 296.702 446.307Z" stroke="#23D160" stroke-width="9" stroke-linecap="round" stroke-linejoin="round"/>
<path d="M321.313 446.307C328.11 446.307 333.621 440.695 333.621 433.772C333.621 426.849 328.11 421.237 321.313 421.237C314.515 421.237 309.005 426.849 309.005 433.772C309.005 440.695 314.515 446.307 321.313 446.307Z" stroke="#23D160" stroke-width="9" stroke-linecap="round" stroke-linejoin="round"/>
<path d="M345.929 446.307C352.726 446.307 358.237 440.695 358.237 433.772C358.237 426.849 352.726 421.237 345.929 421.237C339.131 421.237 333.621 426.849 333.621 433.772C333.621 440.695 339.131 446.307 345.929 446.307Z" stroke="#23D160" stroke-width="9" stroke-linecap="round" stroke-linejoin="round"/>
<path d="M370.54 446.307C377.337 446.307 382.848 440.695 382.848 433.772C382.848 426.849 377.337 421.237 370.54 421.237C363.742 421.237 358.232 426.849 358.232 433.772C358.232 440.695 363.742 446.307 370.54 446.307Z" stroke="#23D160" stroke-width="9" stroke-linecap="round" stroke-linejoin="round"/>
<path d="M269.281 356.098V325.161H351.781V356.098" stroke="#23D160" stroke-width="9" stroke-linecap="round" stroke-linejoin="round"/>
<path d="M395.151 446.307C401.948 446.307 407.458 440.695 407.458 433.772C407.458 426.849 401.948 421.237 395.151 421.237C388.353 421.237 382.843 426.849 382.843 433.772C382.843 440.695 388.353 446.307 395.151 446.307Z" stroke="#23D160" stroke-width="9" stroke-linecap="round" stroke-linejoin="round"/>
<path d="M351.425 387.036H336.312V356.098L343.593 345.786L351.425 356.098V387.036Z" stroke="#23D160" stroke-width="9" stroke-linecap="round" stroke-linejoin="round"/>
<path d="M284.394 387.036H269.281V356.098L276.562 345.786L284.394 356.098V387.036Z" stroke="#23D160" stroke-width="9" stroke-linecap="round" stroke-linejoin="round"/>
<path d="M336.313 356.098H284.394V387.036H336.313V356.098Z" stroke="#23D160" stroke-width="9" stroke-linecap="round" stroke-linejoin="round"/>
<path d="M295.062 387.036C295.062 382.933 296.692 378.999 299.593 376.098C302.494 373.197 306.429 371.567 310.531 371.567C314.634 371.567 318.568 373.197 321.469 376.098C324.37 378.999 326 382.933 326 387.036" stroke="#23D160" stroke-width="9" stroke-linecap="round" stroke-linejoin="round"/>
<path d="M253.812 368.979V356.098H269.281" stroke="#23D160" stroke-width="9" stroke-linecap="round" stroke-linejoin="round"/>
<path d="M351.781 356.098H367.25V368.979" stroke="#23D160" stroke-width="9" stroke-linecap="round" stroke-linejoin="round"/>
<path d="M235.167 387.036C235.298 382.771 237.085 378.724 240.148 375.754C243.211 372.783 247.31 371.122 251.577 371.122C255.844 371.122 259.943 372.783 263.007 375.754C266.07 378.724 267.856 382.771 267.987 387.036" stroke="#23D160" stroke-width="9" stroke-linecap="round" stroke-linejoin="round"/>
<path d="M351.781 387.036C351.744 384.972 352.118 382.922 352.882 381.004C353.645 379.087 354.783 377.341 356.23 375.868C357.676 374.395 359.401 373.225 361.304 372.427C363.207 371.628 365.251 371.217 367.315 371.217C369.379 371.217 371.422 371.628 373.325 372.427C375.228 373.225 376.954 374.395 378.4 375.868C379.846 377.341 380.984 379.087 381.748 381.004C382.511 382.922 382.885 384.972 382.848 387.036" stroke="#23D160" stroke-width="9" stroke-linecap="round" stroke-linejoin="round"/>
<path d="M284.394 356.098C284.394 347.554 295.413 340.63 309.005 340.63C322.597 340.63 333.621 347.554 333.621 356.098H284.394Z" stroke="#23D160" stroke-width="9" stroke-linecap="round" stroke-linejoin="round"/>
<path d="M310.531 280.662V268.442" stroke="#23D160" stroke-width="9" stroke-linecap="round" stroke-linejoin="round"/>
</svg>
