<svg width="638" height="638" viewBox="0 0 638 638" fill="none" xmlns="http://www.w3.org/2000/svg">
<circle cx="319" cy="319" r="319" fill="white"/>
<path d="M399.965 25.2081C398.493 25.5018 398.829 26.4249 400.68 27.3061C401.605 27.7257 402.362 28.1873 402.362 28.3551C402.362 28.523 401.858 29.0265 401.227 29.53C399.544 30.8728 398.998 31.7959 398.535 34.4394C398.283 35.7822 397.82 37.2927 397.484 37.7963C396.979 38.6355 394.077 40.4398 393.278 40.4398C393.11 40.4398 393.152 39.139 393.278 37.5025C393.53 34.901 393.488 34.5653 392.731 34.0618C391.932 33.5582 391.932 33.5582 392.773 32.3414C393.867 30.8308 394.329 27.432 393.488 27.432C392.731 27.432 392.521 27.7677 387.516 37.0829C381.081 49.1256 380.619 49.7131 379.694 47.1115C379.021 45.1394 379.105 44.0484 380.24 41.6147C380.829 40.3978 381.67 38.3418 382.175 37.0829C382.638 35.8241 383.941 33.4743 385.035 31.9218C386.927 29.1524 386.969 29.0265 386.17 28.439C384.951 27.5579 383.899 27.7257 383.353 28.9006C382.806 30.1594 382.343 30.2434 381.965 29.1524C381.544 27.7677 380.03 26.1732 379.189 26.1732C378.222 26.1732 377.759 27.1383 377.128 30.4532C376.876 31.7539 376.371 33.0547 375.993 33.3904C374.773 34.3555 374.184 36.4116 374.605 37.9641C374.815 38.7194 374.941 39.3908 374.857 39.4747C374.773 39.5586 373.974 39.181 373.133 38.5516C372.25 37.9641 371.408 37.5025 371.198 37.5025C370.357 37.5025 368.633 40.4817 368.633 41.9084C368.633 43.1253 368.422 43.5029 367.413 44.0484C366.067 44.7198 365.899 45.517 366.782 47.6151C367.077 48.4123 367.455 49.5452 367.623 50.2166C367.876 51.2656 367.834 51.3496 366.866 51.0978C366.109 50.9299 365.394 51.1397 364.469 51.8111C363.165 52.7343 363.165 52.7343 363.418 51.8531C363.628 51.2656 363.418 50.7201 362.787 50.1327C362.24 49.6292 361.735 49.2515 361.609 49.2515C361.483 49.2515 361.062 49.0417 360.726 48.8319C360.179 48.4962 360.221 48.3703 360.936 47.8249C362.072 47.0276 361.525 46.608 360.053 47.1535C359.128 47.5311 359.002 47.699 359.464 47.9927C360.095 48.3703 360.137 48.3703 357.992 49.0417C357.151 49.2935 357.193 48.8319 358.076 48.2025C358.707 47.7409 358.623 47.6151 357.151 47.1954C354.88 46.566 354.081 46.566 354.754 47.2374C355.048 47.5311 355.259 48.706 355.259 49.9229C355.259 51.0978 355.553 52.7762 355.889 53.5735C356.226 54.4127 356.52 55.2939 356.52 55.5456C356.52 56.3848 355.216 55.9652 354.754 54.9162C354.291 53.9091 352.525 53.028 350.843 53.028C350.338 53.028 349.034 53.4895 347.899 54.077C346.721 54.7064 345.585 55.0421 345.081 54.8742C343.945 54.5386 343.062 55.4197 343.062 57.0562C343.062 58.9025 343.567 60.1613 344.955 61.504C346.342 62.8887 346.132 62.9726 343.903 61.8397C341.716 60.7487 340.539 60.7487 340.539 61.8397C340.539 62.8468 339.319 65.3224 338.057 66.875C336.964 68.2177 336.964 67.882 338.015 65.5322C339.487 62.2174 340.707 53.028 339.739 52.4405C339.109 52.0209 338.52 53.1539 337.595 56.5107C337.132 58.315 335.66 61.8397 334.314 64.3154L331.917 68.8471L330.613 67.4205C329.562 66.3295 328.973 66.0358 327.669 66.0358C326.744 66.0358 325.608 66.3295 325.104 66.6652C324.178 67.2946 324.178 67.2946 324.22 65.826C324.305 63.8119 323.463 62.9726 322.875 64.5252C322.664 65.1546 322.454 66.3295 322.454 67.1267C322.454 69.015 321.781 70.2318 320.772 70.2318C319.678 70.2318 316.987 72.6236 316.987 73.6306C316.987 74.0503 317.365 74.5957 317.87 74.8475C318.333 75.1412 318.627 75.6028 318.501 75.8965C318.417 76.1902 318.669 76.7777 319.132 77.1973C319.931 77.9106 319.889 77.9526 316.903 78.8338C309.248 81.0577 304.37 85.3377 309.459 85.3377C310.72 85.3377 310.426 85.8832 308.575 86.9322C306.809 87.9392 306.43 89.0302 307.524 89.9533C308.365 90.6667 308.323 91.2122 307.229 92.3451C306.388 93.2263 306.388 93.3521 307.019 94.0655C308.954 96.1635 307.145 97.4223 301.468 97.9678C296.883 98.3874 295.58 98.7231 294.739 99.7721C293.309 101.493 295.79 102.416 297.767 100.863C298.986 99.898 300.711 99.7721 301.384 100.611C302.014 101.367 301.215 101.996 299.323 102.206C298.061 102.332 297.851 102.5 297.725 103.507C297.556 104.933 298.355 105.311 300.584 104.723C302.729 104.178 302.982 104.598 301.846 106.947C300.837 109.003 300.542 109.171 299.743 108.206C299.449 107.871 298.818 107.577 298.355 107.577C297.893 107.577 297.052 107.199 296.547 106.696C295.958 106.15 295.327 105.898 294.823 106.066C293.897 106.36 290.238 109.969 290.533 110.304C290.659 110.388 292.341 110.808 294.276 111.185C298.313 111.941 299.113 112.276 299.785 113.493C300.458 114.752 299.954 114.92 298.65 113.913C296 111.857 291.753 111.857 289.65 113.913C288.977 114.584 288.178 115.13 287.883 115.13C287.547 115.13 286.664 115.759 285.907 116.556L284.519 117.983L285.738 119.074L286.916 120.165H285.318C283.341 120.165 283.299 120.794 285.234 121.466C287.126 122.179 287.126 122.683 285.234 122.683C283.551 122.683 283.383 123.06 284.603 123.858C285.696 124.529 285.402 125.032 283.215 126.039C282.248 126.501 280.902 127.34 280.187 127.886C278.168 129.522 279.093 129.9 284.813 129.732L289.734 129.606L287.505 131.62C286.243 132.753 284.687 133.928 284.056 134.306C282.963 134.851 282.752 134.851 282.122 134.264C281.112 133.341 280.271 133.425 279.22 134.557C278 135.858 278.042 136.446 279.598 138.334C280.944 139.97 280.86 140.222 279.135 139.257C277.243 138.166 276.36 138.46 275.392 140.432C273.878 143.537 273.836 144.712 275.14 146.642L276.276 148.404L275.098 148.111C274.425 147.943 273.584 147.733 273.205 147.607C272.28 147.355 271.103 148.53 271.439 149.454C271.86 150.712 273.374 152.055 274.257 152.055C274.762 152.055 275.855 151.468 276.738 150.754C277.579 150.041 278.294 149.621 278.294 149.831C278.294 150.544 274.383 154.615 271.313 157.132C269.589 158.517 268.285 159.818 268.411 160.028C268.537 160.195 267.528 161.328 266.224 162.503L263.785 164.643H266.224C268.958 164.643 269.294 165.063 267.107 165.86C266.14 166.196 265.677 166.615 265.845 166.951C266.056 167.581 264.626 169.679 263.953 169.679C263.701 169.679 263.028 169.091 262.439 168.42C261.177 166.909 259.747 166.699 259.915 168.084C259.958 168.755 259.705 169.049 258.654 169.343C256.887 169.804 255.331 171.777 254.49 174.546C254.112 175.847 253.27 177.525 252.555 178.322L251.294 179.749H252.555C254.28 179.749 254.574 180.379 253.481 181.763L252.555 182.896L253.439 183.022C254.658 183.232 257.14 182.393 259.074 181.176C261.051 179.875 261.093 179.204 259.158 179.413C258.359 179.497 257.686 179.455 257.686 179.288C257.686 178.784 261.177 176.057 262.397 175.595C263.995 175.008 264.836 175.931 264.836 178.28C264.836 179.665 264.584 180.379 263.911 181.008C263.406 181.469 262.859 181.847 262.691 181.847C262.018 181.847 261.051 183.232 260.63 184.742C260.168 186.547 259.537 186.882 256.383 186.882C254.027 186.882 253.691 187.176 254.869 188.183L255.794 188.98L253.691 188.897L251.588 188.771L251.714 187.05C251.883 185.036 251.126 184.197 249.569 184.575C248.182 184.952 246.289 186.882 247.298 186.882C249.612 186.882 246.457 189.862 241.957 191.96C240.443 192.673 239.181 193.344 239.181 193.47C239.181 193.596 239.644 194.058 240.233 194.519C240.99 195.107 241.284 195.736 241.284 196.827V198.296L239.854 197.373C238.004 196.282 237.625 196.827 238.971 198.799L239.98 200.31H236.322C232.158 200.31 230.896 200.771 232.242 201.82C232.999 202.408 232.747 202.45 228.877 202.408C221.686 202.282 221.517 202.282 221.517 203.247C221.517 203.96 221.812 204.086 223.326 204.086C225.261 204.086 227.868 205.513 228.709 207.065C229.088 207.779 228.962 208.24 227.994 209.583C227.363 210.464 226.69 211.22 226.522 211.22C226.312 211.22 226.144 210.338 226.144 209.289C226.144 205.723 224.672 204.842 221.938 206.688C219.919 208.073 219.499 208.912 220.382 209.877C220.76 210.296 221.097 210.758 221.097 210.884C221.097 211.01 219.919 211.01 218.489 210.926C216.218 210.758 215.672 210.842 214.662 211.639C212.265 213.527 212.98 213.863 220.803 214.367C224.63 214.618 225.723 214.87 225.723 215.374C225.723 216.003 223.536 216.674 221.517 216.674C220.003 216.674 219.331 216.884 219.078 217.388C218.7 218.017 218.489 217.891 217.186 216.549C215.293 214.492 213.569 214.576 211.76 216.842C210.751 218.059 210.835 218.269 212.139 218.437C212.938 218.521 213.358 218.856 213.443 219.402C213.527 219.863 213.863 220.451 214.242 220.745C214.788 221.164 214.662 221.332 213.443 221.961L212.055 222.717L214.115 223.094L216.134 223.514L212.938 224.731C208.143 226.577 208.522 226.913 216.05 227.374C218.489 227.5 220.634 227.794 220.803 228.004C221.307 228.423 219.12 229.095 215.209 229.682C213.485 229.934 211.886 230.312 211.676 230.521C210.793 231.403 214.536 234.759 215.672 234.088C216.302 233.669 217.312 234.676 217.312 235.725C217.312 236.186 217.017 237.445 216.639 238.494C215.966 240.382 216.134 242.858 216.933 243.361C217.186 243.487 218.111 243.026 219.036 242.27C219.961 241.515 220.845 241.054 220.971 241.179C221.433 241.641 219.667 245.459 218.363 246.76C217.396 247.725 217.144 248.229 217.48 248.523C218.321 249.236 220.045 249.446 221.223 249.026C222.737 248.439 222.695 249.11 221.139 250.705C220.466 251.376 219.457 251.921 218.91 251.921C218.363 251.921 216.891 252.845 215.419 254.061C212.559 256.537 211.676 257.628 212.055 258.215C212.686 259.264 216.05 258.174 216.05 256.915C216.05 255.572 220.508 253.18 223.032 253.18C224.419 253.18 224.293 253.935 222.695 255.572C221.433 256.873 221.391 256.957 222.274 256.957C223.578 256.957 223.41 257.586 221.896 258.677C221.013 259.306 220.676 259.81 220.803 260.397C220.929 260.901 220.718 261.363 220.214 261.698C219.204 262.328 219.162 262.957 220.172 262.663C220.55 262.579 221.728 262.328 222.779 262.202L224.672 261.908L222.863 263.209C221.77 264.006 221.097 264.845 221.097 265.391V266.23L220.003 265.391C218.573 264.258 217.732 264.258 217.732 265.433V266.314L216.681 265.349L215.63 264.384V265.768C215.63 267.699 216.765 269.293 220.634 272.818C222.569 274.538 224.041 276.259 224.125 276.804C224.251 277.685 224.419 277.727 228.078 277.727C231.527 277.727 232.116 277.601 234.387 276.426C235.733 275.713 237.121 275.21 237.373 275.293C237.667 275.419 239.35 274.119 241.074 272.398C243.261 270.216 244.312 268.915 244.481 267.95C244.691 266.985 245.111 266.398 245.826 266.146C246.373 265.936 247.803 264.887 248.981 263.838C250.663 262.328 251.294 261.992 252.177 262.202C253.607 262.495 254.154 262.076 254.953 260.188C255.373 259.139 255.584 257.46 255.542 254.943C255.499 252.928 255.626 250.83 255.794 250.243C256.509 247.851 258.612 246.886 259.116 248.648C259.243 249.194 259.369 251.376 259.369 253.516C259.369 255.656 259.579 257.796 259.831 258.257C260.042 258.719 261.261 259.516 262.523 260.062C263.953 260.733 265.004 261.488 265.383 262.244L265.972 263.419L266.56 262.37C266.939 261.698 267.149 259.894 267.149 257.125C267.191 253.81 267.36 252.593 267.948 251.754C268.327 251.124 268.537 250.453 268.411 250.201C268.243 249.991 268.958 248.9 269.967 247.767C272.869 244.536 273.71 240.256 272.659 234.298C271.776 229.514 271.776 229.43 273.205 228.927C274.635 228.423 275.645 227.081 276.023 225.192C276.234 224.06 276.023 223.598 274.383 221.836C273.374 220.745 272.196 219.192 271.776 218.395C270.724 216.297 270.261 210.254 270.261 197.792C270.261 185.833 270.514 183.987 272.617 180.337C274.047 177.903 277.075 175.259 279.093 174.714C280.061 174.462 281.743 174.378 282.879 174.546C285.738 174.924 286.916 174.546 287.547 173.077C288.262 171.315 287.715 169.511 285.823 167.329C283.888 165.105 283.846 165.482 286.79 158.811C289.566 152.433 290.365 148.95 290.827 141.061C291.248 133.928 291.5 133.173 293.519 133.173C295.201 133.173 297.472 132.166 298.019 131.159C298.271 130.655 298.355 129.48 298.229 128.347C297.977 126.753 298.103 126.291 298.818 125.494C300.374 123.816 306.472 113.787 306.472 112.864C306.472 112.402 305.884 111.143 305.211 110.094C304.538 109.045 303.949 107.912 303.949 107.577C303.949 107.199 304.706 106.15 305.673 105.269C306.683 104.262 308.071 102.164 309.08 100.108C310.931 96.2474 313.412 93.3102 314.842 93.3102C315.346 93.3102 316.314 93.6039 317.029 93.9816C319.678 95.3243 320.898 93.6878 321.361 88.0651C321.529 86.2188 321.865 84.1628 322.118 83.5334C322.538 82.4424 322.748 82.3585 324.094 82.5263C324.935 82.6102 327.964 83.7432 330.865 85.0439C338.057 88.191 337.763 88.191 338.057 85.1279C338.225 83.7432 338.73 81.6871 339.235 80.5961C340.37 78.0365 340.328 77.6169 339.109 74.5957C338.562 73.253 338.183 71.9942 338.268 71.8683C338.352 71.7424 339.277 71.4907 340.37 71.3228C341.632 71.155 343.23 70.4836 344.828 69.3926C347.941 67.3366 350.254 66.6232 351.557 67.3366C352.651 67.924 353.114 68.4695 355.637 72.5397C358.707 77.491 361.441 79.8828 364.006 79.8828C364.637 79.8828 366.277 79.2114 367.623 78.4142C368.969 77.6169 370.525 76.9455 371.114 76.9455C371.661 76.9455 373.385 77.7008 374.941 78.624C378.558 80.8059 379.525 80.764 380.787 78.1624C381.712 76.1902 382.68 75.2252 385.077 73.9244L386.339 73.211L386.297 69.0989C386.297 65.3224 386.381 64.6511 387.769 61.1264C388.61 58.9864 389.409 56.5527 389.577 55.7554C389.871 54.077 390.124 53.9091 395.717 51.979C397.484 51.3915 400.301 50.0488 401.984 48.9998C403.666 47.9507 405.264 47.1954 405.517 47.3213C405.811 47.4053 407.914 49.0837 410.185 51.0558C417.839 57.5597 418.722 60.2452 415.106 66.1197C413.507 68.6793 413.381 70.4416 414.727 70.4416C415.274 70.4416 415.694 69.9381 416.115 68.7632C416.83 66.7071 418.302 65.1126 421.162 63.2244C423.769 61.5879 424.19 60.455 423.138 58.2731C422.213 56.3009 421.624 56.0911 419.9 57.1821C419.101 57.6856 418.344 58.0633 418.176 58.0633C417.545 58.0633 418.007 56.6786 418.975 55.7554C420.615 54.077 420.531 53.2797 418.638 53.1119C417.797 53.028 417.166 52.8182 417.292 52.6084C417.755 51.8531 416.62 50.5103 414.18 48.8739C411.783 47.2374 410.942 46.1884 411.447 45.4331C411.867 44.7198 413.76 45.0555 416.998 46.3143C420.825 47.8668 420.825 47.8668 426.755 44.0484L431.003 41.279L429.657 39.5586C427.975 37.4186 426.082 36.5374 424.274 37.0829C422.718 37.5025 422.718 37.4186 423.811 35.5724C424.694 34.1877 424.694 34.1877 423.853 33.768C422.592 33.0967 421.793 33.2226 421.498 34.1457C421.246 34.9849 421.246 34.9849 420.11 34.1457C419.479 33.6422 418.302 32.8449 417.503 32.3414C416.62 31.7959 415.863 30.8308 415.568 30.0335C414.895 27.8936 414.433 27.6838 413.003 28.8587C412.204 29.53 411.236 31.0826 410.563 32.761C409.26 36.0759 407.788 38.132 406.568 38.4676C405.264 38.8033 405.18 38.1739 406.189 35.8241C406.694 34.6492 406.989 33.5582 406.82 33.4324C406.694 33.2645 405.685 33.5582 404.675 34.0618C403.624 34.5653 402.657 34.9849 402.573 34.9849C402.488 34.9849 402.867 34.2716 403.456 33.4324C404.171 32.3414 404.423 31.5441 404.255 30.7469C404.045 29.8237 404.171 29.572 404.97 29.3622C405.517 29.2363 406.316 29.1104 406.82 29.1104C407.956 29.1104 409.218 27.7257 409.007 26.7187C408.923 26.2991 408.25 25.7536 407.409 25.4598C405.979 24.9983 401.858 24.8304 399.965 25.2081ZM224.041 208.702C225.05 210.674 225.05 210.8 224.293 210.8C223.746 210.8 222.779 208.786 222.779 207.611C222.779 206.646 223.158 206.94 224.041 208.702Z" fill="#3ABF0A"/>
<path d="M369.137 32.8869C369.137 34.0617 370.02 35.8241 370.609 35.8241C371.24 35.8241 372.502 34.4814 372.502 33.81C372.502 33.3065 370.399 32.0476 369.558 32.0476C369.347 32.0476 369.137 32.4253 369.137 32.8869Z" fill="#3ABF0A"/>
<path d="M330.739 49.2096C330.613 49.6711 330.024 50.1327 329.225 50.3005C328.51 50.4684 327.921 50.7621 327.921 51.0139C327.921 51.5174 330.361 53.8672 330.865 53.8672C331.664 53.8672 332.548 52.4825 332.548 51.3076C332.548 49.0417 331.202 47.4892 330.739 49.2096Z" fill="#3ABF0A"/>
<path d="M400.68 50.7621C398.493 52.0209 395.927 53.2797 395.002 53.5315C394.077 53.7832 392.983 54.2867 392.605 54.6224C391.385 55.6295 389.871 58.5667 388.652 62.0914C387.726 64.8608 387.516 66.0777 387.558 69.5185L387.6 73.6306L386.338 74.3439C383.184 76.0643 381.754 77.9945 381.165 81.2255C380.997 82.1067 380.745 82.82 380.619 82.82C380.451 82.82 378.516 81.771 376.245 80.5121C374.016 79.2533 371.661 78.2043 370.988 78.2043C370.357 78.2043 368.969 78.7498 367.918 79.4212C365.184 81.1416 363.67 81.3514 361.441 80.3863C359.212 79.4212 357.361 77.2392 354.039 71.9102C351.768 68.2177 351.515 67.924 350.38 68.0498C348.277 68.3016 347.141 69.3087 347.352 70.6934C347.604 72.2879 347.226 72.4977 345.291 71.9522C344.366 71.7004 343.567 71.6585 343.356 71.8683C342.641 72.5816 346.889 76.5259 352.945 80.8478C360.305 86.1349 364.343 90.0792 366.193 93.8976C367.455 96.4152 367.623 97.2125 367.875 101.786C368.128 105.772 368.338 106.989 368.885 107.367C369.39 107.745 369.558 108.542 369.558 110.388C369.558 112.234 369.852 113.577 370.651 115.339C371.703 117.647 371.745 117.983 371.408 121.382C371.198 123.354 371.072 126.963 371.072 129.396C371.072 133.508 371.156 134.012 372.46 136.781C374.058 140.306 376.035 142.362 379.231 143.957C380.661 144.67 381.754 145.593 382.091 146.264C382.764 147.733 383.815 153.566 383.941 156.881L384.067 159.398H381.88C379.946 159.398 379.525 159.566 378.179 160.867C377.338 161.664 374.773 165.063 372.502 168.42C368.002 175.049 366.404 176.854 363.964 177.861C361.483 178.868 358.244 183.903 358.202 186.715C358.202 188.393 357.656 188.855 354.88 189.442C352.609 189.904 352.272 190.281 351.726 192.799C351.599 193.428 350.716 194.939 349.791 196.156C348.866 197.414 347.983 198.799 347.856 199.261C347.73 199.722 348.025 201.694 348.487 203.667C348.992 205.639 349.37 208.576 349.37 210.212C349.37 212.394 349.665 213.863 350.422 215.751C351.599 218.689 351.726 220.912 350.884 224.227C350.085 227.416 349.202 235.683 349.539 236.983C349.875 238.326 350.884 238.872 353.913 239.249C356.268 239.543 356.31 239.585 356.31 240.928C356.31 243.068 357.319 243.361 360.473 242.312C361.903 241.809 363.207 241.431 363.375 241.431C363.544 241.431 363.544 242.522 363.417 243.865C363.123 246.55 363.67 248.145 364.847 248.145C366.866 248.145 377.549 245.082 380.24 243.739C381.88 242.942 384.32 242.103 385.581 241.893C386.843 241.683 389.619 240.844 391.764 240.005C394.161 239.039 396.853 238.368 398.998 238.116C401.605 237.823 402.783 237.487 404.044 236.606C405.979 235.263 420.489 219.612 424.484 214.576C428.311 209.709 432.307 203.918 433.737 201.149C436.26 196.24 435.082 192.337 430.036 188.938C427.008 186.882 424.526 184.491 422.76 181.889C421.75 180.42 421.624 180.043 422.129 179.749C424.021 178.7 426.419 176.644 426.839 175.763C427.512 174.294 426.965 172.868 424.863 170.518C423.012 168.42 422.928 168.294 423.012 165.86C423.096 163.846 422.928 163.133 422.171 162.21C420.615 160.237 420.32 159.104 420.11 154.111C419.9 148.363 420.489 144.964 421.961 143.369C423.769 141.439 423.475 140.306 418.26 127.172L414.433 117.647L416.073 115.004C416.956 113.577 418.764 110.346 420.11 107.829L422.507 103.297L420.783 100.485C418.638 96.9607 416.619 94.8627 413.886 93.3101C412.54 92.5549 411.573 91.6737 411.278 90.9184C409.764 87.058 409.554 83.2816 410.647 79.8827C411.194 78.1624 411.236 77.5329 410.858 76.9035C410.143 75.7706 410.227 75.309 411.489 73.5047C412.246 72.4137 412.582 71.4067 412.54 70.3577C412.498 69.2667 413.003 67.882 414.222 65.7C417.334 60.0773 416.451 57.3918 409.638 51.7691C407.409 49.9228 405.39 48.4542 405.138 48.4542C404.886 48.4962 402.867 49.5452 400.68 50.7621Z" fill="#3ABF0A"/>
<path d="M324.136 55.9651C323.884 56.3847 323.59 57.6436 323.463 58.6926C323.211 60.2871 323.295 60.5808 323.884 60.5808C324.893 60.5808 326.66 58.6926 326.66 57.6436C326.66 55.4616 325.02 54.3287 324.136 55.9651Z" fill="#3ABF0A"/>
<path d="M330.991 56.217C329.646 58.315 330.445 63.7279 332.127 63.7279C333.305 63.7279 334.272 61.0005 334.146 58.0632C334.02 55.4617 333.977 55.3358 332.884 55.2099C332.043 55.126 331.58 55.3777 330.991 56.217Z" fill="#3ABF0A"/>
<path d="M317.66 62.3013C316.524 63.1825 315.052 67.2526 315.473 68.3856C316.019 69.8122 319.51 68.0079 319.51 66.2876C319.51 65.7421 319.805 65.0707 320.141 64.777C321.277 63.8119 320.688 61.4201 319.258 61.4201C319.005 61.4201 318.29 61.7978 317.66 62.3013Z" fill="#3ABF0A"/>
<path d="M340.286 72.7915C340.16 73.0432 340.328 74.344 340.749 75.6868L341.506 78.1624L340.16 80.8899C339.024 83.2397 338.898 83.7852 339.361 84.4985C339.823 85.1699 339.781 85.5475 339.192 86.4706C337.847 88.6945 337.258 88.7785 334.019 87.3938C332.421 86.6804 329.856 85.8412 328.342 85.5475C326.491 85.1279 325.398 84.6663 325.019 84.0789C324.304 83.0299 323.463 82.9879 323.085 83.953C322.958 84.3726 322.622 86.3867 322.412 88.4428C321.991 92.3451 320.856 95.66 319.72 96.0796C319.342 96.2475 318.08 95.8279 316.902 95.1984L314.799 94.0655L313.706 94.8628C312.612 95.702 311.351 97.842 308.954 103.087C307.86 105.479 307.482 105.982 306.43 106.192C305.757 106.318 305.084 106.612 304.958 106.822C304.832 106.989 305.421 108.416 306.262 109.927C307.313 111.815 307.734 112.99 307.566 113.619C307.439 114.165 306.178 116.347 304.79 118.445C301.509 123.48 300.29 125.914 299.575 128.977C298.818 132.124 298.523 132.501 296.042 133.425C292.593 134.683 292.551 134.809 291.92 142.278C291.29 149.999 290.785 152.139 287.967 158.727C285.275 165.189 285.149 165.566 286.369 166.112C286.916 166.364 287.673 167.371 288.135 168.462C289.019 170.686 288.85 172.448 287.547 174.63L286.705 176.015L282.458 175.721L278.252 175.427L276.023 177.735C273.121 180.714 272.07 183.442 271.481 189.568C271.018 194.561 271.313 208.198 272.028 213.947C272.49 217.514 272.827 218.227 275.644 221.668C277.158 223.514 277.369 224.06 277.201 225.192C276.78 227.458 275.602 229.431 274.425 230.018C273.037 230.647 273.079 230.521 273.92 234.172C274.635 237.277 274.509 241.683 273.626 244.494C273.331 245.376 272.364 246.844 271.481 247.767C270.303 248.942 269.883 249.781 269.883 250.705C269.883 251.46 269.588 252.257 269.252 252.509C268.789 252.845 268.495 254.313 268.242 257.628C267.696 264.342 266.476 266.188 264.079 263.964L263.027 263.041L263.28 266.23C263.826 272.566 266.14 279.322 271.649 290.273C273.037 293.085 274.803 296.274 275.56 297.449C276.317 298.624 277.074 300.386 277.201 301.477C277.537 303.617 276.948 306.848 276.149 307.309C275.813 307.561 276.149 308.61 277.453 311.212C278.673 313.645 279.135 315.072 278.925 315.66C278.588 316.793 279.009 318.093 279.808 318.387C280.523 318.681 287.042 317.086 287.883 316.457C288.135 316.205 288.388 315.24 288.388 314.233C288.388 310.876 289.565 308.988 291.668 308.988C292.215 308.988 292.677 308.526 292.972 307.687L293.435 306.386L297.85 306.68C302.981 307.016 303.023 307.016 304.79 303.533C306.262 300.638 307.145 297.575 307.734 293.462C307.986 291.742 308.449 288.973 308.785 287.378C309.08 285.742 309.542 282.259 309.837 279.615C310.594 271.517 310.762 271.097 314.547 267.153C316.482 265.139 317.828 263.377 317.828 262.873C317.828 261.866 318.458 261.698 318.837 262.621C319.047 263.209 319.215 263.209 320.309 262.621C321.865 261.866 322.874 260.439 322.874 259.139C322.874 258.341 323.001 258.257 323.673 258.635C326.071 259.894 327.374 258.383 325.398 256.537C324.725 255.908 324.136 255.194 324.136 254.985C324.136 254.775 324.767 254.313 325.524 253.936C327.669 252.928 329.603 251.082 329.603 250.117C329.603 247.18 321.066 237.613 317.407 236.396C314.421 235.389 313.874 233.878 313.832 226.325C313.832 220.451 313.916 220.073 315.43 215.29C316.986 210.338 317.365 207.737 316.566 207.233C315.599 206.646 316.271 205.345 318.5 203.667C320.057 202.492 321.066 201.317 321.571 200.184C323.379 196.03 331.202 187.973 337.594 183.735C342.641 180.337 343.062 179.917 345.122 175.679C346.048 173.791 347.436 171.525 348.235 170.644C351.221 167.245 351.221 167.245 349.37 165.189C347.183 162.839 347.141 161.286 349.16 157.636C349.959 156.167 350.632 154.405 350.632 153.775C350.632 152.601 351.347 151.594 355.258 146.978C356.225 145.887 356.646 144.796 356.983 142.824C357.487 139.677 357.655 139.341 358.497 139.635C358.875 139.803 359.212 139.593 359.338 139.047C359.632 137.998 359.674 137.998 362.156 139.257C363.838 140.096 364.847 140.306 367.539 140.306C370.23 140.306 370.903 140.18 371.114 139.635C371.24 139.257 370.945 137.201 370.441 135.103C369.473 130.991 369.305 127.34 370.02 124.361C370.819 120.878 370.609 117.647 369.389 115.13C368.716 113.661 368.296 112.109 368.296 110.808C368.296 109.717 368.128 108.836 367.917 108.836C367.286 108.836 367.034 107.661 366.824 102.835C366.656 100.234 366.361 97.3804 366.109 96.4573C365.057 92.3451 361.398 88.2749 353.996 82.904C347.898 78.4981 345.669 76.6938 343.44 74.344C341.464 72.2879 340.833 71.9523 340.286 72.7915Z" fill="#3ABF0A"/>
<path d="M296.084 76.1064C295.79 76.526 294.696 77.2813 293.645 77.7428C292.257 78.3722 291.752 78.8338 291.752 79.4632C291.752 80.4283 292.467 80.3863 294.823 79.1695C295.453 78.8758 295.958 78.7079 295.958 78.7918C295.958 78.9177 295.411 79.9248 294.696 81.0157C292.972 83.7012 293.014 84.2467 295.033 83.8691C295.874 83.7012 296.589 83.5334 296.589 83.5334C296.589 83.4914 296.925 82.5683 297.304 81.4773C297.851 79.9667 297.893 79.1275 297.598 77.7009C297.052 75.435 296.715 75.0573 296.084 76.1064Z" fill="#3ABF0A"/>
<path d="M301.552 76.7357C301.089 77.0714 300.5 78.1624 300.248 79.1695C299.996 80.1765 299.365 81.3514 298.902 81.771C298.439 82.1906 298.061 83.0298 298.061 83.6592C298.061 85.1279 297.346 85.7573 295.58 85.7573C292.72 85.7992 288.808 88.2749 289.355 89.7435C289.902 91.0443 292.257 90.3729 294.57 88.191C295.285 87.4777 296.084 87.0581 296.294 87.1839C296.547 87.3098 297.598 86.7643 298.65 85.9671C299.743 85.1698 300.668 84.4985 300.795 84.4985C300.921 84.4985 300.753 85.1698 300.416 85.9671C299.407 88.3588 300.542 87.8133 304.58 83.953C308.07 80.5961 308.197 80.3863 308.07 78.7918C307.902 76.6099 306.641 76.3581 305.084 78.1624C303.739 79.7569 303.528 79.7989 303.528 78.2463C303.528 76.6099 302.687 75.9385 301.552 76.7357Z" fill="#3ABF0A"/>
<path d="M336.459 242.145C335.66 242.438 335.786 244.746 336.585 245.082C337.468 245.417 338.436 244.201 338.436 242.816C338.436 241.851 337.721 241.599 336.459 242.145Z" fill="#3ABF0A"/>
<path d="M359.296 244.41C358.076 245.376 357.908 245.837 358.791 246.173C359.548 246.467 361.567 244.956 361.567 244.117C361.567 243.278 360.6 243.403 359.296 244.41Z" fill="#3ABF0A"/>
<path d="M384.236 254.565C383.647 254.901 381.628 255.236 379.82 255.362C376.329 255.572 373.259 256.705 372.754 258.006C372.628 258.341 371.661 259.013 370.651 259.474C368.17 260.523 367.623 261.53 368.296 263.922C368.59 264.929 369.095 265.978 369.389 266.23C370.189 266.901 370.104 267.321 369.179 267.573C368.086 267.866 368.38 268.873 370.357 271.475C371.955 273.615 373.553 274.328 374.016 273.153C374.394 272.188 375.74 272.314 376.329 273.363C376.581 273.909 376.665 275 376.539 276.049C376.161 278.399 377.002 279.196 378.936 278.399C381.502 277.35 382.427 277.391 384.782 278.608C386.002 279.28 388.357 281.084 389.997 282.637C391.638 284.231 393.236 285.49 393.488 285.49C393.74 285.49 394.455 285.196 395.002 284.818C395.717 284.357 396.516 284.231 397.441 284.399C399.208 284.735 401.269 283.434 402.404 281.336C403.119 279.993 403.119 279.867 402.278 277.769C400.343 272.986 401.479 266.356 405.222 260.062L406.988 257.166L401.815 256.915C398.114 256.747 395.633 256.369 392.899 255.572C387.726 254.103 385.581 253.852 384.236 254.565Z" fill="#3ABF0A"/>
<path d="M358.665 263.419C357.908 264.3 358.791 265.768 360.095 265.768C361.399 265.768 362.282 264.3 361.525 263.419C361.273 263.083 360.6 262.831 360.095 262.831C359.59 262.831 358.917 263.083 358.665 263.419Z" fill="#3ABF0A"/>
<path d="M358.791 270.426C358.076 270.636 357.193 271.139 356.772 271.601C355.847 272.65 356.015 274.748 357.067 274.916C357.992 275.084 362.114 273.07 363.123 271.979C363.838 271.181 363.838 271.139 363.039 270.552C362.156 269.881 360.768 269.839 358.791 270.426Z" fill="#3ABF0A"/>
<path d="M125.291 272.566C124.829 273.783 124.24 275.839 123.903 277.098C123.315 279.699 122.642 280.706 121.296 281.042C120.118 281.336 118.899 283.35 118.899 284.986C118.899 287.168 119.572 288.301 121.001 288.553L122.305 288.847L121.296 290.189C120.076 291.784 118.1 295.686 117.637 297.323C117.385 298.078 117.511 298.707 117.931 299.295C118.478 300.092 118.436 300.176 117.679 300.176C115.408 300.176 114.777 301.729 116.543 302.904C118.1 303.953 119.445 303.323 122.305 300.26C123.735 298.749 124.829 297.658 124.702 297.91C122.389 302.736 121.843 304.036 121.422 305.547C121.086 306.932 121.086 307.729 121.464 308.862C121.927 310.331 121.969 310.331 122.431 309.449C122.894 308.652 123.02 308.61 123.735 309.198C124.198 309.533 125.375 309.827 126.385 309.827H128.151L127.899 312.093C127.731 313.562 127.773 314.443 128.109 314.611C128.95 315.156 128.572 317.254 127.1 320.359C126.301 322.08 125.628 323.842 125.628 324.303C125.628 325.269 128.782 328.583 129.076 327.996C129.203 327.828 129.413 327.115 129.581 326.485C129.791 325.562 130.044 325.352 130.59 325.562C132.988 326.569 133.576 326.695 134.586 326.485C135.595 326.192 135.974 325.898 137.32 324.303C137.866 323.632 142.03 323.38 142.03 324.01C142.03 324.22 141.483 324.891 140.768 325.562C137.404 328.793 137.656 334.164 141.189 334.668C141.778 334.752 142.45 335.255 142.745 335.843C143.544 337.395 143.418 341.549 142.577 342.976C141.946 344.109 141.946 344.235 142.577 345.158C144.722 348.095 144.679 347.969 144.133 348.683C142.997 350.025 142.03 350.235 141.063 349.354C139.086 347.508 134.502 347.885 132.525 349.983C131.137 351.494 131.221 352.501 132.819 352.837C133.745 353.047 134.039 353.298 133.829 353.76C133.703 354.137 133.871 354.767 134.249 355.145C134.838 355.774 134.838 356.068 134.165 358.04C133.156 361.145 130.801 363.705 127.815 364.795C126.511 365.299 125.207 365.886 124.913 366.138C124.366 366.6 124.198 368.95 124.618 370.544L124.871 371.425L126.805 370.418C127.983 369.789 129.118 369.453 129.623 369.621C130.086 369.747 131.642 370.041 133.114 370.25C135.259 370.544 136.058 370.88 137.404 372.097C138.96 373.481 139.128 373.523 140.432 373.104C142.114 372.558 143.838 371.425 145.773 369.663L147.161 368.362L146.53 369.621C145.479 371.677 143.376 374.363 142.24 375.118C141.651 375.495 139.717 375.957 137.95 376.167C135.427 376.461 134.291 376.796 132.988 377.719C130.254 379.608 122.558 389.175 123.23 389.804C123.399 389.972 124.871 389.51 126.553 388.797C130.717 386.993 131.432 386.909 133.576 387.664C136.352 388.629 136.815 388.503 137.992 386.489C138.581 385.482 139.549 384.265 140.095 383.72C141.441 382.461 144.049 382.125 145.689 383.006C146.404 383.342 147.75 383.762 148.717 383.93C150.273 384.181 150.441 384.097 150.441 383.342C150.441 382.167 151.198 382.041 161.586 381.58C170.923 381.16 172.731 380.866 175.549 379.23C177.189 378.307 179.04 376.419 179.04 375.705C179.04 375.537 177.947 375.244 176.643 375.118C171.974 374.572 170.629 373.272 173.11 371.845C173.783 371.467 174.414 370.754 174.498 370.208C174.582 369.579 175.507 368.614 177.105 367.523C182.741 363.579 183.624 357.201 178.83 355.103C176.138 353.928 172.563 353.928 171.259 355.145C170.502 355.858 169.998 355.984 168.946 355.774C167.18 355.396 166.97 354.599 168.273 352.921C171.049 349.312 169.577 346.039 164.278 343.983C161.628 342.976 161.502 342.724 162.722 341.423C164.236 339.787 165.582 337.479 165.582 336.43C165.582 334.961 164.11 333.535 160.998 331.898C159.357 331.059 157.759 329.926 157.381 329.423C156.75 328.583 154.899 322.961 153.806 318.681C153.217 316.457 150.273 313.142 147.287 311.464C145.521 310.456 144.722 310.247 142.114 310.247C139.002 310.247 135.848 309.365 136.31 308.61C136.478 308.4 137.277 307.981 138.161 307.729C142.493 306.302 145.731 303.491 142.198 304.12C141.399 304.288 140.432 304.54 140.095 304.666C138.749 305.169 139.633 304.078 141.693 302.694C144.511 300.764 146.698 297.952 148.969 293.295C151.24 288.637 152.166 285.196 151.24 284.651C149.095 283.308 139.801 283.937 135.553 285.742C130.927 287.672 130.717 287.588 132.609 284.315C133.198 283.308 133.787 281.755 133.871 280.916C133.955 279.615 134.544 278.902 137.908 275.755C141.651 272.23 141.778 272.062 141.063 271.349C140.432 270.678 139.338 270.594 133.24 270.468L126.132 270.342L125.291 272.566Z" fill="#3ABF0A"/>
<path d="M379.483 279.615C378.348 280.077 377.002 280.832 376.455 281.336C375.572 282.133 375.488 282.553 375.572 285.868C375.656 289.14 375.53 289.686 374.52 291.448C372.964 294.092 370.189 295.477 367.96 294.763C365.773 294.092 365.226 293.546 363.922 291.029C362.408 288.049 359.506 285.07 358.076 285.07C356.394 285.07 352.272 286.749 351.263 287.84C350.632 288.511 350.254 289.644 350.043 291.197C349.917 292.455 349.076 295.267 348.235 297.365C347.183 300.134 346.679 302.106 346.511 304.33L346.3 307.477L348.235 306.302C353.198 303.449 354.165 303.113 357.824 303.113C359.759 303.113 364.427 303.407 368.17 303.785C374.983 304.456 374.983 304.456 376.707 303.575C377.633 303.113 378.474 302.694 378.6 302.694C378.684 302.694 379.651 303.449 380.703 304.372C381.754 305.295 382.932 306.051 383.268 306.051C384.53 306.051 386.591 307.477 389.787 310.498C391.596 312.219 393.236 313.604 393.446 313.604C393.656 313.604 394.371 313.184 394.96 312.722C395.717 312.135 397.021 311.715 398.703 311.547C400.133 311.38 401.773 310.96 402.362 310.54C403.75 309.575 406.105 306.554 406.4 305.337C406.988 303.029 405.348 298.162 403.666 297.239C402.909 296.861 402.867 296.484 403.077 293.085L403.329 289.35L401.563 288.091C398.914 286.161 397.189 285.7 395.002 286.329C392.815 286.917 392.269 286.623 388.483 282.72C386.296 280.497 383.563 278.776 382.175 278.818C381.838 278.818 380.619 279.196 379.483 279.615Z" fill="#3ABF0A"/>
<path d="M328.132 279.951C325.819 281.378 323.421 284.819 322.706 287.714C322.412 288.973 323.085 292.204 323.674 292.204C324.431 292.204 326.155 290.483 326.828 289.099C327.207 288.301 327.501 286.791 327.501 285.742C327.501 283.811 327.711 283.434 329.982 281.588C330.992 280.79 331.034 279.49 330.024 279.322C329.688 279.238 328.805 279.532 328.132 279.951Z" fill="#3ABF0A"/>
<path d="M254.112 286.161C253.439 286.497 252.093 287.504 251.168 288.385C248.35 291.029 247.214 291.7 244.859 292.204C243.639 292.455 241.831 293.211 240.906 293.882C238.172 295.896 237.793 296.987 237.583 304.204C237.289 313.184 237.583 314.904 239.602 316.918C240.864 318.177 241.284 318.932 241.494 320.569C241.663 321.702 241.873 322.961 241.999 323.38C242.294 324.513 243.892 325.352 246.163 325.604C247.803 325.772 248.518 325.646 249.653 324.933C250.621 324.345 250.915 323.926 250.579 323.716C248.686 322.541 248.939 313.603 250.915 313.058C251.378 312.974 251.798 312.429 251.883 311.883C251.967 311.254 252.387 310.834 253.06 310.666C253.943 310.456 254.154 310.121 254.364 308.568C254.658 306.512 256.046 305.044 257.308 305.421C258.065 305.673 260.21 304.036 260.21 303.197C260.21 302.987 259.453 302.694 258.57 302.526C256.088 302.148 255.163 300.722 255.163 297.407C255.163 295.896 255.541 293.337 256.004 291.7C256.971 288.217 257.056 286.707 256.341 285.993C255.71 285.364 255.626 285.364 254.112 286.161Z" fill="#3ABF0A"/>
<path d="M377.044 304.876C375.992 305.715 375.74 305.715 371.366 305.253C368.885 305.002 363.754 304.792 360.011 304.75C352.441 304.75 351.726 304.918 349.412 307.519C348.361 308.736 348.109 309.365 348.109 311.002C348.109 313.478 349.118 317.548 350.211 319.268C351.305 321.031 353.912 322.415 356.142 322.415C358.539 322.457 361.441 323.758 362.072 325.143C362.45 325.94 362.45 326.695 362.072 328.29C361.819 329.423 361.693 330.598 361.777 330.891C361.903 331.185 362.829 331.982 363.88 332.612C364.889 333.283 366.151 334.458 366.656 335.255C367.96 337.353 370.189 338.36 373.595 338.36C376.161 338.36 376.455 338.276 377.591 337.06C378.221 336.346 379.483 335.591 380.282 335.381C383.394 334.5 386.38 330.849 387.011 327.157C387.264 325.646 387.516 325.269 388.82 324.639C389.787 324.178 390.46 323.506 390.586 322.835C390.754 322.163 391.259 321.66 392.058 321.366C393.74 320.863 393.825 320.737 393.11 320.317C392.731 320.065 392.521 319.31 392.563 318.177C392.605 317.17 392.31 315.785 391.848 314.904C390.039 311.338 385.371 307.309 383.1 307.309C382.469 307.309 381.418 306.68 380.408 305.631C379.483 304.708 378.6 303.953 378.432 303.995C378.306 303.995 377.675 304.372 377.044 304.876Z" fill="#3ABF0A"/>
<path d="M405.643 309.743C402.615 312.554 401.815 312.932 399.376 312.596C397.484 312.345 397.315 312.387 396.306 313.729C394.918 315.534 394.498 317.548 395.213 318.891C395.927 320.191 395.339 322.122 394.161 322.331C392.058 322.751 388.063 327.073 388.063 328.961C388.063 329.465 387.6 330.472 387.011 331.143C386.212 332.108 386.002 332.696 386.212 333.619C386.465 334.836 386.381 334.878 384.74 335.171C381.923 335.591 379.693 336.682 379.147 337.857C378.474 339.241 376.75 339.703 373.637 339.451C370.231 339.116 369.558 339.577 369.558 342.137C369.558 343.27 369.852 345.452 370.231 347.046C370.609 348.599 370.946 351.326 370.946 353.088C370.988 356.781 370.315 358.208 368.422 358.711C365.52 359.425 365.436 361.061 368.128 363.495C369.978 365.173 370.062 365.341 369.81 366.977C369.347 369.915 370.862 370.628 373.679 368.782C375.992 367.271 378.306 366.935 385.413 366.894C392.521 366.894 397.694 367.649 399.502 368.992C401.185 370.25 403.414 370.586 413.087 371.299C423.937 372.055 424.316 372.097 425.62 373.439C426.797 374.614 426.839 374.614 427.386 371.299C427.975 367.943 430.246 365.341 433.695 364.082C435.671 363.369 435.797 363.201 435.924 361.648C436.05 360.012 435.671 357.956 434.452 354.012C434.115 352.795 433.905 351.368 434.073 350.823C434.41 349.354 435.924 348.808 437.648 349.522C439.456 350.277 440.802 350.277 442.442 349.438C445.302 347.969 445.849 346.92 444.461 345.619C443.999 345.2 443.578 344.319 443.494 343.605C443.368 342.43 443.199 342.347 441.055 342.011C438.363 341.591 437.858 341.256 437.48 339.745C437.354 339.158 436.512 337.815 435.587 336.808C433.442 334.374 430.078 327.66 430.036 325.772C430.036 324.975 430.162 323.464 430.33 322.415C430.835 319.016 428.353 315.156 424.442 313.352C421.877 312.135 421.078 312.093 419.732 313.184C418.007 314.527 417.082 314.317 417.082 312.554C417.082 310.708 415.61 309.575 413.633 309.995C412.624 310.205 412.203 310.079 411.741 309.407C411.278 308.778 410.858 308.652 410.059 308.82C409.26 309.03 408.797 308.904 408.418 308.358C407.914 307.687 407.703 307.813 405.643 309.743Z" fill="#3ABF0A"/>
<path d="M270.303 309.575C267.822 310.498 263.785 312.638 263.154 313.394C262.691 313.981 262.691 314.401 263.322 316.121C263.743 317.254 263.953 318.345 263.827 318.597C263.28 319.436 271.145 325.059 271.86 324.345C271.986 324.22 271.775 323.632 271.397 323.087C270.472 321.618 270.556 321.282 271.986 320.527L273.247 319.856L272.322 318.639C271.103 316.96 271.607 315.198 273.458 314.862C274.635 314.653 274.719 314.485 274.677 312.89C274.635 310.918 273.584 308.988 272.49 309.03C272.112 309.03 271.103 309.282 270.303 309.575Z" fill="#3ABF0A"/>
<path d="M102.16 320.947C97.9961 323.045 97.8699 323.171 96.44 325.982C95.2203 328.374 95.5568 328.625 99.2578 327.954C102.286 327.367 103.926 325.982 105.608 322.625C107.501 318.723 107.08 318.471 102.16 320.947Z" fill="#3ABF0A"/>
<path d="M345.123 322.499C343.146 324.555 343.188 324.765 345.585 324.555C346.174 324.513 346.889 324.178 347.183 323.8C347.73 323.045 347.898 320.863 347.394 320.653C347.183 320.569 346.174 321.408 345.123 322.499Z" fill="#3ABF0A"/>
<path d="M293.014 321.366C293.014 322.163 294.528 323.674 295.327 323.674C296.168 323.674 296.126 323.171 295.075 321.828C294.15 320.611 293.014 320.359 293.014 321.366Z" fill="#3ABF0A"/>
<path d="M111.412 321.996C109.015 322.961 102.959 328.122 101.445 330.514C100.73 331.647 100.73 331.689 101.823 333.241C103.8 335.969 104.641 336.85 104.935 336.43C106.029 334.794 108.594 332.066 109.015 332.066C109.309 332.066 109.772 332.654 110.066 333.367C110.739 335.003 113.221 336.682 114.987 336.682C115.786 336.682 116.795 336.262 117.552 335.633C119.781 333.787 120.833 329.549 119.066 329.549C118.352 329.549 117.805 328.332 117.426 326.024C117.258 324.933 116.669 323.884 115.744 322.961C114.314 321.534 113.221 321.282 111.412 321.996Z" fill="#3ABF0A"/>
<path d="M241.873 326.863C242.336 327.534 243.177 328.793 243.765 329.716L244.817 331.353L243.471 332.486C241.915 333.787 241.831 333.996 242.966 334.29C243.429 334.416 243.808 334.836 243.808 335.213C243.808 336.64 249.065 342.64 252.219 344.822L253.27 345.578L251.798 345.284C250.116 344.948 247.34 343.605 246.962 342.976C246.583 342.347 243.85 341.046 242.167 340.668L240.779 340.374L240.906 342.766C241.032 344.612 240.906 345.284 240.401 345.619C239.434 346.249 236.784 345.619 236.532 344.696C236.195 343.438 230.854 342.85 229.34 343.941C228.667 344.445 228.667 344.738 229.088 347.172C230.013 352.207 228.667 357.075 226.186 357.662C224.63 358.04 224.672 358.711 226.354 360.012C227.7 361.019 227.868 361.355 227.658 362.446C227.237 364.46 225.387 366.474 222.947 367.565L220.676 368.572V370.964C220.676 372.306 220.382 374.656 219.961 376.167C219.288 378.894 219.288 378.978 220.214 381.622C222.695 388.419 222.527 387.706 221.601 389.175L220.76 390.517L221.98 393.077C222.653 394.504 223.2 396.308 223.2 397.063C223.2 399.455 224.672 400.546 231.569 403.231C234.934 404.574 237.751 405.665 237.793 405.707C237.878 405.749 237.331 406.84 236.616 408.141C235.102 410.952 232.957 416.701 232.452 419.26C232.032 421.61 232.368 421.736 236.826 420.855C241.579 419.932 244.649 419.89 245.153 420.729C245.406 421.191 245.868 421.358 246.667 421.191C247.466 421.023 248.812 421.484 251.336 422.743L254.869 424.505L258.906 423.792C261.135 423.373 264.92 422.617 267.359 422.03C272.701 420.813 274.467 420.771 276.612 421.862C278.589 422.869 278.673 422.659 277.453 419.135C276.99 417.75 276.738 416.281 276.864 415.694C277.033 415.106 278.841 413.218 281.07 411.288L285.023 407.889L279.85 402.56C274.383 396.853 271.944 393.413 271.902 391.189C271.86 390.098 272.154 389.552 273.332 388.545C275.308 386.867 284.056 382.293 287.547 381.202C290.995 380.069 293.224 378.601 294.108 376.88C294.991 375.202 294.738 372.264 293.224 366.054C291.837 360.264 290.659 357.41 288.851 355.438L287.379 353.802L288.136 351.872C289.944 347.088 289.818 343.689 287.715 339.535C286.579 337.269 285.444 336.514 283.804 336.808C283.089 336.976 282.248 336.766 281.575 336.346C276.696 333.031 276.444 332.947 275.392 333.199C273.5 333.619 267.654 336.808 265.972 338.318C264.542 339.619 264.247 339.703 262.481 339.451C258.696 338.948 257.813 337.437 260.42 335.885C262.986 334.374 262.397 333.954 257.098 333.619C255.079 333.451 254.027 333.199 253.649 332.738C253.397 332.36 252.597 332.066 251.925 332.066C250.158 332.066 249.906 331.605 251.168 330.64C253.228 329.003 251.378 327.576 245.868 326.611C244.396 326.36 242.714 326.024 242.125 325.898L241.116 325.646L241.873 326.863Z" fill="#3ABF0A"/>
<path d="M316.145 328.541C311.645 329.884 309.332 330.891 306.683 332.738C305.421 333.577 301.804 335.129 298.061 336.472C294.486 337.731 291.206 339.116 290.743 339.577C289.986 340.374 289.944 340.584 290.449 343.396C291.037 346.668 290.827 348.641 289.608 351.032C288.556 353.088 288.598 353.844 289.818 355.103C292.425 357.83 294.865 365.467 295.538 372.978C295.958 377.552 296.21 378.642 296.968 378.642C297.22 378.642 298.229 379.356 299.197 380.279C300.416 381.37 301.804 382.125 303.486 382.587C304.832 382.964 306.472 383.678 307.103 384.181C308.239 385.062 308.239 385.104 307.356 385.398C306.136 385.86 306.22 386.363 307.944 388.084C310.131 390.224 311.856 389.888 311.225 387.412C310.972 386.573 311.057 386.531 312.192 386.783C316.019 387.664 326.029 393.455 328.174 395.972C329.73 397.86 330.277 398.07 331.454 397.315C332.758 396.476 333.389 396.769 335.828 399.371C336.837 400.42 337.889 401.301 338.225 401.301C338.52 401.301 339.866 400.714 341.169 400.042C343.272 398.951 343.987 398.784 347.015 398.784C351.011 398.784 353.576 399.539 358.076 401.973C359.716 402.896 361.23 403.483 361.399 403.273C361.567 403.106 361.399 402.308 361.02 401.511C359.464 398.28 359.885 397.567 367.96 389.3C372.922 384.223 372.88 384.307 371.114 380.908C369.768 378.307 369.053 375.286 368.506 370.292L367.96 365.131L366.235 363.369C365.268 362.404 364.511 361.439 364.511 361.187C364.511 360.977 365.478 359.844 366.656 358.711C367.833 357.536 369.137 355.9 369.6 355.061C370.399 353.508 370.399 353.466 369.347 348.557C368.338 343.689 366.109 336.178 365.394 335.087C364.763 334.08 358.623 333.703 346.595 333.912C340.118 334.038 333.809 334.248 332.548 334.374C330.529 334.584 329.94 334.458 327.921 333.451C325.987 332.486 325.524 331.982 325.062 330.598C323.926 327.073 322.328 326.737 316.145 328.541Z" fill="#3ABF0A"/>
<path d="M279.977 330.388C279.977 330.64 280.271 331.479 280.565 332.276C281.238 333.829 282.164 333.912 282.921 332.486C283.257 331.856 283.089 331.521 282.248 330.849C281.028 329.884 279.977 329.716 279.977 330.388Z" fill="#3ABF0A"/>
<path d="M95.8933 333.157L96.1036 335.129L93.3699 334.836C90.8465 334.584 90.6362 334.626 90.4259 335.423C90.2156 336.262 90.1736 336.262 89.2062 335.213C88.0707 333.996 86.8931 333.871 85.2529 334.836C84.1174 335.549 82.7295 337.437 82.7295 338.318C82.7295 338.57 83.2762 338.78 83.9491 338.78C87.2296 338.78 87.3978 340.416 84.4118 343.396C83.2762 344.57 82.3089 345.703 82.3089 345.913C82.3089 346.836 84.5379 347.676 87.9445 348.011C89.9212 348.221 91.7717 348.515 92.0241 348.641C92.7811 349.144 92.2764 349.941 90.2997 351.452C88.8698 352.543 88.3651 353.172 88.281 354.221C88.1548 355.354 88.3231 355.648 89.2483 355.984C89.8371 356.236 90.9306 356.403 91.6876 356.403C93.3699 356.403 92.8231 356.865 89.6689 358.04C86.0099 359.383 85.2529 359.97 85.2529 361.481C85.2529 363.243 84.3276 364.879 82.2248 366.684C81.2154 367.523 80.7528 368.11 81.1313 367.985C81.5519 367.859 82.8136 367.649 83.9912 367.481C85.9679 367.229 86.094 367.271 86.094 368.152C86.094 368.698 86.4305 369.159 86.9352 369.285C87.524 369.453 87.7763 369.873 87.7763 370.712C87.7763 371.677 87.9445 371.929 88.7436 371.929C90.0474 371.929 94.6316 369.705 95.7251 368.53C96.3559 367.817 97.0288 367.607 98.0382 367.649C99.1737 367.733 99.8887 367.397 101.445 366.054C103.758 364.082 104.347 363.747 106.281 363.327C107.08 363.159 108.174 362.656 108.637 362.194C109.52 361.397 109.646 361.397 110.908 362.068C112.674 362.949 113.137 362.53 114.314 359.005C116.711 351.746 115.324 341.507 111.328 336.892C110.445 335.843 109.562 334.584 109.394 334.08C109.141 333.199 108.973 333.283 106.87 335.633L104.641 338.109L102.034 335.297C99.4681 332.486 97.7017 331.227 96.3559 331.227C95.7671 331.227 95.683 331.563 95.8933 333.157Z" fill="#3ABF0A"/>
<path d="M217.312 347.592C214.999 348.137 214.031 349.816 214.284 352.753C214.326 353.172 214.914 353.97 215.587 354.557C216.975 355.732 218.279 358.627 217.943 359.802C217.48 361.229 215.251 362.698 213.569 362.698C211.171 362.698 210.414 361.607 210.246 357.956C210.162 356.278 210.036 354.683 209.952 354.431C209.615 353.382 208.564 354.389 208.101 356.11C207.891 357.117 206.545 360.18 205.157 362.991L202.634 368.11L206.082 368.824L209.489 369.579L206.629 370.922C205.031 371.677 203.685 372.348 203.601 372.432C203.559 372.516 204.779 372.516 206.419 372.432C209.195 372.265 209.447 372.306 212.181 373.985C213.737 374.908 215.629 375.915 216.428 376.167C217.732 376.628 217.943 376.586 218.7 375.663C219.372 374.824 219.457 374.279 219.246 372.348C218.7 367.817 218.615 368.152 220.76 367.313C223.452 366.306 225.008 365.131 225.933 363.369L226.732 361.858L225.387 360.474C223.746 358.795 223.746 358.501 225.134 357.201C226.774 355.732 228.667 352.627 228.667 351.452C228.667 350.109 226.648 348.179 224.63 347.634C222.737 347.13 219.457 347.088 217.312 347.592Z" fill="#3ABF0A"/>
<path d="M450.307 361.732C449.97 361.858 449.34 362.236 448.961 362.614C448.456 363.033 447.741 363.159 446.606 362.949C445.302 362.781 444.713 362.907 443.914 363.537C442.652 364.502 439.919 365.173 437.227 365.215C434.283 365.215 431.171 366.306 429.993 367.733C429.194 368.656 428.858 369.663 428.648 371.803C428.143 376.419 427.133 377.342 425.535 374.614C424.652 373.104 424.568 373.104 422.633 373.355C421.161 373.565 420.026 373.397 418.049 372.684C415.484 371.803 415.4 371.803 414.012 372.558C412.834 373.188 412.371 373.23 411.11 372.81C410.311 372.558 407.619 372.139 405.138 371.929C401.353 371.593 400.259 371.341 398.451 370.292C397.231 369.621 395.296 368.866 394.119 368.614C390.46 367.859 383.436 367.607 379.651 368.11C376.665 368.488 375.74 368.824 373.931 370.041C372.754 370.838 371.576 371.509 371.324 371.509C370.483 371.509 369.894 373.23 370.146 374.95C370.315 375.873 371.03 377.761 371.744 379.188C372.796 381.286 373.048 382.251 373.006 384.223C372.922 387.161 372.88 387.244 370.987 388.126C369.431 388.881 364.805 393.622 362.744 396.602L361.483 398.448L362.156 401.091C363.165 405.162 363.123 405.497 361.398 405.204C360.095 404.994 359.842 405.12 359.085 406.337C357.151 409.526 357.782 413.218 360.557 414.813C362.744 416.071 368.17 417.246 371.871 417.246C375.572 417.246 377.759 417.792 378.137 418.757C378.852 420.561 389.661 417.288 392.352 414.435C394.161 412.463 395.549 412.043 399.839 412.043C406.021 412.085 412.54 414.183 415.736 417.162C416.998 418.337 417.082 418.631 417.082 421.149C417.082 423.834 417.082 423.834 418.47 424.212C419.689 424.589 419.858 424.841 420.278 426.897C420.783 429.457 421.33 430.674 422.297 431.513C422.717 431.807 422.97 432.688 422.97 433.653C422.97 435.08 423.138 435.373 424.147 435.751L425.283 436.213L424.021 436.8C423.348 437.094 421.96 437.345 421.035 437.387C419.605 437.387 419.227 437.22 419.059 436.506C418.848 435.793 418.68 435.709 418.007 436.087C416.409 436.926 410.353 447.038 410.353 448.801C410.353 449.556 410.521 449.64 411.741 449.388C414.138 448.969 420.573 445.486 423.432 443.094C426.587 440.493 427.764 439.024 428.521 436.716C429.026 435.247 429.32 434.996 431.381 434.282C432.769 433.821 434.956 433.485 436.849 433.443C439.498 433.401 440.213 433.569 441.391 434.366C442.989 435.541 443.073 436.213 441.685 436.968C441.096 437.262 440.634 437.681 440.634 437.849C440.634 438.394 443.157 438.982 447.573 439.485C456.363 440.534 456.826 442.381 449.34 446.073L446.059 447.71L449.213 449.724C450.98 450.815 452.62 452.074 452.83 452.493C453.083 452.913 453.251 454.465 453.251 455.934C453.251 460.256 453.924 460.466 459.391 457.738C461.452 456.731 463.471 455.85 463.849 455.85C465.153 455.85 466.541 454.969 467.298 453.668L468.055 452.409L471.335 452.703C474.868 452.997 476.929 452.409 477.307 450.941C477.812 448.969 476.845 448.717 472.597 449.85C471.083 450.227 469.359 450.395 468.812 450.269C468.223 450.143 466.583 448.885 465.195 447.458C463.639 445.989 462.251 444.94 461.704 444.94C459.77 444.94 460.905 442.045 464.059 438.982C465.784 437.262 467.003 436.632 472.05 434.66C475.331 433.401 478.443 432.352 478.99 432.352C479.536 432.352 480.63 431.891 481.429 431.345C482.27 430.8 484.499 429.835 486.476 429.205C491.396 427.569 492.196 427.149 492.49 425.764C492.784 424.38 496.569 420.016 498.294 419.135C499.009 418.757 500.481 418.505 502.037 418.547C505.233 418.631 505.696 418.211 506.327 414.855C506.705 412.715 506.705 412.043 506.116 410.575C504.897 407.595 505.401 405.329 507.967 402.099L509.313 400.42L508.303 399.371C506.158 397.063 494.383 392.532 492.069 393.119C491.354 393.287 490.85 392.951 489.756 391.608C485.466 386.279 485.088 386.153 481.723 388.293C479.242 389.846 478.821 389.846 476.929 388.377C475.667 387.454 474.994 387.244 473.27 387.328C472.092 387.328 470.789 387.203 470.368 386.951C469.401 386.447 468.307 383.972 468.644 383.09C469.064 382.041 468.517 380.615 467.088 378.81C465.405 376.712 464.943 376.461 462.251 376.335C460.989 376.293 459.728 375.999 459.391 375.747C458.382 374.908 457.793 371.215 458.34 369.621C458.929 368.068 458.466 366.474 456.952 364.544C455.606 362.865 451.779 361.229 450.307 361.732Z" fill="#3ABF0A"/>
<path d="M204.064 375.118C200.237 376.67 200.152 376.67 196.031 375.873C193.339 375.37 190.143 378.013 190.479 380.447C190.605 381.286 190.816 381.37 192.792 381.244C194.937 381.16 195.021 381.16 195.821 382.713C196.83 384.685 197.587 385.398 200.363 386.783C202.886 388.042 204.064 389.51 203.769 391.021C203.643 391.608 203.685 392.196 203.895 392.322C204.358 392.573 205.788 391.86 207.344 390.559C208.774 389.343 209.321 389.301 209.321 390.308C209.321 391.818 211.508 395.469 213.022 396.476C215.882 398.406 217.564 397.567 217.185 394.504C216.849 392.238 217.69 389.72 218.7 389.804C219.835 389.93 220.802 388.168 220.466 386.657C220.129 385.104 218.447 383.258 217.396 383.258C216.26 383.258 215.756 382.545 215.419 380.321C215.041 378.055 214.368 377.174 211.802 375.915C210.751 375.37 209.657 374.614 209.363 374.279C208.606 373.397 208.438 373.397 204.064 375.118Z" fill="#3ABF0A"/>
<path d="M184.76 380.321C182.741 381.328 182.026 382.293 181.984 383.93C181.942 388.587 179.208 392.238 173.362 395.343C169.83 397.231 169.577 397.483 169.451 398.826C169.241 401.05 168.778 401.301 165.203 401.301C160.914 401.301 157.843 400.462 156.708 399.035C156.245 398.406 155.11 397.525 154.184 397.105C152.292 396.14 152.166 396.35 153.175 399.161C153.512 400.168 154.1 402.602 154.437 404.574C154.815 406.588 155.236 408.56 155.32 408.938C155.53 409.568 155.278 409.693 153.722 409.693C151.829 409.693 147.539 410.281 145.941 410.784C145.226 410.994 144.553 410.575 142.745 408.896C140.306 406.588 139.885 406.42 139.044 407.428C138.077 408.602 136.016 409.4 132.82 409.735C130.969 409.945 129.413 410.365 129.034 410.742C128.446 411.33 128.53 411.498 130.002 412.715C131.6 414.015 131.6 414.057 131.39 416.491L131.179 418.925H132.567C133.324 418.925 135.553 419.596 137.488 420.435C139.38 421.275 142.324 422.282 143.923 422.659C146.656 423.331 146.867 423.457 146.867 424.547C146.909 425.345 147.455 426.184 148.675 427.317C150.063 428.618 150.441 429.247 150.441 430.38C150.441 432.562 152.46 435.205 155.993 437.639L159.063 439.737L158.937 442.674C158.516 452.661 157.002 463.277 155.11 469.278C154.016 472.76 154.016 472.928 155.278 473.222C156.035 473.432 156.329 473.767 156.329 474.523C156.329 476.788 161.671 478.509 168.652 478.509C176.306 478.509 180.512 479.432 183.204 481.698C184.844 483.041 187.409 483.418 189.765 482.621C191.531 482.034 192.204 481.11 192.919 478.215C193.466 476.033 195.4 474.061 198.807 472.257C202.382 470.327 204.274 470.452 211.844 472.886C215.209 473.977 218.447 474.942 219.036 475.026C220.466 475.278 221.938 474.523 225.555 471.501C227.195 470.159 229.13 468.732 229.845 468.354C231.107 467.683 232.873 465.375 232.873 464.452C232.873 464.158 232.284 464.074 231.443 464.158C230.35 464.284 229.719 464.032 228.499 462.941C226.438 461.179 225.723 459.669 225.723 457.235C225.681 456.144 225.429 454.759 225.092 454.172C224.167 452.577 224.335 452.2 226.186 450.941C228.078 449.682 228.078 449.682 226.522 445.654C225.765 443.64 225.681 443.01 226.06 442.381C226.775 441.248 226.691 440.325 225.639 438.772C224.419 437.01 223.578 437.052 220.676 438.856C219.415 439.611 218.321 440.199 218.237 440.157C218.195 440.073 218.532 439.36 218.994 438.52C219.583 437.555 219.793 436.674 219.625 436.003C219.415 435.164 219.625 434.744 220.803 433.863C221.602 433.233 222.401 432.268 222.527 431.723C222.695 431.135 223.662 429.709 224.714 428.534C225.723 427.359 226.691 425.89 226.859 425.219C226.985 424.38 227.448 423.876 228.247 423.582C229.677 423.121 230.307 421.988 231.737 417.372C232.368 415.526 233.336 412.757 233.924 411.288C235.438 407.763 235.775 406.504 235.438 406.085C235.312 405.875 234.051 405.288 232.663 404.826C231.275 404.322 227.868 402.98 225.05 401.805C222.275 400.672 218.868 399.455 217.48 399.161C215.756 398.784 213.989 397.902 211.634 396.308C207.891 393.79 206.083 392.909 204.527 392.909C203.265 392.909 202.886 392.406 202.592 390.182C202.382 388.629 202.298 388.503 200.615 388.21C198.26 387.832 196.494 386.447 195.4 384.223L194.517 382.419L192.456 382.671L190.353 382.964L189.68 381.202C189.092 379.692 188.839 379.482 187.704 379.482C186.989 379.524 185.685 379.859 184.76 380.321Z" fill="#3ABF0A"/>
<path d="M290.491 381.538C284.14 383.258 275.813 387.328 273.878 389.636C272.574 391.147 272.701 392.238 274.425 394.713C277.243 398.867 285.654 407.26 288.388 408.644C290.28 409.609 290.785 409.442 293.477 406.882L296 404.49L297.977 405.036C299.07 405.371 300.921 405.875 302.056 406.211C305.211 407.134 312.36 407.469 312.949 406.714C313.243 406.336 314.169 406.127 315.346 406.127C317.786 406.127 320.561 404.406 321.445 402.308C321.907 401.259 322.79 400.378 324.557 399.287C327.753 397.315 327.879 396.392 325.146 394.462C322.58 392.615 314.926 388.713 313.916 388.713C313.454 388.713 312.571 389.175 311.856 389.762C311.183 390.349 310.426 390.811 310.215 390.811C309.458 390.811 305.631 386.909 305.379 385.902C305.042 384.685 303.697 383.971 300.416 383.216C298.566 382.755 297.893 382.419 297.598 381.664C297.304 380.866 296.925 380.74 295.243 380.782C294.108 380.782 292.005 381.118 290.491 381.538Z" fill="#3ABF0A"/>
<path d="M218.405 391.944C217.648 393.874 218.447 397.777 219.667 398.238C220.592 398.574 221.938 396.937 221.938 395.469C221.938 393.161 219.036 390.266 218.405 391.944Z" fill="#3ABF0A"/>
<path d="M330.907 399.077C329.73 400 329.393 400.084 328.678 399.665C328.174 399.371 327.332 399.245 326.575 399.413C325.061 399.749 322.454 401.973 322.454 402.938C322.454 404.448 317.449 407.973 315.262 408.015C314.085 408.015 312.402 409.693 312.15 411.12C311.645 413.806 314.211 417.708 317.617 419.344C319.342 420.184 319.678 420.184 322.874 419.722C326.239 419.26 327.501 418.631 327.501 417.414C327.501 416.659 328.804 416.113 331.37 415.778C332.421 415.652 333.557 415.232 333.851 414.897C334.188 414.477 334.987 414.267 336.08 414.309C338.772 414.435 338.814 414.393 340.538 412.547C341.884 411.078 342.473 410.742 344.197 410.533C347.015 410.239 350.968 410.742 351.852 411.54C353.029 412.589 354.249 412.337 355.553 410.742C356.646 409.4 359.338 403.525 359.001 403.273C358.917 403.189 357.529 402.56 355.889 401.847C349.412 399.035 345.333 398.951 340.749 401.511C337.342 403.399 336.375 403.315 335.618 401.133C334.945 399.161 333.935 397.944 333.01 397.944C332.632 397.944 331.706 398.448 330.907 399.077Z" fill="#3ABF0A"/>
<path d="M293.435 408.225C290.785 410.407 289.86 410.742 288.22 410.155C285.906 409.274 284.939 409.609 281.322 412.421C277.537 415.4 277.369 415.778 278.504 418.925C279.261 421.107 279.303 422.995 278.631 423.247C278.336 423.331 277.411 423.163 276.612 422.827C274.593 421.988 272.238 422.072 268.116 423.079C266.182 423.54 262.943 424.254 260.84 424.589C258.78 424.967 256.509 425.387 255.878 425.513C255.163 425.638 254.027 425.429 253.06 425.009C250.747 423.96 250.116 424.338 250.116 426.687C250.116 428.198 250.368 428.869 251.209 429.709C252.303 430.8 252.513 430.8 255.667 430.044C256.509 429.834 257.097 430.002 257.939 430.632C259.326 431.723 260.21 431.723 261.976 430.674C263.364 429.876 268.621 428.492 270.682 428.408C271.439 428.366 272.07 428.827 272.995 430.128C274.551 432.226 276.528 433.233 281.028 434.24C286.033 435.331 290.659 435.247 296.21 433.947C304.79 431.932 307.271 430.128 307.355 425.848C307.44 422.407 307.734 421.736 310.005 420.687L312.066 419.68L311.813 417.12C311.477 413.806 310.426 410.281 309.458 409.316C308.996 408.854 307.776 408.477 306.22 408.309C304.874 408.183 302.603 407.679 301.257 407.176C297.388 405.833 296.126 406.001 293.435 408.225Z" fill="#3ABF0A"/>
<path d="M344.239 411.749C343.314 411.959 341.926 412.757 340.791 413.806C339.066 415.4 338.646 415.568 336.753 415.568C335.618 415.568 334.65 415.736 334.65 415.946C334.65 416.449 332.295 417.246 330.865 417.246C329.772 417.246 328.342 418.337 328.342 419.218C328.342 420.142 325.566 420.813 321.781 420.813C318.248 420.813 317.828 420.729 316.187 419.596C315.22 418.925 314.379 418.463 314.337 418.547C314.253 418.631 313.874 419.26 313.454 419.89C313.033 420.561 312.066 421.358 311.267 421.694C310.131 422.156 309.837 422.491 310.047 423.079C310.173 423.498 310.005 424.086 309.627 424.38C309.29 424.673 308.701 425.974 308.323 427.233C307.397 430.422 307.734 433.527 309.29 435.709C310.846 437.975 315.683 441.164 319.93 442.8C323.085 444.017 323.421 444.101 324.473 443.514C328.005 441.542 329.519 441.164 341.085 439.066C348.193 437.807 348.109 437.849 349.328 433.401C350.338 429.583 358.497 418.925 360.347 418.925C361.861 418.925 361.693 417.918 359.885 416.323C358.202 414.813 354.922 413.47 352.987 413.47C352.525 413.47 351.768 413.092 351.263 412.631C350.254 411.707 346.679 411.246 344.239 411.749Z" fill="#3ABF0A"/>
<path d="M398.661 413.134C397.273 413.428 396.895 413.68 397.063 414.183C397.568 415.526 404.213 426.31 405.517 427.946C407.241 430.128 407.325 430.506 407.872 438.436C408.082 442.129 408.461 445.318 408.671 445.528C409.386 446.241 411.11 444.101 413.297 439.821C414.475 437.555 415.778 435.541 416.241 435.289C416.662 435.08 417.839 434.996 418.849 435.122C420.279 435.331 420.867 435.205 421.414 434.66C422.339 433.737 422.339 432.478 421.372 432.184C420.951 432.058 420.11 430.884 419.48 429.583C418.807 428.282 417.545 426.31 416.62 425.219C414.727 422.995 414.643 422.407 415.863 420.855C416.956 419.47 416.662 418.547 414.979 418.211C414.264 418.086 413.507 417.624 413.255 417.204C412.961 416.617 412.372 416.407 411.236 416.407C410.185 416.407 409.512 416.197 409.386 415.778C409.049 414.938 406.358 413.68 403.708 413.092C401.185 412.589 401.143 412.589 398.661 413.134Z" fill="#3ABF0A"/>
<path d="M392.479 415.82C390.881 417.078 385.75 419.302 382.427 420.184C379.231 420.981 379.021 420.981 378.053 420.267C375.782 418.673 375.236 418.505 373.553 418.715C372.628 418.841 370.273 418.631 368.38 418.295C366.446 417.918 364.469 417.75 363.964 417.918C363.46 418.044 362.072 418.925 360.852 419.848C359.632 420.771 358.497 421.4 358.245 421.275C357.698 420.939 353.492 427.527 351.053 432.562C348.698 437.345 348.109 438.059 344.45 439.863C342.978 440.576 341.8 441.248 341.8 441.332C341.8 441.374 342.557 442.213 343.483 443.178C344.408 444.101 345.165 445.192 345.165 445.57C345.165 446.954 346.469 448.717 348.109 449.556C349.917 450.479 350.843 451.78 350.464 452.787C349.749 454.591 353.492 457.067 356.983 457.109C360.221 457.109 362.745 458.368 360.936 459.039C359.927 459.459 360.179 460.172 361.988 461.934C363.123 463.025 363.67 463.949 363.67 464.704C363.67 465.879 364.469 466.34 366.614 466.34C367.203 466.34 368.843 466.76 370.189 467.221C372.418 468.019 373.301 468.103 377.969 467.893C384.152 467.599 385.413 467.305 390.166 464.956C393.404 463.361 394.035 463.193 396.685 463.235C400.554 463.277 404.339 464.41 405.685 465.963C406.526 466.886 407.115 467.179 408.334 467.179C410.059 467.179 410.774 466.382 410.774 464.41C410.774 461.557 413.549 453.332 414.517 453.332C414.727 453.332 415.232 453.752 415.61 454.256C416.199 455.179 416.325 455.179 417.377 454.591C418.007 454.214 418.975 453.291 419.479 452.535C420.363 451.276 420.405 450.983 419.858 450.227C419.059 448.969 416.62 448.843 414.811 449.934C412.834 451.151 409.933 451.109 408.797 449.85C407.577 448.507 407.493 448.087 406.778 440.828C406.4 437.22 405.895 433.485 405.685 432.562C404.76 429.205 398.787 418.673 396.432 416.281C395.128 415.022 393.741 414.855 392.479 415.82Z" fill="#3ABF0A"/>
<path d="M240.233 422.743C235.438 423.331 232.368 424.044 230.349 425.009C227.952 426.226 224.335 430.002 223.662 432.058C223.326 433.065 222.695 433.863 221.896 434.24C219.751 435.373 220.55 436.296 223.62 436.338C225.26 436.338 225.597 436.506 226.354 437.723C229.003 442.003 228.751 441.793 231.064 441.793C233.714 441.751 235.228 440.996 235.775 439.443C236.195 438.269 238.424 436.548 239.518 436.548C239.812 436.548 240.317 437.178 240.653 437.933C240.99 438.73 241.536 439.569 241.873 439.863C242.84 440.66 244.354 439.569 245.952 436.968C246.667 435.793 247.466 434.87 247.719 434.87C248.013 434.87 248.686 435.247 249.275 435.709C249.864 436.171 250.537 436.548 250.747 436.548C251.378 436.548 254.153 434.198 255.163 432.772L256.046 431.513L254.153 431.765C252.387 432.016 252.135 431.932 250.789 430.59C249.401 429.205 248.434 426.855 248.434 424.883C248.434 424.338 248.223 423.54 248.013 423.079C247.508 422.198 245.616 422.114 240.233 422.743Z" fill="#3ABF0A"/>
<path d="M264.92 430.632C264.163 430.842 262.859 431.471 261.976 432.058C260.798 432.856 260.041 433.065 258.906 432.898C257.476 432.688 257.35 432.772 257.055 433.947C256.929 434.66 256.34 435.541 255.752 435.877C255.205 436.254 254.742 436.926 254.742 437.387C254.742 438.478 253.06 439.276 251.588 438.898C250.957 438.73 249.99 438.143 249.359 437.513L248.265 436.422L247.13 437.723C246.036 438.94 245.069 441.374 245.069 442.926C245.069 444.269 244.018 443.723 241.2 440.954C238.088 437.849 237.078 437.513 237.078 439.611C237.078 441.667 235.943 442.423 231.737 443.346C229.718 443.765 227.868 444.311 227.658 444.521C227.363 444.814 227.531 445.57 228.162 446.829C228.667 447.878 229.087 449.01 229.087 449.304C229.087 449.64 228.33 450.521 227.405 451.234C226.48 451.948 225.723 452.745 225.723 452.955C225.723 453.165 226.27 454.214 226.985 455.347L228.204 457.319L227.321 458.032L226.396 458.703L227.489 460.34C228.541 461.934 230.812 463.403 232.158 463.403C233.041 463.403 233.756 464.452 233.461 465.249C232.915 466.676 234.807 465.837 238.718 462.858C240.905 461.221 242.966 459.668 243.261 459.501C244.06 458.997 251.294 462.522 253.354 464.41C255.121 466.005 256.13 468.354 256.803 472.508C257.181 475.068 257.939 476.117 263.995 482.663C268.789 487.866 273.836 492.398 276.191 493.615C276.99 494.034 278.799 494.58 280.187 494.873C284.098 495.671 285.57 496.426 287.673 498.65C288.766 499.783 290.154 500.832 290.785 501C292.972 501.461 293.645 502.049 294.907 504.44C295.916 506.371 296.547 507 298.271 507.881C299.785 508.637 300.626 509.434 301.383 510.777C302.603 512.959 304.285 517.826 304.832 520.637C305.168 522.526 305.126 522.861 304.117 524.288C302.897 526.092 301.888 528.61 301.846 530.036C301.846 531.169 303.402 531.967 304.285 531.253C305.421 530.33 307.397 527.057 308.07 525.001C308.659 523.155 309.08 522.651 310.678 521.728C312.318 520.763 312.57 520.427 312.697 519.043C312.823 517.574 312.655 517.238 310.257 515.015L307.692 512.539L308.365 511.028C308.701 510.189 309.963 508.259 311.141 506.79C313.664 503.643 314.379 503.475 317.659 505.322C319.678 506.497 322.117 508.846 322.58 510.063C322.706 510.483 323.001 510.399 323.716 509.728C324.599 508.888 324.599 508.762 323.968 507.546C323.001 505.657 318.963 502.552 312.613 498.818C306.01 494.915 303.654 493.321 303.318 492.44C303.192 492.104 303.486 491.391 304.033 490.803C305.505 489.251 304.58 488.789 299.827 488.789C295.874 488.789 295.622 488.747 293.266 487.321C290.07 485.432 287.505 482.159 285.864 477.879C283.004 470.494 281.743 468.858 277.327 466.718C275.434 465.795 275.35 465.795 274.761 466.55C273.71 467.977 272.953 467.054 272.658 463.948C271.901 456.396 271.901 455.556 272.364 455.263C272.953 454.885 272.953 452.829 272.322 450.773C271.565 448.171 272.154 447.416 276.612 445.57C278.757 444.689 280.775 443.681 281.07 443.346C281.827 442.591 281.827 438.646 281.07 436.8C280.565 435.583 280.145 435.289 277.621 434.492C274.887 433.695 274.13 433.275 271.481 431.387C270.219 430.506 266.897 430.128 264.92 430.632Z" fill="#3ABF0A"/>
<path d="M300.627 433.821C297.767 434.744 292.888 435.709 287.589 436.338C283.551 436.884 282.837 438.772 285.066 443.178C287.042 447.122 289.103 448.381 290.701 446.619C291.668 445.57 292.636 445.57 294.739 446.661C296.884 447.71 297.388 447.542 297.388 445.738C297.43 444.521 297.641 444.227 299.028 443.598C299.87 443.178 300.585 442.591 300.627 442.297C300.627 442.045 300.669 441.164 300.711 440.367C300.795 439.108 301.131 438.646 303.234 437.052C308.365 433.149 307.23 431.723 300.627 433.821Z" fill="#3ABF0A"/>
<path d="M304.075 437.975C302.435 438.73 301.678 440.031 302.014 441.625C302.308 443.052 301.972 444.101 301.215 444.101C300.921 444.101 300.164 444.94 299.533 446.031C297.85 448.885 295.033 449.472 293.35 447.332C292.762 446.577 292.551 446.535 292.005 446.996C290.953 447.878 291.205 449.346 292.804 451.276C294.654 453.458 294.949 453.962 295.285 455.892C295.453 456.815 296.252 458.2 297.262 459.375C298.776 461.095 298.944 461.473 298.734 462.774C298.481 464.074 298.607 464.41 300.29 466.047C303.023 468.816 305.505 470.075 308.827 470.494C310.425 470.704 311.771 470.83 311.771 470.788C311.813 470.788 310.131 468.27 307.986 465.249C303.949 459.501 301.425 454.927 301.425 453.374C301.425 452.871 301.636 452.074 301.846 451.612C302.266 450.899 302.771 450.815 306.809 450.815C314.295 450.815 324.725 451.948 327.206 452.997C328.384 453.5 329.393 453.752 329.477 453.542C330.15 451.444 331.16 450.185 332.127 450.185C333.599 450.185 333.767 451.528 332.337 452.074C331.412 452.409 331.328 452.619 331.706 453.29C331.917 453.752 332.337 454.256 332.547 454.381C333.178 454.759 333.01 457.193 332.337 458.116C331.244 459.543 331.58 460.927 333.515 462.899L335.281 464.704L333.809 465.921L332.337 467.096L333.515 468.187C334.482 469.068 334.608 469.403 334.23 470.117C333.977 470.62 333.347 470.956 332.758 470.956C332.085 470.956 331.37 471.459 330.613 472.425C329.856 473.432 329.183 473.893 328.636 473.809C327.963 473.725 327.669 474.019 327.416 475.11C327.164 475.991 326.702 476.579 326.155 476.746C325.44 476.914 325.356 477.166 325.566 478.635C325.902 480.565 328.636 484.929 329.645 485.139C330.066 485.223 331.16 484.425 332.169 483.292C333.178 482.243 334.44 481.194 334.945 480.985C337.09 480.187 342.052 482.957 342.515 485.264C342.641 485.978 343.02 486.649 343.356 486.775C343.693 486.901 345.207 486.439 346.763 485.726C348.823 484.761 350.674 484.299 353.576 483.964C358.328 483.46 359.085 482.873 358.749 480.187C358.539 478.635 358.665 478.383 360.473 476.621C362.534 474.565 362.786 474.019 361.777 473.641C360.768 473.264 358.749 469.823 358.202 467.641C357.782 465.921 357.824 465.375 358.37 464.284C359.127 462.858 359.254 459.333 358.623 458.368C358.244 457.822 358.034 457.906 357.235 458.871C356.688 459.543 356.141 460.046 356.015 460.046C355.847 460.046 354.501 459.207 353.029 458.158C351.179 456.899 350.169 455.85 349.833 454.927C348.781 452.158 348.024 450.983 346.3 449.724C345.038 448.759 344.323 447.836 343.819 446.367C343.398 445.15 342.389 443.64 341.379 442.632C339.865 441.164 339.445 440.954 337.678 440.996C335.155 440.996 331.202 441.877 330.192 442.632C329.435 443.178 329.435 443.262 330.15 446.031C330.781 448.465 330.781 448.969 330.318 449.472C329.309 450.479 328.342 449.011 328.342 446.451C328.342 444.311 327.837 443.262 326.828 443.262C326.575 443.262 326.239 443.64 326.113 444.101C325.608 446.031 320.477 444.605 313.201 440.534C307.734 437.513 306.136 437.052 304.075 437.975Z" fill="#3ABF0A"/>
<path d="M302.561 451.528C301.972 452.116 302.309 453.878 303.486 456.228C305.589 460.34 310.468 467.263 312.949 469.613C314.253 470.872 315.304 472.215 315.304 472.592C315.304 473.977 317.744 476.746 320.814 478.928C322.496 480.061 324.094 481.026 324.347 481.026C324.725 481.026 324.809 480.481 324.683 479.18C324.347 476.159 327.038 472.173 328.931 472.886C329.478 473.096 329.562 472.844 329.478 471.501C329.393 469.991 329.478 469.907 330.655 469.781C333.01 469.571 333.137 469.403 332.127 467.851C331.538 466.844 331.286 465.837 331.37 464.662C331.412 463.403 331.244 462.774 330.781 462.522C329.351 461.725 329.562 457.948 331.076 457.948C331.749 457.948 332.379 456.186 331.917 455.472C331.749 455.179 330.992 455.095 330.066 455.263C328.889 455.43 328.006 455.263 326.744 454.633C324.515 453.5 322.37 453.081 315.178 452.283C307.482 451.444 307.776 451.444 307.272 452.913C307.019 453.584 306.725 454.172 306.641 454.172C306.514 454.172 305.884 453.5 305.169 452.703C303.907 451.276 303.15 450.941 302.561 451.528Z" fill="#3ABF0A"/>
<path d="M360.137 464.284C359.38 464.872 359.043 465.543 359.043 466.466C359.043 468.228 361.315 472.131 362.871 472.97C364.847 474.103 364.385 476.83 362.156 476.83C360.852 476.83 360.431 477.544 360.137 480.607C359.8 484.006 360.305 485.684 362.198 487.782C363.67 489.419 363.838 489.88 363.67 492.02C363.628 492.901 363.88 493.321 364.679 493.657C365.562 494.076 366.445 493.992 369.347 493.279C373.974 492.104 375.572 492.104 379.02 493.405C382.637 494.79 386.338 494.873 389.03 493.699C390.502 493.069 391.175 492.398 392.058 490.761C393.951 487.321 398.114 485.852 401.1 487.572C402.488 488.412 403.456 488.16 404.086 486.733C404.759 485.306 403.75 483.334 402.362 483.334C401.1 483.292 401.1 482.243 402.404 480.607C403.161 479.684 404.213 477.586 405.937 473.557C406.358 472.634 407.157 471.921 408.418 471.292C411.11 469.991 411.362 468.48 408.923 468.438C408.46 468.438 406.189 467.557 403.876 466.424C399.965 464.62 399.376 464.452 396.474 464.452C393.488 464.452 393.152 464.536 389.535 466.55L385.75 468.648L378.39 468.606C367.455 468.564 362.702 467.599 362.534 465.501C362.534 464.914 362.492 464.2 362.45 463.907C362.408 463.151 361.399 463.277 360.137 464.284Z" fill="#3ABF0A"/>
<path d="M99.1318 469.613C98.2066 470.033 97.6178 470.704 97.5337 471.25C97.3234 472.76 95.5149 473.893 93.2439 473.893C91.2672 473.893 90.3419 474.481 89.7531 476.075C89.627 476.495 90.0475 477.837 90.8046 479.222C91.5616 480.565 92.3607 482.789 92.613 484.174L93.0756 486.691H95.599C97.5757 486.691 98.2486 486.859 99.0057 487.614C100.394 488.999 103.127 489.251 105.44 488.202C107.753 487.153 111.412 487.027 112.338 487.992C112.716 488.328 113.011 489.083 113.011 489.628C113.011 490.132 113.389 491.013 113.81 491.559C114.735 492.734 114.567 493.405 112.338 496.762C110.992 498.734 110.74 499.531 110.487 502.342C110.319 504.357 109.898 506.035 109.436 506.748C108.973 507.462 108.805 508.301 108.931 509.056C109.183 510.357 108.09 513.21 106.996 514.133C106.029 514.931 106.113 516.022 107.249 517.868C108.847 520.428 108.889 520.763 107.501 523.365L106.197 525.84L107.081 527.813C108.216 530.33 108.174 530.624 106.954 531.757C106.366 532.302 105.609 533.393 105.23 534.191C104.599 535.491 104.599 535.701 105.188 536.666C105.567 537.212 106.954 538.219 108.3 538.89C111.286 540.401 112.38 541.576 115.071 546.149C117.216 549.8 119.235 551.814 120.371 551.353C120.707 551.227 121.254 550.513 121.674 549.758C122.768 547.576 123.903 546.569 126.006 545.898C129.034 544.891 135.385 544.009 141.609 543.716C148.296 543.38 149.306 543.044 151.913 539.981C154.142 537.38 156.455 535.701 158.6 535.114C159.736 534.82 160.156 534.4 160.367 533.561C160.871 531.547 162.133 529.407 164.572 526.554C167.306 523.323 167.348 522.861 165.161 518.162L163.815 515.224L167.895 509.35C170.166 506.119 172.563 502.468 173.236 501.252C174.75 498.65 176.222 497.685 182.278 495.503C186.947 493.824 191.026 491.265 192.708 488.999C194.18 487.027 194.18 482.705 192.666 482.705C192.372 482.705 191.909 483.083 191.657 483.544C191.279 484.257 190.774 484.383 188.377 484.383C186.694 484.383 185.054 484.132 184.339 483.754C183.666 483.376 182.447 483.166 181.605 483.208C180.302 483.334 180.091 483.208 179.713 482.076C179.461 481.362 179.082 480.691 178.83 480.523C178.619 480.355 176.432 480.187 173.993 480.187C164.867 480.187 158.642 478.803 155.53 476.117C153.007 474.019 150.862 473.599 138.287 473.054C128.235 472.592 123.567 472.089 119.529 470.998C118.604 470.746 115.45 470.578 112.548 470.578C108.006 470.578 106.912 470.452 105.314 469.739C102.959 468.648 101.066 468.606 99.1318 469.613Z" fill="#3ABF0A"/>
<path d="M243.303 481.908C242.42 482.537 242.125 483.124 242.125 484.173C242.125 486.859 243.05 492.146 243.639 492.733C244.144 493.279 244.354 493.237 245.322 492.314C247.845 489.964 249.317 485.055 248.266 482.537C247.677 481.194 247.466 481.026 246.037 481.026C245.111 481.068 243.976 481.404 243.303 481.908Z" fill="#3ABF0A"/>
<path d="M334.609 482.369C332.842 482.957 332.338 484.677 333.137 487.363C333.978 490.09 334.02 497.769 333.221 499.993C332.758 501.251 332.758 501.797 333.221 503.14C333.557 504.021 333.81 505.238 333.81 505.867C333.81 506.664 334.23 507.252 335.197 507.923C337.048 509.182 338.015 510.441 338.015 511.532C338.015 512.077 338.183 512.497 338.394 512.497C339.067 512.497 341.632 509.224 343.062 506.58C343.777 505.196 344.66 503.937 344.997 503.811C345.922 503.475 345.712 502.678 343.819 499.028C342.053 495.713 342.011 495.503 342.011 491.601C342.011 488.663 341.8 487.195 341.296 486.272C339.824 483.544 336.627 481.656 334.609 482.369Z" fill="#3ABF0A"/>
<path d="M349.034 486.104C348.529 486.607 347.982 486.943 347.856 486.775C347.225 486.188 345.249 487.824 344.155 489.838C342.767 492.398 342.641 494.202 343.651 496.426C344.492 498.314 346.006 499.363 348.109 499.489C350.884 499.699 351.767 499.489 353.744 498.146C354.964 497.391 356.646 496.678 357.95 496.51C361.819 495.881 363.165 492.566 361.02 488.831C359.632 486.313 357.866 485.516 353.576 485.306C350.169 485.139 349.833 485.181 349.034 486.104Z" fill="#3ABF0A"/>
<path d="M94.5898 488.244C93.8327 488.454 93.0757 488.915 92.9495 489.251C92.8234 489.586 93.0336 491.139 93.4542 492.65C95.0524 498.524 93.1598 510.189 89.4168 517.197C88.4494 519.043 88.1971 520.05 88.2812 521.393C88.3653 522.651 88.5756 523.155 88.9962 523.071C90.0476 522.861 92.2346 523.826 93.3701 525.001C94.4215 526.092 94.5056 526.344 94.1271 528.274C93.4542 532.009 93.1598 537.422 93.6224 538.555C93.9168 539.436 94.4636 539.771 96.1459 540.191C99.7628 541.03 101.067 540.904 102.496 539.562C103.506 538.596 103.758 538.009 103.758 536.624C103.758 535.449 104.179 534.023 105.02 532.512C106.492 529.785 106.576 528.862 105.567 527.141C104.852 525.924 104.852 525.84 105.987 523.868C107.501 521.141 107.417 520.092 105.482 516.777C104.599 515.224 103.8 513.798 103.8 513.588C103.758 513.378 104.641 512.917 105.735 512.539L107.754 511.868V509.56C107.754 508.049 108.006 506.874 108.511 506.203C108.973 505.531 109.226 504.357 109.226 502.636C109.226 500.161 109.604 499.112 111.791 495.293C112.842 493.447 112.632 491.013 111.286 489.586C110.025 488.244 107.291 488.202 105.819 489.461C104.936 490.216 104.389 490.3 101.697 490.174C99.216 490.048 98.501 489.838 97.9123 489.167C96.987 488.034 96.23 487.824 94.5898 488.244Z" fill="#3ABF0A"/>
<path d="M395.759 488.37C393.909 489.167 392.941 490.719 393.32 492.356C393.53 493.237 393.404 493.992 392.941 494.664C391.512 496.846 392.563 501.21 394.792 502.426C396.096 503.14 397.231 502.72 399.755 500.58C402.404 498.314 403.876 497.853 410.059 497.475L414.769 497.139L412.035 495.839C408.881 494.328 407.998 493.615 406.316 491.307C404.759 489.167 404.465 488.957 403.372 489.209C402.909 489.293 401.816 489.041 400.974 488.579C399.166 487.614 397.652 487.53 395.759 488.37Z" fill="#3ABF0A"/>
<path d="M461.452 488.202C460.527 488.37 458.298 488.537 456.489 488.537C449.382 488.621 438.489 492.733 434.494 496.846L432.643 498.818L428.942 498.272C424.442 497.601 416.956 497.181 416.031 497.517C414.474 498.146 418.133 501.168 420.447 501.168C422.087 501.168 421.246 501.965 418.68 502.804C415.231 503.979 414.559 504.399 415.358 504.902C416.199 505.448 414.685 505.615 405.937 506.161C397.231 506.664 393.867 507.504 391.848 509.811C390.796 511.028 390.586 511.616 390.67 512.833L390.796 514.385L394.077 514.301C395.843 514.217 397.315 514.259 397.315 514.385C397.315 514.469 396.937 515.182 396.474 515.98L395.591 517.448L397.105 519.211C397.904 520.176 398.577 521.099 398.577 521.267C398.577 521.435 398.114 522.19 397.526 522.987C396.937 523.784 396.474 524.456 396.474 524.54C396.474 524.624 396.979 525.169 397.568 525.715C398.198 526.302 398.493 526.764 398.24 526.764C397.526 526.764 396.474 528.022 396.474 528.946C396.474 529.533 396.979 529.953 398.156 530.414C399.586 531.002 399.839 531.295 399.839 532.302C399.839 532.974 399.586 533.603 399.208 533.729C398.198 534.107 398.451 534.736 400.47 536.876C401.479 537.967 402.446 539.31 402.572 539.855C402.825 540.82 402.951 540.862 404.801 540.569C407.998 540.023 408.208 540.107 410.311 542.079C411.446 543.128 412.75 543.967 413.255 543.967C413.844 543.967 414.432 544.429 414.895 545.268C416.998 549.129 419.101 550.22 422.549 549.171C424.61 548.583 427.176 546.275 427.176 545.016C427.176 543.674 428.185 542.289 429.152 542.289C431.97 542.289 440.129 545.982 443.662 548.835C446.143 550.891 447.405 551.101 450.728 550.094C454.302 549.003 456.489 547.828 458.676 545.898C459.854 544.849 461.326 543.842 461.915 543.716C463.513 543.296 466.625 543.758 467.508 544.555C468.56 545.52 469.317 545.394 471.125 543.967C473.06 542.415 474.027 542.121 475.121 542.709C476.298 543.338 476.172 544.345 474.7 546.527C472.471 549.842 473.312 553.367 475.793 551.059C477.35 549.632 478.065 548.038 478.065 546.065C478.065 545.1 478.275 543.967 478.485 543.506C479.032 542.541 480.756 542.457 482.27 543.338C483.742 544.177 485.298 544.135 489.378 543.044L492.869 542.121L496.948 543.044C499.177 543.548 501.406 543.967 501.953 543.967C502.458 543.967 504.939 543.296 507.42 542.499C513.392 540.611 515.369 540.191 520.206 539.771C522.855 539.562 524.706 539.184 525.547 538.68C526.766 537.967 526.893 537.967 528.07 538.638C529.164 539.268 529.416 539.268 530.804 538.722C531.939 538.261 534.042 538.093 539.426 538.093C544.01 538.093 546.659 537.925 546.828 537.631C547.374 536.792 546.575 534.988 545.061 533.645C543.673 532.344 543.589 532.135 544.01 531.169C545.019 528.987 544.43 523.365 542.58 518.036C541.907 516.064 542.075 515.434 543.169 515.434C544.683 515.434 545.776 514.217 545.776 512.497C545.776 510.651 545.019 509.979 542.874 509.979C540.603 509.979 539.636 509.308 538.711 507.126C537.659 504.692 537.575 503.979 538.29 502.846C539.005 501.713 537.996 499.867 534.883 496.636C532.108 493.741 531.182 493.447 526.514 494.034C522.561 494.538 521.089 495.041 517.808 496.804C513.35 499.237 508.682 500.035 504.813 498.986C503.299 498.608 502.205 498.65 498.715 499.237C493.373 500.202 490.808 499.909 484.163 497.769C481.387 496.888 478.653 496.132 478.107 496.132C477.35 496.132 476.382 495.419 474.826 493.741C473.102 491.894 472.471 491.475 472.092 491.852C471.377 492.566 469.191 492.482 468.055 491.684C467.508 491.307 466.625 490.3 466.036 489.377C464.943 487.614 464.564 487.53 461.452 488.202Z" fill="#3ABF0A"/>
<path d="M370.82 494.286C369.768 494.622 367.539 495.041 365.815 495.251C363.417 495.545 362.534 495.839 362.03 496.51C361.525 497.139 360.6 497.475 358.497 497.769C355.805 498.146 353.408 499.195 352.314 500.538C351.978 500.916 351.053 501.168 350.001 501.168C347.52 501.168 346.847 501.503 346.847 502.678C346.847 503.224 346.3 504.273 345.627 505.07C344.954 505.825 344.24 507.084 344.029 507.881C343.735 508.888 343.356 509.392 342.599 509.56C341.674 509.811 341.59 510.021 341.632 512.161C341.716 515.854 344.071 519.378 346.931 520.05L348.319 520.386L346.973 520.679C344.912 521.141 344.576 521.77 345.375 523.658C346.384 526.092 346.931 526.302 351.978 526.344C354.459 526.344 357.487 526.554 358.707 526.805C361.567 527.393 368.086 530.54 370.273 532.428C371.198 533.225 372.081 533.771 372.207 533.645C372.628 533.225 371.703 530.498 370.693 529.155C369.642 527.813 367.791 526.428 362.618 523.155L360.095 521.602L361.483 521.225C362.871 520.847 362.871 520.847 362.198 519.798C361.819 519.211 361.567 518.329 361.651 517.826C361.777 517.029 362.03 516.903 363.586 516.987C365.058 517.071 365.394 516.945 365.268 516.399C365.184 516.022 364.553 515.56 363.796 515.35C362.492 515.015 362.366 514.805 361.777 512.329C361.651 511.616 361.146 510.567 360.684 509.937C360.263 509.308 359.885 508.385 359.885 507.923C359.885 506.874 360.768 504.692 361.693 503.475C362.324 502.678 362.366 502.678 362.66 503.895C363.081 505.741 364.048 506.622 365.604 506.622C368.17 506.622 369.011 506.035 369.305 503.979C369.474 502.93 369.978 501.755 370.441 501.377C371.408 500.454 378.011 499.111 381.376 499.07C382.638 499.07 384.698 499.363 385.918 499.741C387.138 500.077 388.82 500.328 389.661 500.244C391.133 500.119 391.217 500.035 391.133 498.65C391.091 497.853 390.797 497.013 390.418 496.72C390.04 496.468 388.105 496.132 386.086 496.006C384.025 495.839 380.787 495.251 378.852 494.664C374.815 493.489 373.511 493.405 370.82 494.286Z" fill="#3ABF0A"/>
<path d="M241.831 499.951C239.349 501.126 239.181 501.293 239.181 502.636C239.181 503.433 239.476 505.154 239.812 506.497C240.611 509.602 240.611 511.909 239.728 515.098L239.013 517.658L240.653 519.085C241.536 519.84 242.546 520.469 242.84 520.469C243.177 520.469 243.934 519.882 244.522 519.169C245.111 518.497 245.868 517.994 246.163 518.12C247.382 518.581 248.896 514.721 249.485 509.644C249.99 505.154 247.55 498.65 245.364 498.65C244.859 498.65 243.261 499.237 241.831 499.951Z" fill="#3ABF0A"/>
<path d="M352.945 528.526C352.482 528.778 351.095 529.743 349.875 530.666L347.688 532.344L350.211 534.988C352.651 537.505 353.197 538.596 352.314 539.142C351.683 539.52 351.81 541.702 352.482 542.247C352.945 542.667 353.324 542.667 353.997 542.289C355.3 541.576 355.931 541.995 357.151 544.387C357.74 545.52 358.37 546.485 358.539 546.485C358.749 546.485 359.212 545.772 359.632 544.933L360.389 543.338L361.188 544.345C361.651 544.891 362.24 545.226 362.618 545.058C363.628 544.681 363.375 542.079 361.945 538.848C361.23 537.254 360.768 535.827 360.894 535.659C361.02 535.533 362.071 535.869 363.165 536.373C365.52 537.464 367.581 537.422 367.791 536.247C367.917 535.617 367.791 535.491 367.034 535.701C366.361 535.869 365.646 535.533 364.385 534.358C361.861 532.135 359.969 530.792 357.571 529.617C354.711 528.148 353.912 527.98 352.945 528.526Z" fill="#3ABF0A"/>
<path d="M278.715 530.75C278.378 531.127 277.621 531.379 276.78 531.295C275.981 531.253 275.098 531.463 274.846 531.757C273.584 533.016 281.322 538.219 286.495 539.562C289.271 540.275 290.617 541.03 291.542 542.457C291.921 543.002 292.804 543.716 293.477 543.967C294.57 544.429 294.907 544.387 295.874 543.674C297.304 542.625 297.472 541.534 296.631 539.016C295.916 536.834 296.126 535.575 297.809 532.428C299.197 529.827 299.365 529.869 291.542 530.75C286.79 531.253 285.738 531.253 283.551 530.75C280.313 529.995 279.346 529.995 278.715 530.75Z" fill="#3ABF0A"/>
<path d="M369.978 558.15C369.978 558.654 371.913 559.283 374.478 559.661C375.446 559.787 377.128 560.374 378.221 560.961C381.712 562.808 387.432 562.01 384.993 559.996C383.773 558.989 369.978 557.269 369.978 558.15Z" fill="#3ABF0A"/>
</svg>
