<svg width="638" height="638" viewBox="0 0 638 638" fill="none" xmlns="http://www.w3.org/2000/svg">
<circle cx="319" cy="319" r="319" fill="white"/>
<g clip-path="url(#clip0_30_134)">
<path d="M455.596 165.824C435.316 147.103 413.941 138 390.249 138C362.309 138 336.808 150.797 312.142 163.18C289.954 174.318 268.999 184.837 248.918 184.837C233.754 184.837 220.144 178.798 206.085 165.824C201.246 161.355 194.217 160.177 188.178 162.821C182.52 165.298 178.787 170.701 178.334 176.79C177.521 178.748 177.062 180.894 177.062 183.145V483.409C177.062 492.573 184.489 500 193.653 500C202.817 500 210.244 492.573 210.244 483.409V385.802C222.533 391.886 235.33 394.983 248.913 394.983C248.913 394.983 248.918 394.983 248.924 394.983C276.858 394.977 302.359 382.185 327.025 369.803C349.218 358.664 370.179 348.151 390.26 348.151C405.424 348.151 419.035 354.19 433.087 367.165C437.926 371.644 444.956 372.822 450.995 370.173C457.034 367.53 460.933 361.562 460.933 354.975V178.013C460.933 173.378 458.997 168.965 455.596 165.824ZM427.75 323.458C415.827 317.772 403.4 314.974 390.26 314.974C362.32 314.974 336.814 327.771 312.142 340.154C289.954 351.287 268.999 361.8 248.924 361.806C235.69 361.806 223.633 357.199 211.433 347.399V209.531C223.357 215.221 235.784 218.02 248.924 218.02C276.864 218.02 302.37 205.222 327.03 192.84C349.218 181.701 370.179 171.183 390.254 171.183C403.5 171.183 415.55 175.789 427.75 185.589V323.458Z" fill="#23D160"/>
</g>
<defs>
<clipPath id="clip0_30_134">
<rect width="362" height="362" fill="white" transform="translate(138 138)"/>
</clipPath>
</defs>
</svg>
