<svg width="638" height="638" viewBox="0 0 638 638" fill="none" xmlns="http://www.w3.org/2000/svg">
<g clip-path="url(#clip0_47_563)">
<circle cx="319" cy="319" r="319" fill="white"/>
<path d="M215.944 358.051C214.567 357.808 213.514 356.917 212.542 355.944C211.326 354.648 209.868 353.595 208.491 352.461C208.005 352.056 207.437 351.569 206.789 351.893C204.764 352.704 202.819 352.218 200.875 351.812C200.146 351.65 199.336 351.245 198.201 351.893C198.931 349.787 197.715 349.301 196.257 348.815C194.88 348.329 193.664 347.6 192.611 347.113C191.477 347.194 191.315 348.41 190.181 348.167C190.748 345.817 188.479 345.655 187.345 344.44C187.264 343.63 188.155 342.576 187.345 342.009C185.725 340.875 185.4 339.174 185.319 337.391C185.238 336.824 185.076 336.257 184.59 335.852C182.403 334.15 180.539 332.125 177.218 332.287C174.058 332.449 171.141 331.153 169.602 327.912C169.278 327.264 168.711 327.021 168.143 326.697C167.252 326.211 165.875 325.887 165.551 325.076C164.903 323.618 163.931 322.97 162.634 322.403C161.662 321.998 161.905 321.35 162.715 320.701C160.771 320.62 158.988 320.863 157.368 322.079C155.991 321.268 154.532 320.62 152.831 320.701C150.4 320.863 148.375 320.053 147.079 317.542C146.268 319.891 143.271 320.539 143.838 323.456C143.19 323.213 142.704 322.727 142.785 322.565C143.757 321.106 142.866 318.838 144.81 317.947C144.162 316.488 143.352 317.218 142.866 317.623C141.407 318.676 139.949 319.729 138.167 319.972C136.546 320.296 135.736 321.349 135.493 322.646C135.088 324.509 133.954 325.481 132.495 326.292C131.604 325.562 130.713 324.833 129.984 324.185C129.498 323.78 128.931 323.537 128.201 323.78C127.067 324.104 125.771 323.861 124.718 324.59C124.312 324.914 123.826 324.995 123.34 324.752C121.72 324.185 119.694 321.268 119.532 319.486C119.289 317.056 120.181 314.868 120.829 312.6C121.234 311.06 120.91 310.25 119.613 309.359C118.803 308.873 117.993 308.711 117.102 308.711C114.995 308.711 112.808 308.711 110.62 308.711C112.079 304.255 114.104 300.366 115.319 296.234C114.509 296.072 113.78 295.991 113.051 295.91C110.458 295.505 108.757 296.558 107.947 299.069C107.704 299.799 107.704 300.933 106.975 301.176C104.625 301.986 102.275 302.877 99.7638 302.958C99.4398 302.958 99.0347 302.553 98.7106 302.391C95.7129 300.447 94.1736 295.91 95.1458 292.426C95.956 289.509 97.5764 286.755 97.2523 283.595C97.1713 282.704 97.8194 282.38 98.4676 281.974C100.736 280.516 103.005 279.22 105.192 277.599C106.731 276.465 108.433 276.465 109.729 277.113C111.836 278.167 113.294 277.843 114.833 276.141C116.373 274.521 118.56 276.546 120.343 275.412C120.667 275.25 121.234 275.331 121.396 275.736C122.368 277.518 123.664 276.708 125.042 276.303C126.014 277.437 127.877 278.086 127.148 280.03C126.176 282.542 127.148 284.567 128.606 286.512C128.931 286.998 129.417 287.322 130.065 286.998C131.766 284.405 131.442 281.65 130.956 278.815C130.713 277.275 130.146 275.655 131.28 274.197C132.9 272.09 134.602 270.065 136.951 268.687C138.329 267.877 139.706 266.986 141.002 266.095C143.352 264.475 146.025 262.935 145.62 259.37C145.62 259.046 145.62 258.722 146.025 258.56C147.16 258.155 147.322 257.021 147.889 256.13C148.051 255.806 148.132 255.238 148.699 255.4C149.914 255.724 150.4 254.752 150.725 254.104C151.697 252.403 153.236 251.755 154.937 251.106C156.639 250.458 158.583 250.539 160.204 249.486C159.799 247.704 159.799 247.704 160.69 246.407C161.338 245.435 162.067 244.706 163.201 244.382C165.875 243.491 168.468 242.032 171.627 241.546C169.44 243.329 169.44 243.329 170.412 244.868C174.463 243.167 178.676 241.951 182.484 239.602C182.16 239.035 182.403 238.225 181.917 237.657C181.025 237.576 180.539 238.224 180.053 238.711C177.542 241.141 175.435 240.655 174.058 237.414C175.111 236.118 175.921 234.66 176.488 233.039C175.273 232.148 174.058 232.067 172.762 232.715C171.708 233.201 170.493 233.525 169.359 233.931C169.278 233.849 169.116 233.687 169.035 233.606C169.683 232.067 171.546 232.634 172.437 231.662C173.653 230.285 175.192 230.204 176.893 230.285C178.271 230.366 179.648 230.285 181.025 230.285C184.428 230.366 187.588 229.88 190.505 227.935C190.991 227.611 191.639 227.044 192.53 227.368C191.153 228.745 189.937 229.961 188.722 231.257C187.507 232.634 185.968 233.606 185.238 235.389C187.669 236.118 190.343 234.822 192.449 236.604C193.988 235.389 193.583 237.495 194.312 237.657C195.204 237.09 196.176 236.604 196.824 235.551C195.852 234.417 196.014 233.12 196.662 231.662C195.609 231.662 194.718 231.662 193.745 231.662C193.664 230.69 193.421 229.88 192.773 229.475C194.069 227.854 193.745 225.667 195.447 224.613C195.285 224.208 195.123 223.884 195.042 223.56C194.475 221.535 193.907 219.752 191.558 218.78C190.262 218.213 188.56 216.836 189.937 214.729C190.018 214.567 190.018 214.243 190.018 214C189.613 211.974 189.208 209.949 188.803 207.924C187.831 208.167 187.183 208.653 186.616 209.22C185.481 210.354 184.104 210.921 182.727 211.65C181.917 212.056 181.268 212.137 180.539 211.488C179.729 210.84 179.648 210.192 179.729 209.22C179.81 208.086 180.944 207.762 181.187 206.708C179.972 206.627 179.081 206.222 178.352 205.331C177.704 204.521 176.975 203.792 176.083 203.225C173.896 204.197 171.627 203.387 169.44 203.387C168.954 204.197 168.225 205.007 167.981 205.898C167.333 208.329 165.713 210.03 163.85 211.65C163.768 211.731 163.687 211.975 163.606 212.137C165.065 212.785 164.984 213.757 164.417 215.053C163.282 217.727 160.69 218.699 158.502 219.266C156.153 219.914 155.748 221.13 155.586 222.912C155.343 225.343 153.965 226.801 151.535 227.449C151.13 226.477 150.724 225.586 150.4 224.613C150.887 224.127 151.859 224.613 151.94 223.722C151.778 223.236 150.968 223.56 150.887 222.831C151.049 221.535 151.94 220.4 152.507 218.942C149.428 219.509 146.998 218.213 144.891 216.674C143.109 215.377 141.488 214.243 139.22 214.486C138.977 211.488 138.734 210.921 137.843 210.354C139.544 208.167 141.731 206.546 144.324 205.412C146.268 204.602 148.051 203.468 149.995 202.657C151.049 202.171 151.697 200.794 152.669 200.713C155.424 200.551 157.449 198.85 159.799 198.039C159.88 198.12 159.961 198.201 160.123 198.363C159.637 199.417 158.664 199.984 157.611 200.47C158.178 201.118 159.15 201.037 158.988 202.009C159.961 201.766 161.014 201.685 161.662 200.875C162.553 199.903 163.444 199.984 164.417 200.713C165.308 201.361 166.199 201.199 167.009 200.875C167.495 199.174 166.037 198.849 165.308 198.201C164.498 197.472 163.363 196.986 162.877 195.852C164.012 195.366 164.498 196.419 165.389 196.581C165.956 195.69 166.847 195.285 167.981 195.204C169.44 195.204 170.898 194.312 171.303 193.178C171.789 191.882 172.843 191.153 173.248 190.343C173.41 189.451 172.275 189.37 172.924 188.56C174.625 188.56 176.407 188.722 178.19 188.479C180.215 188.236 181.593 188.965 182.646 190.586C181.998 191.639 180.944 191.315 180.053 191.396C178.757 191.558 178.028 192.044 178.028 193.421C179.486 193.988 180.62 193.907 181.593 192.611C182.322 191.639 183.294 191.558 184.428 191.801C184.995 192.935 184.833 193.745 183.537 194.312C182.484 194.718 180.863 195.123 180.62 195.852C179.81 198.363 178.028 197.715 176.569 197.391C174.787 196.986 173.653 197.472 172.681 198.85C174.058 200.065 174.058 200.065 175.597 199.417C178.109 198.363 179.081 198.444 180.053 200.632C180.944 202.576 182.403 203.062 184.104 203.549C185.4 203.873 186.616 204.278 187.912 204.683C188.317 203.306 187.102 202.657 186.859 201.766C186.94 201.604 187.102 201.523 187.183 201.361C188.479 201.685 189.289 203.062 190.91 203.306C190.829 201.847 192.044 201.28 192.854 200.551C192.53 199.66 191.963 199.012 191.477 198.444C190.018 196.743 190.1 196.5 192.206 195.366C193.016 195.852 193.34 196.743 193.907 197.391C194.475 198.12 195.366 198.606 196.014 197.958C197.31 196.581 199.579 196.743 200.551 194.961C199.093 192.854 196.986 191.801 194.474 191.477C194.637 190.505 195.285 190.262 195.528 189.775C196.014 188.884 195.933 187.993 195.042 187.426C193.745 186.616 192.449 185.481 190.991 185.238C189.451 184.995 188.641 184.266 187.912 183.213C187.102 181.917 186.13 181.512 184.671 181.674C183.456 181.755 182.079 182.079 181.106 181.674C179.486 181.025 178.109 181.836 176.65 181.998C175.273 182.16 174.463 183.375 173.167 183.78C172.843 182.241 174.625 182.484 174.625 181.268C170.979 181.187 168.306 183.051 165.875 185.319C164.822 186.292 165.47 187.669 166.847 187.993C167.576 188.155 168.468 187.75 169.035 188.56C167.981 190.667 164.498 193.178 161.905 193.664C161.419 192.773 162.067 192.449 162.634 191.882C163.606 190.991 163.363 189.937 162.148 189.532C161.743 189.37 161.176 189.694 160.852 188.965C160.771 187.669 161.014 186.211 160.366 184.914C161.176 183.942 162.148 183.537 163.201 183.456C165.308 183.213 167.09 182.241 169.197 180.62C167.333 180.62 165.875 180.701 164.498 180.62C163.12 180.539 161.986 180.944 161.095 182.079C159.718 183.861 157.935 185.076 155.991 186.13C154.613 186.859 153.479 187.831 153.236 189.37C148.699 188.803 147.16 189.451 146.268 192.368C144.162 192.368 141.975 192.368 139.787 192.368C138.977 192.368 138.086 192.449 137.518 191.72C136.465 190.099 135.088 190.505 133.711 191.072C132.9 191.396 131.604 191.072 131.442 192.449C131.361 192.773 130.956 192.773 130.632 192.773C127.796 192.773 125.042 192.773 122.206 192.773C122.368 191.801 123.502 192.125 123.826 191.072C123.421 190.829 122.935 190.424 122.449 190.424C119.451 190.099 116.616 188.641 113.456 188.965C113.213 188.965 112.808 189.046 112.727 188.965C111.836 187.507 110.863 188.479 109.891 188.803C109.729 188.884 109.567 188.803 109.405 188.803C108.676 188.641 109 187.507 107.947 187.507C105.678 188.641 103.005 188.803 100.412 189.37C99.6018 189.532 98.7916 189.694 97.9814 189.289C97.0902 188.884 96.4421 189.289 95.7129 189.532C93.5254 190.1 91.3379 190.991 89.0694 189.289C87.9351 188.479 86.3148 188.317 84.8564 188.398C82.6689 188.479 80.4814 188.398 78.375 187.993C75.2152 187.345 71.9745 187.345 68.9768 185.806C68.5717 185.562 68.2476 185.725 67.8426 185.806C64.2777 186.616 60.7129 187.102 57.3101 188.317C54.3125 189.451 51.2338 190.424 47.993 190.829C47.3449 190.91 46.7777 191.072 46.2916 191.639C46.5347 192.692 46.7777 193.826 47.0208 194.88C46.2106 195.366 45.0764 195.528 44.7523 195.123C43.7801 193.907 42.8889 194.637 42.0787 194.88C40.7014 195.204 39.324 195.852 37.8657 196.014C36.1643 196.257 35.7592 197.067 35.7592 198.687C37.7037 199.255 39.6481 199.093 41.6736 199.012C41.0254 200.875 40.9444 201.118 40.0532 200.956C37.7037 200.632 35.6782 202.09 33.4907 202.252C31.3032 202.414 29.5208 203.549 27.8194 204.764C26.4421 205.736 25.2268 207.032 25.5509 209.139C26.5231 209.058 27.2523 208.491 27.9814 208.977C27.9004 209.706 26.9282 210.03 26.9282 211.002C28.5486 210.759 30.1689 210.597 31.7893 211.812C28.4676 213.109 25.3889 214.405 22.3912 215.539C20.6088 216.268 18.7453 216.917 16.9629 217.565C14.1273 218.618 11.2916 219.671 8.29395 220.4C8.29395 220.562 8.29395 220.724 8.29395 220.887C12.1828 220.481 15.9097 219.509 19.6365 218.537C23.2824 217.565 27.0092 216.674 30.25 214.567C31.7083 213.676 33.3287 213.352 35.0301 213.109C37.4606 212.785 39.9722 212.299 41.6736 210.354C41.8356 209.706 40.9444 209.544 41.2685 208.815C43.2939 209.058 45.0764 207.924 47.0208 207.6C47.1018 207.681 47.1828 207.762 47.2639 207.843C46.9398 208.734 45.6435 208.653 45.4004 209.787C48.1551 209.625 50.7477 209.139 53.0972 207.924C54.6365 207.113 56.0139 207.032 57.4722 207.924C58.9305 208.815 60.5509 208.896 62.0902 209.22C64.7639 209.787 65.7361 210.84 65.574 213.595C65.493 215.539 65.331 217.403 65.25 219.266C66.3032 219.914 67.3564 219.185 68.3287 219.833C67.0324 222.669 67.7615 225.667 67.9236 228.502C67.1134 229.15 66.4652 228.178 65.6551 228.583C64.4398 231.419 68.0046 231.824 68.4097 233.849C67.8426 234.66 67.3564 235.551 66.9514 236.523C66.1412 238.711 65.1689 240.736 63.4676 242.518C61.6851 244.301 59.7407 246.083 59.4976 248.919C59.4976 249.243 59.0926 249.648 58.8495 249.891C56.5 251.917 56.9051 254.752 56.9861 257.345C57.0671 259.208 57.7963 260.991 57.7152 262.854C57.6342 264.961 58.6064 266.014 60.2268 266.824C62.0092 267.715 62.5764 269.174 62.7384 271.118C62.9004 274.035 62.8194 277.113 64.5208 279.544C64.1967 280.354 63.3055 280.354 63.1435 281.245C63.8726 282.218 64.4398 283.433 65.8171 284.081C66.3842 284.405 67.1944 285.053 67.0324 285.782C66.4652 287.808 67.7615 288.861 68.8148 290.157C69.3819 290.806 69.949 291.535 70.0301 292.507C70.0301 292.588 70.2731 292.669 70.4351 292.75C71.0023 292.507 71.3264 292.102 71.5694 291.616C70.8402 289.995 69.868 288.375 69.5439 286.755C68.8958 283.676 67.5995 280.759 66.4652 277.843C65.7361 276.06 65.6551 274.521 66.3842 272.9C67.6805 272.9 68.9768 272.738 68.9768 274.602C68.9768 277.356 69.949 279.787 71.7314 281.893C72.2986 282.542 73.1088 283.19 72.8657 284.162C72.3796 286.106 73.4328 287.322 74.6481 288.618C75.7824 289.752 76.6736 291.13 77.7268 292.345C79.0231 293.722 78.9421 295.343 78.537 296.882C77.8078 299.799 77.8078 299.961 80.0764 301.662C81.6967 302.877 83.4791 303.687 85.0995 304.822C87.287 306.361 89.7176 307.495 92.1481 308.549C93.6064 309.116 95.1458 309.359 96.6041 308.63C98.2245 307.9 99.4398 308.549 100.574 309.521C101.384 310.331 102.113 311.141 102.843 312.032C103.167 312.437 103.491 313.005 104.139 313.086C106.812 313.491 109.243 314.949 111.998 315.192C112.646 315.921 112.484 316.974 113.132 317.623C114.347 318.757 114.914 320.053 114.671 321.755C116.616 322.727 117.75 324.428 119.289 325.724C119.694 326.049 119.937 326.778 120.586 326.616C121.963 326.211 122.854 326.94 123.745 327.831C124.231 328.236 124.637 328.884 125.366 328.56C126.176 328.236 126.257 327.669 126.095 326.778C125.852 325.725 126.824 325.157 127.634 324.914C128.363 324.671 129.336 325.157 129.417 325.806C129.741 327.912 131.766 329.532 131.199 331.963C130.956 332.854 131.118 333.907 131.199 334.88C131.361 336.824 130.713 338.282 129.174 339.579C127.796 340.794 127.715 343.062 125.771 343.792C125.528 343.873 125.528 344.521 125.366 344.926C125.204 345.493 125.123 346.06 124.799 346.546C123.421 348.734 123.745 350.597 125.69 352.218C125.285 352.704 124.961 353.028 124.637 353.433C123.421 354.729 123.259 356.025 123.745 357.808C124.312 359.671 125.933 360.562 126.662 362.102C129.336 367.854 133.549 372.796 135.898 378.792C136.384 380.007 137.275 380.898 138.41 381.708C141.083 383.572 143.676 385.516 146.268 387.38C146.998 387.947 147.646 388.433 147.808 389.405C148.213 391.998 148.861 394.59 149.185 397.264C149.671 402.368 149.428 407.472 149.59 412.495C149.59 413.711 149.671 414.926 150.076 416.06C151.211 419.22 150.968 422.38 150.725 425.62C150.481 428.942 149.266 432.507 151.697 435.586C152.102 436.153 151.94 436.882 151.94 437.449C151.94 439.556 152.588 441.581 153.155 443.606C153.317 444.255 153.56 445.146 154.694 444.498C155.099 443.85 153.803 443.039 154.856 442.229C155.91 443.849 155.667 445.713 156.315 447.576C155.099 447.171 154.451 447.576 153.884 448.63C154.046 449.278 155.181 449.683 154.613 450.655C154.127 451.465 154.208 452.356 154.37 453.41C155.262 453.491 156.234 453.815 156.72 454.949C155.424 456.083 155.991 457.299 156.801 458.433C158.016 460.134 159.15 461.917 160.447 463.618C163.606 467.588 167.171 471.072 172.6 471.801C173.491 471.882 174.301 472.206 175.192 472.449C177.218 473.016 178.595 472.368 179.972 470.343C179.243 470.099 178.514 469.775 177.704 469.532C175.354 468.965 173.653 467.588 172.275 465.724C171.141 464.185 168.954 462.808 171.222 460.539C170.331 458.514 171.951 457.137 172.843 455.516C172.275 455.111 171.789 454.787 171.384 454.463C170.979 454.058 170.574 453.734 170.169 453.248C169.035 451.951 168.954 450.574 170.25 449.278C170.574 448.873 170.979 448.549 170.817 448.062C170.493 446.361 171.141 444.903 172.356 443.687C169.602 442.877 169.035 442.229 169.197 440.042C169.845 439.799 170.412 440.366 171.06 440.285C172.924 440.123 173.653 439.312 173.41 437.287C173.329 436.396 173.491 435.748 174.22 435.099C175.921 435.181 177.623 435.099 179.243 434.532C181.268 433.884 182.808 429.671 181.268 428.456C179.648 427.241 179.567 425.377 178.271 424.162C178.757 423.757 179 424.081 179.243 424.243C183.051 427.322 185.968 425.863 187.588 421.974C188.398 419.949 189.289 418.005 189.532 415.898C191.558 415.331 191.558 415.331 192.53 413.63C193.826 411.361 194.231 408.931 193.664 406.419C193.34 405.123 193.745 404.15 194.718 403.502C197.553 401.639 200.146 399.451 203.549 398.641C206.465 397.912 208.086 395.562 208.734 393.051C209.868 388.109 211.083 383.167 210.678 377.981C210.597 377.09 210.759 376.28 211.407 375.47C213.757 372.391 215.539 368.988 217.322 365.505C218.537 363.155 218.213 361.292 217.322 359.185C217.16 358.618 216.755 358.213 215.944 358.051Z" fill="#3ABF0A"/>
<path d="M485.898 306.685C486.951 310.169 487.924 313.491 488.815 316.812C489.139 317.947 489.949 319.486 489.544 320.215C488.491 321.917 489.706 323.618 488.896 325.238C488.572 325.968 488.572 326.94 489.058 327.669C489.625 327.993 489.949 327.426 490.354 327.588C491.407 327.912 494.648 333.259 494.324 334.393C493.838 336.014 494.486 337.148 495.377 338.363C497.079 340.794 500.157 341.442 501.859 343.873C501.859 343.873 502.102 343.792 502.264 343.711C502.507 342.738 502.345 341.847 501.859 340.956C500.887 339.336 500.076 337.715 500.319 335.69C500.4 335.042 500.157 334.312 499.671 333.907C498.294 332.53 497.403 330.748 495.701 329.694C494.243 328.722 492.623 327.912 492.785 325.643C492.866 324.833 491.975 324.266 491.407 323.699C490.759 323.132 490.597 322.403 490.84 321.512C491.326 319.486 492.299 317.542 492.137 315.435C492.137 314.949 492.461 314.463 493.109 314.625C493.595 314.706 494 315.03 493.838 315.678C493.757 316.164 493.433 316.569 493.919 317.218C495.62 316.326 496.674 317.542 497.565 318.757C498.375 319.891 499.833 320.539 500.238 321.998C502.588 321.836 502.102 323.456 502.102 324.833C502.102 325.157 502.021 325.643 502.588 325.806C503.317 325.238 504.127 324.671 504.856 324.023C505.424 323.537 505.91 322.97 506.153 322.322C506.396 321.755 507.044 321.593 507.53 321.349C510.771 319.648 511.419 318.028 510.771 314.463C510.285 311.627 508.583 309.521 506.639 307.495C505.181 305.956 503.56 304.579 502.426 302.796C501.94 302.067 501.616 301.419 501.859 300.528C502.426 298.583 504.046 297.611 505.424 296.315C506.477 295.343 507.692 295.91 508.826 295.991C509.312 298.502 509.799 299.15 510.852 298.421C511.257 297.854 510.771 297.044 511.257 296.396C512.472 296.234 513.363 294.856 514.741 295.667C514.903 295.748 515.308 295.505 515.551 295.262C516.118 294.694 516.928 294.532 517.576 294.127C519.602 292.831 521.87 292.264 523.734 290.319C526.65 287.241 527.866 283.595 528.757 279.868C529.081 278.41 529.729 276.87 529.162 275.169C528.433 275.493 527.866 276.465 526.975 275.493C527.137 274.764 527.866 274.197 527.785 273.306C527.461 272.819 526.326 273.062 526.65 272.333C527.137 271.199 526.326 270.875 525.84 270.308C524.787 269.255 523.977 268.12 523.086 266.905C522.194 265.771 520.574 265.528 519.683 264.231C521.141 262.368 521.789 259.856 524.625 259.451C524.139 257.993 523.086 258.398 522.356 258.398C521.546 258.398 520.817 257.993 520.007 258.317C519.197 258.641 518.711 259.613 517.495 259.289C517.252 257.264 514.984 257.507 513.282 255.968C515.875 254.914 517.009 252.727 518.873 250.944C520.412 252.484 518.954 254.752 520.817 255.968C522.437 254.023 524.301 252.646 526.893 254.59C527.299 255.562 526.812 256.697 527.299 257.669C528.676 258.479 530.296 258.398 531.755 259.208C531.674 259.856 531.025 260.667 531.917 261.315C533.051 262.206 533.294 263.259 532.97 264.718C532.646 265.933 533.618 266.581 534.914 266.176C536.535 265.69 538.155 265.123 539.046 263.502C538.803 262.935 538.479 262.449 538.398 261.882C537.993 259.532 536.454 258.074 534.509 256.94C533.294 256.211 531.998 255.4 530.944 254.104C532.889 252.889 533.618 251.106 533.456 248.838C533.375 247.947 534.023 247.137 534.995 246.488C536.292 245.678 536.859 247.218 537.993 247.056C538.965 246.407 540.262 246.002 540.667 244.625C542.287 239.116 543.421 233.687 539.775 228.502C539.289 227.854 539.127 227.044 538.722 226.315C537.588 224.127 536.13 222.345 533.618 221.535C531.512 220.806 531.349 220.725 529.729 222.345C528.433 221.778 528.271 220.238 527.299 219.266C527.218 219.914 527.218 220.4 527.137 220.968C526.326 219.752 524.544 220.4 523.572 219.104C525.354 217.403 526.002 215.377 526.164 213.028C526.326 211.164 527.218 210.678 529.081 210.273C532.727 209.544 536.373 210.111 539.937 209.868C540.262 209.868 540.667 209.787 540.91 209.949C543.097 211.65 545.204 210.678 547.472 210.111C547.067 208.896 545.771 208.977 545.204 208.086C545.528 206.951 545.852 205.736 546.176 204.764C549.498 203.225 550.956 205.979 552.9 207.437C553.873 206.708 554.521 205.979 555.088 205.169C554.926 204.521 554.035 204.197 554.602 203.468C554.764 203.387 555.007 203.225 555.088 203.306C556.627 204.197 557.275 205.979 556.789 207.518C556.465 208.491 555.979 209.544 555.979 210.516C555.898 211.893 555.25 212.785 554.035 213.433C555.007 214.81 554.602 216.674 555.979 217.808C559.301 220.4 562.38 223.317 565.296 226.234C566.025 226.963 566.836 227.611 567.97 228.097C568.375 226.963 568.78 225.91 568.132 225.018C567.16 223.803 568.294 223.398 568.861 222.831C567.241 220.724 567.322 220.481 569.104 220.076C568.375 219.023 566.998 218.294 567.079 216.755C567.646 216.836 568.132 217.079 568.213 216.268C567.241 215.458 565.539 215.539 565.053 214.324C564.567 212.947 563.676 212.623 562.542 212.623C561.569 212.623 561.002 211.893 561.245 211.326C561.65 210.273 560.597 209.706 560.597 208.896C563.109 207.518 563.109 207.518 564.972 208.734C565.863 208.41 566.35 207.032 567.646 207.437C568.699 207.762 569.671 208.167 570.643 208.491C571.292 206.546 572.426 205.169 573.803 203.873C575.343 202.414 577.206 203.468 579.231 203.225C576.882 201.28 574.127 200.875 572.021 199.255C573.074 198.687 573.965 198.039 573.803 196.419C575.829 197.229 577.935 196.662 579.556 197.877C581.5 199.336 583.687 199.498 585.956 199.498C586.199 199.498 586.28 199.336 586.199 199.012C586.442 198.201 585.146 198.201 585.065 197.472C585.227 197.067 586.037 197.067 585.551 195.852C579.312 194.231 572.507 193.259 566.025 191.234C559.463 189.127 552.657 188.56 545.366 187.75C546.176 188.722 546.662 189.289 547.067 189.775L546.905 189.937C541.558 189.208 536.211 188.56 530.782 188.884C530.701 188.884 530.62 188.884 530.539 188.884C530.053 188.884 529.567 188.722 529.243 188.317C528.19 186.778 526.488 186.859 524.949 186.454C522.519 185.887 520.169 186.049 517.738 186.049C514.579 186.049 511.5 185.725 508.502 184.509C507.611 184.185 506.639 184.104 505.667 183.942C502.912 183.456 499.995 183.78 497.241 183.132C496.106 182.889 494.81 182.727 493.514 183.618C494 183.942 494.324 184.185 494.648 184.428C494.972 184.671 495.377 184.833 495.053 185.481C491.893 185.238 488.734 184.995 485.574 184.833C485.169 185.4 485.817 186.292 484.845 186.94C483.468 185.887 481.28 185.887 480.065 184.59C478.201 182.565 475.852 182.079 473.34 181.674C471.801 181.431 470.262 180.62 468.722 181.187C468.236 181.836 469.208 181.998 469.046 182.403C467.021 182.403 464.752 182.97 463.051 182.241C461.025 181.431 459.162 181.512 457.218 181.512C456.002 181.512 454.868 181.431 453.896 180.539C452.6 179.405 451.627 179.405 450.331 180.701C449.197 181.755 448.062 181.674 446.523 181.512C447.9 180.701 449.035 179.972 450.25 179.324C450.736 179 451.222 178.676 450.979 177.947C450.817 177.38 450.493 176.812 449.845 176.812C448.143 176.731 446.604 175.921 444.903 175.759C442.553 175.597 439.88 176.731 438.016 174.382C436.234 174.301 434.451 174.058 432.75 174.544C431.859 174.787 430.725 174.787 430.725 176.326C430.725 176.812 429.509 177.218 428.618 177.218C427.403 177.137 426.187 177.056 424.972 177.218C421.326 177.542 417.843 178.109 414.44 179.324C414.44 180.134 415.655 180.053 415.412 181.025C413.225 181.512 410.875 180.863 408.201 181.35C409.903 182.808 411.037 184.266 413.306 184.185C411.766 184.995 411.766 185.076 410.551 184.428C408.606 183.456 406.662 183.132 404.718 184.023C404.718 185.562 405.933 185.4 406.743 185.725C406.176 186.535 405.69 186.535 404.961 186.292C403.664 185.806 403.259 184.671 402.773 183.537C402.368 182.727 402.125 181.674 400.748 182.322C400.91 183.132 401.882 183.375 402.044 184.104C402.044 184.833 400.829 184.995 401.234 186.049C401.882 186.616 403.178 186.778 403.34 187.993C403.502 189.289 404.069 189.937 405.285 190.424C406.743 191.072 407.148 192.692 406.419 193.988C405.609 195.447 404.961 195.528 403.178 194.637C405.123 192.611 405.204 191.963 403.097 190.181C401.558 188.803 401.234 186.535 399.451 185.481C399.289 185.4 399.208 184.995 399.289 184.833C399.856 183.213 398.722 183.132 397.669 182.889C397.264 182.808 396.859 182.646 396.535 182.484C394.671 181.431 394.104 181.593 393.537 183.537C393.213 184.59 393.132 185.643 392.322 186.049C393.051 188.398 394.59 189.694 396.778 190.343C397.426 190.586 397.426 191.234 396.778 191.963C392.322 189.046 386.731 189.694 382.032 187.426C381.87 187.345 381.546 187.426 381.303 187.426C381.06 187.507 380.898 187.669 380.979 188.074C381.465 188.398 382.032 188.722 382.6 189.046C380.736 191.153 377.819 190.262 375.875 191.72C375.146 191.396 375.632 190.748 375.065 190.343C374.903 190.343 374.66 190.262 374.417 190.262C371.662 191.153 368.664 191.72 366.315 193.745C365.424 194.474 364.208 194.231 363.884 193.34C364.127 192.935 364.451 192.611 364.694 192.206C363.641 190.018 361.778 190.748 359.914 190.748C361.049 192.206 361.13 193.907 362.264 195.204C361.049 195.771 360.4 194.799 359.428 194.799C358.456 195.609 357.322 196.5 356.106 196.743C355.782 197.391 356.755 197.877 355.944 198.444C354.405 198.525 352.704 196.743 351.083 198.282C351.65 199.336 353.028 198.85 353.595 200.389C351.326 199.822 349.463 199.336 348.086 197.796C347.924 197.634 347.681 197.31 347.762 197.148C348.653 195.771 346.87 195.771 346.546 194.961C347.6 194.88 348.491 195.042 349.382 195.204C351.65 195.447 353.919 196.095 356.187 194.88C357.241 194.231 357.808 193.583 357.079 192.206C351.407 191.153 345.898 189.289 340.146 187.993C340.146 187.75 340.227 187.345 340.308 186.94C338.282 186.454 336.419 185.238 334.312 186.697C333.907 186.94 333.178 186.859 332.692 186.697C330.991 186.049 329.37 186.697 327.75 187.021C323.699 187.831 319.81 189.127 316.083 190.829C316.002 190.91 315.921 191.072 315.84 191.234C316.002 191.882 316.975 191.315 317.056 192.125C316.488 194.15 314.301 194.637 313.086 196.176C311.87 197.715 312.113 200.227 310.007 201.199C309.197 200.794 308.387 200.551 307.333 200.794C304.903 201.361 303.039 202.576 301.905 204.845C300.69 207.194 303.12 209.058 302.715 211.326C302.715 211.407 302.796 211.488 302.877 211.488C303.931 212.785 306.685 213.19 308.062 212.137C309.116 211.326 310.088 210.678 311.546 210.192C311.708 212.461 313.734 213.757 314.139 215.701C313.572 216.998 312.519 217.079 311.465 217.16C311.384 217.322 311.06 216.998 311.222 216.917C311.222 215.62 310.493 214.567 310.412 213.352C308.792 213.676 307.576 214.243 306.766 215.701C305.632 217.808 307.414 219.347 307.819 221.049C307.495 221.535 307.171 221.859 306.685 221.94C305.632 222.102 304.579 222.102 303.606 222.426C301.905 222.831 299.961 223.074 300.123 225.586C300.123 226.315 299.556 226.72 298.988 227.044C297.692 227.935 296.315 228.421 294.775 228.745C293.722 231.824 292.102 232.391 288.537 230.852C288.618 231.743 289.347 232.553 288.78 233.363C286.836 233.12 284.81 232.31 283.109 234.093C283.838 235.389 285.134 235.551 286.187 236.037C288.78 237.333 290.076 241.222 288.699 244.22C288.375 244.868 287.727 245.273 286.917 245.354C284.243 245.597 281.569 245.354 279.058 244.949C277.113 244.625 275.817 244.787 274.359 245.84C274.359 246.164 274.278 246.407 274.359 246.569C275.088 249.081 274.764 251.512 273.468 253.78C273.143 254.347 272.9 255.238 273.144 255.643C273.954 256.94 273.711 258.398 274.035 259.613C275.412 260.262 276.546 258.641 277.681 259.613C278.653 260.343 278.653 261.801 279.382 262.287C278.896 265.447 276.87 267.148 274.521 268.525C272.171 269.903 271.199 271.928 271.361 274.521C271.361 275.088 271.604 275.736 271.199 276.141C269.579 277.762 268.363 279.787 266.095 280.435C264.961 280.759 264.231 281.164 263.745 282.218C263.421 282.947 262.935 283.433 262.368 283.919C260.262 285.701 260.262 288.942 257.912 290.562C257.831 290.643 257.831 290.887 257.831 291.049C257.669 292.426 257.021 293.641 256.211 294.775C255.725 295.505 255.319 296.477 255.968 297.287C257.264 299.15 256.94 301.338 257.183 303.282C257.507 306.199 256.13 308.954 254.428 311.627C255.481 312.599 256.049 313.653 255.563 315.354C255.157 316.65 255.806 318.19 257.102 318.838C260.1 320.377 261.801 322.808 262.773 325.968C263.097 327.102 263.583 328.155 264.718 328.965C267.796 331.153 270.875 333.34 273.954 335.609C276.87 333.664 280.111 332.935 283.271 333.826C285.296 334.393 286.755 334.15 288.456 333.259C289.347 332.773 290.4 332.449 291.292 331.882C292.993 330.829 294.856 330.748 296.639 330.748C298.259 330.829 299.718 331.558 300.447 333.259C300.852 334.15 301.095 335.123 301.986 335.852C303.12 335.528 304.255 335.447 305.47 335.528C308.306 335.528 309.44 336.743 309.44 339.417C309.44 341.523 309.278 343.63 308.225 345.493C307.495 346.87 307.657 348.005 308.63 349.22C312.032 353.514 314.301 358.375 316.083 363.479C316.245 363.965 316.893 364.532 316.407 365.018C315.354 365.991 316.002 366.963 316.407 367.854C317.218 369.474 317.137 371.014 316.812 372.796C316.407 374.579 315.597 376.118 314.868 377.738C313.167 381.87 312.843 385.921 315.03 389.972C315.516 390.863 315.921 391.836 316.407 392.808C318.271 396.778 320.134 400.667 319.567 405.285C319.486 405.933 319.648 406.581 319.972 407.148C322.079 410.794 323.537 414.683 325.562 418.41C325.968 419.139 326.211 420.03 325.725 420.435C324.914 421.245 325.4 421.812 325.806 422.461C326.049 422.947 326.292 423.514 326.535 424C327.183 425.539 327.912 425.782 329.532 425.458C332.125 424.972 334.556 423.514 337.31 424.648C337.715 424.81 338.12 424.648 338.444 424.405C339.66 423.514 341.037 423.109 342.576 423.19C343.225 423.271 343.63 422.785 343.954 422.38C345.736 420.516 347.762 418.896 349.301 416.708C350.273 415.331 351.245 413.873 352.542 412.819C354.486 411.28 355.215 409.174 355.053 406.824C354.972 405.123 355.62 404.069 356.998 403.259C357.727 402.854 358.375 402.449 359.104 402.044C359.833 401.639 360.238 401.072 360.481 400.262C361.292 397.912 360.725 395.643 360.076 393.375C359.833 392.403 359.509 391.269 360.319 390.62C363.074 388.514 364.937 385.516 368.421 384.22C370.285 383.491 371.905 382.113 371.581 379.602C371.5 379.116 371.662 378.63 371.743 378.143C372.148 375.227 372.229 372.391 371.176 369.556C370.609 367.935 370.285 366.315 369.718 364.694C368.583 361.049 368.583 357.565 370.528 354C373.201 349.139 377.009 345.169 380.979 341.442C382.843 339.66 384.787 338.12 386.083 335.771C387.38 333.34 389 331.153 390.377 328.722C391.836 326.049 393.132 323.294 393.375 320.134C393.537 317.461 393.537 317.461 391.025 318.271C390.701 318.352 390.377 318.352 390.053 318.433C386.569 318.838 383.167 319.81 379.926 321.025C377.9 319.729 377.171 318.19 377.819 316.002C379.359 315.759 380.979 316.002 382.032 314.625C383.167 313.167 385.111 314.787 386.245 313.491C386.894 312.762 388.028 313.248 388.676 312.6C389.972 311.222 391.836 310.655 393.537 309.926C394.104 309.683 394.995 309.602 395.157 308.954C395.4 307.252 396.778 307.171 397.912 306.766C399.37 306.28 401.234 306.361 401.639 304.255C401.639 304.093 401.963 304.012 402.206 303.849C404.394 302.796 406.257 301.419 406.095 298.664C406.662 298.421 407.715 298.583 407.553 297.935C407.31 296.477 408.363 295.748 408.931 294.775C409.255 294.208 409.66 293.398 409.174 292.993C407.877 292.021 407.148 290.157 405.123 290.157C403.664 290.157 402.935 289.185 402.368 287.889C401.963 286.917 402.206 285.863 401.639 284.567C400.505 285.62 399.613 286.431 398.722 287.322C397.588 288.456 396.292 289.185 394.752 289.428C393.213 289.671 392.889 289.59 392.808 287.97C392.727 286.593 392.241 285.62 391.35 284.972C390.539 284.972 390.701 286.106 389.729 286.106C388.676 283.595 387.299 281.326 385.435 279.301C384.463 278.329 385.192 276.546 386.488 275.817C387.704 275.169 389 275.493 389.648 276.951C390.944 279.706 392.808 281.65 395.562 283.028C397.507 284 398.965 284.486 400.91 283.109C402.044 282.299 402.935 282.704 403.259 284.162C403.583 285.215 404.231 285.62 405.123 285.782C409.498 286.512 413.792 287.646 418.329 287.241C419.22 287.16 420.111 287.241 421.002 287.241C421.894 287.241 422.542 287.484 423.109 288.132C424.81 289.995 426.512 291.778 429.104 292.426C427.889 294.451 428.456 295.262 431.859 297.287C433.722 297.125 434.208 295.667 434.613 294.046C435.829 296.072 435.262 298.178 435.748 300.042C436.801 304.417 438.178 308.711 440.123 312.843C441.905 316.65 443.85 320.539 444.903 324.671C444.984 325.076 445.227 325.481 445.47 325.724C446.442 326.859 447.657 326.778 448.63 325.319C449.116 324.671 449.359 323.861 450.331 323.78C450.979 324.185 451.627 324.428 451.951 325.076C451.384 328.722 451.951 330.343 453.977 331.153C454.139 330.991 454.382 330.829 454.544 330.748C455.84 329.775 456.569 328.317 456.002 326.94C455.354 325.238 454.301 323.456 452.275 322.727C452.113 322.646 451.87 322.97 451.708 323.051C451.627 323.132 451.546 323.213 451.465 323.294C450.331 322.889 450.25 322.322 451.222 321.593C451.627 321.268 452.032 321.025 452.032 320.458C451.789 317.704 452.681 314.949 452.113 312.275C451.708 310.169 451.384 308.468 454.139 308.062C454.301 308.062 454.463 307.9 454.544 307.819C455.273 305.47 457.542 304.498 459.081 302.958C460.62 301.5 461.269 299.15 463.537 298.421C464.023 298.259 463.861 297.53 463.861 297.125C464.185 295.262 464.752 294.937 466.616 295.181C468.803 295.424 470.991 295.424 472.53 293.155C474.475 295.262 473.988 299.312 477.877 299.799C477.634 300.69 477.148 301.419 478.363 302.067C479.579 302.715 480.065 303.931 479.903 305.389C479.822 306.442 479.66 307.495 480.065 308.387C481.361 309.278 482.495 309.359 483.549 308.062C483.873 307.738 484.845 307.252 485.898 306.685ZM348.248 238.468C349.301 238.792 350.354 239.359 351.407 239.278C352.137 240.088 351.083 240.25 351.002 240.979C351.731 241.627 352.704 242.113 353.19 243.329C354.567 242.356 356.106 242.113 357.484 241.465C356.917 240.898 356.025 241.06 355.62 240.169C356.593 237.495 359.023 237.657 361.535 237.09C360.238 238.63 360.238 240.493 358.213 241.141C360.157 242.924 362.426 243.248 364.046 244.625C365.586 246.002 366.882 247.623 368.34 249.243C367.449 250.782 366.234 251.106 364.289 250.944C361.616 250.701 359.104 250.296 356.674 248.919C356.187 248.676 355.539 248.433 354.81 248.595C352.785 249.081 350.678 249.324 348.896 250.458C348.41 250.701 348.005 250.863 347.519 250.701C345.817 250.215 344.035 249.972 342.576 248.514C343.306 244.382 345.574 241.303 348.248 238.468ZM314.058 218.294C315.516 219.023 317.056 218.294 318.109 219.752C318.433 218.78 317.542 218.537 317.542 217.97C317.947 217.322 318.595 217.403 319.243 217.241C320.539 216.917 321.431 215.863 321.025 214.567C320.539 212.866 321.269 211.975 322.646 211.326C323.375 210.921 324.104 210.597 324.509 209.787C324.266 208.896 323.456 208.653 322.727 208.329C321.431 207.599 321.025 206.384 321.593 205.25C322.403 203.549 323.294 201.766 325.4 201.199C326.616 200.956 327.669 200.47 327.669 198.85C327.669 198.282 327.993 197.634 328.722 197.31C330.343 196.662 331.882 196.662 333.745 197.31C332.206 199.012 330.586 200.227 328.803 201.118C327.669 201.685 327.426 202.495 327.426 203.63C327.426 204.764 327.75 205.817 327.75 206.951C327.75 208.329 329.856 209.382 331.639 208.977C333.664 208.41 335.771 208.41 337.796 207.843C338.931 207.518 338.931 207.6 340.47 208.41C339.498 210.111 339.093 210.354 336.986 209.949C334.961 209.544 333.259 210.273 331.477 211.002C333.664 213.676 333.664 213.676 332.368 215.377C331.396 214.729 330.505 213.19 329.127 214.162C327.426 215.377 327.993 217.16 328.641 218.861C327.588 219.995 326.211 220.4 324.833 221.211C323.213 219.509 322.889 219.428 321.025 220.481C320.296 220.887 319.567 221.211 318.838 221.373C316.812 221.94 316.812 222.021 315.516 220.481C314.382 220.562 313.734 221.859 312.194 221.697C312.762 220.4 314.139 219.833 314.058 218.294ZM351.975 273.225C350.354 272.738 348.41 272.9 346.789 273.873C345.979 274.359 345.25 273.954 344.44 273.711C341.037 272.414 337.634 271.199 334.312 269.741C332.287 268.85 330.91 269.903 329.532 270.875C328.074 271.847 327.993 273.225 328.965 274.602C328.155 275.655 327.345 275.898 326.373 275.088C325.968 274.764 325.562 274.359 325.157 274.359C322.16 274.44 320.134 272.657 318.109 270.875C317.542 270.389 316.812 269.822 316.245 269.903C313.572 270.308 311.951 268.606 310.088 266.986C311.06 265.204 311.627 263.421 310.574 261.396C310.007 260.343 309.116 259.289 307.9 259.451C305.308 259.856 302.553 259.451 300.123 260.829C299.718 261.072 298.988 260.991 298.502 260.991C296.315 260.829 294.127 261.153 292.021 261.558C290.4 261.882 289.023 262.692 287.97 263.988C287.241 264.88 286.431 265.123 285.377 264.718C283.838 264.069 282.137 264.961 280.597 264.15C280.597 262.206 281.083 261.639 283.109 260.991C284.729 260.505 286.431 260.505 287.808 259.289C289.185 258.074 290.481 257.102 290.806 254.914C291.049 253.294 292.183 251.512 293.965 250.539C294.289 250.377 294.694 250.134 295.019 249.972C296.639 249.324 297.773 248.352 297.125 246.407C298.502 245.435 299.799 245.03 301.338 245.84C302.31 246.326 303.282 246.245 304.174 245.516C304.903 244.868 305.794 244.463 306.604 243.977C308.062 243.086 308.954 243.248 309.683 244.787C311.141 247.704 313.329 249.81 316.488 250.944C317.947 251.512 319 252.727 320.053 253.78C320.701 254.428 321.187 255.238 320.458 256.13C319.729 257.021 319.243 258.398 317.623 257.912C316.407 257.588 315.273 257.426 313.734 258.236C315.597 259.532 317.461 260.1 319.162 260.667C320.134 260.018 319.567 259.208 319.891 258.56C322.322 257.507 323.942 256.13 322.322 253.213C323.294 251.431 324.428 252.889 325.562 253.051C325.887 251.593 324.752 251.187 323.942 251.025C321.836 250.62 320.377 249.081 318.514 248.109C316.407 247.056 315.273 244.787 314.139 242.681C313.41 241.384 314.463 240.574 315.435 239.845C316.083 240.25 316.326 240.979 316.65 241.546C318.514 244.625 321.431 246.488 324.59 248.028C326.535 249 327.831 250.053 327.588 252.646C327.426 254.266 328.398 255.887 330.262 256.616C331.153 256.94 331.882 257.426 331.882 258.479C331.963 260.099 333.016 260.667 334.637 260.748C334.799 259.37 335.852 258.479 337.067 257.912C337.31 255.562 333.745 255.319 334.475 252.808C335.366 252.403 335.609 253.618 336.419 253.537C337.148 252.97 337.229 251.512 338.687 251.755C340.146 251.998 340.308 253.294 340.632 254.509C341.199 256.454 341.928 258.317 342.819 260.262C344.764 260.262 346.384 261.477 348.086 262.368C349.058 262.287 348.977 260.91 350.03 260.991C350.84 261.072 351.65 261.315 352.218 261.801C353.352 262.773 354.405 262.692 355.539 261.882C356.674 261.072 357.808 260.748 359.104 261.072C360.319 263.664 359.671 266.095 358.618 268.525C358.456 268.85 358.294 269.093 358.213 269.417C357.16 272.333 355.701 274.278 351.975 273.225ZM375.146 314.463C373.363 312.356 371.5 310.331 369.312 308.711C368.259 307.9 367.773 306.928 367.449 305.713C367.125 304.255 366.639 302.958 365.343 301.986C364.37 301.338 364.289 300.366 364.451 299.393C364.613 297.854 364.046 296.639 363.236 295.343C360.4 291.049 358.375 286.268 356.35 281.569C357.727 280.597 358.699 281.083 359.752 282.299C362.264 285.215 364.451 288.456 365.91 291.778C367.368 295.018 368.097 298.421 371.176 300.609C371.5 302.634 373.039 303.768 374.255 305.146C374.822 305.794 375.227 306.442 375.065 307.333C374.255 307.414 374.093 306.442 373.282 306.442C372.958 308.468 375.389 309.035 375.713 310.817C375.956 312.518 376.847 314.139 377.09 315.921C375.956 315.921 375.632 315.03 375.146 314.463ZM389.405 260.91C388.595 261.072 387.947 260.829 387.38 260.424C386.407 259.775 385.759 258.884 384.382 258.884C383.167 258.884 382.762 257.264 383.572 256.292C384.139 255.643 384.625 255.076 384.382 254.185C384.139 253.375 385.273 253.294 385.273 252.403C383.491 251.106 381.951 249.405 380.169 247.785C379.521 247.218 378.873 246.731 379.035 245.759C379.116 244.787 379.116 244.139 377.981 243.734C377.414 243.572 377.414 242.762 377.738 242.275C378.144 241.708 378.549 240.898 379.197 240.655C381.222 239.926 382.519 238.143 384.544 237.171C388.19 238.954 388.19 238.954 387.218 241.303C385.273 241.222 385.273 241.222 383.653 243.329C384.706 244.301 385.597 245.435 386.812 246.245C388.271 247.218 389.243 248.271 388.919 250.053C390.134 250.377 389.891 249 390.944 249C391.917 249.324 392.241 250.377 392.808 251.35C391.836 252.079 390.782 251.431 389.891 251.917C389.648 253.051 390.134 253.78 391.025 254.266C392.322 255.076 393.051 256.049 392.727 257.669C392.565 258.479 393.213 259.208 393.213 260.181C391.917 260.667 390.62 260.667 389.405 260.91Z" fill="#3ABF0A"/>
<path d="M589.278 396.616C588.224 396.373 588.062 395.319 588.062 394.752C588.306 392.646 587.09 391.431 585.794 390.296C584.498 389.081 583.85 387.542 583.444 385.921C583.039 384.463 582.958 383.086 582.958 381.627C582.958 380.655 582.553 379.764 582.067 378.954C581.581 378.224 580.69 379.035 580.123 378.63C579.556 375.956 579.556 373.12 578.016 370.609C576.639 372.229 576.396 374.093 576.153 375.875C575.748 379.116 575.262 382.275 573.236 384.949C572.102 386.488 571.616 386.731 569.914 385.759C567.16 384.139 565.539 381.384 562.947 379.359C564.486 378.143 564.648 376.199 566.106 375.227C566.755 374.741 567.079 374.174 566.593 373.363C566.025 372.472 565.377 372.715 564.729 373.12C563.271 374.012 562.056 373.525 560.678 372.877C559.544 372.31 558.734 371.257 557.519 370.771C556.708 371.743 557.6 372.472 557.519 373.606C553.792 373.687 552.171 376.037 551.523 379.44C550.632 380.007 549.579 380.007 548.525 380.169C547.634 379.035 547.148 377.171 545.204 377.576C543.745 377.819 543.583 379.197 543.502 380.25C542.773 380.817 541.801 380.088 541.558 380.736C540.829 382.518 538.965 383.167 537.993 384.706C537.669 384.301 537.507 383.977 537.183 383.572C536.373 384.463 535.481 384.949 535.4 386.083C535.157 388.433 533.456 389.81 531.674 390.782C529.324 392.079 526.812 392.97 524.22 393.537C522.762 393.861 521.546 394.59 520.25 395.238C519.278 395.724 518.792 397.183 517.252 396.778C517.09 396.778 516.685 397.183 516.604 397.426C516.361 399.127 516.442 400.991 515.146 402.368C515.065 402.449 515.146 402.692 515.227 402.854C515.956 404.393 515.308 405.447 513.85 406.176C515.551 408.444 514.984 411.118 515.389 413.549C515.632 415.007 515.389 416.708 515.308 418.248C515.227 420.192 514.579 422.218 513.039 423.757C511.743 425.053 511.824 425.62 513.363 426.512C515.389 427.727 517.252 427.16 519.035 426.106C520.979 424.891 523.005 424 525.435 424.324C527.299 424.567 529.162 424.486 530.377 422.704C530.62 422.38 531.268 422.299 531.674 422.056C534.104 420.597 536.94 420.678 539.532 419.787C543.097 418.572 546.257 419.058 549.255 421.245C550.551 422.218 551.685 423.109 551.118 424.972C550.956 425.539 551.28 425.863 551.685 426.106C552.171 426.35 552.657 426.268 552.9 425.782C553.873 424.162 555.493 423.595 556.951 422.542C557.032 422.704 557.113 422.785 557.113 422.866C556.951 423.676 556.141 424.081 555.817 424.81C557.194 426.187 557.113 426.755 555.574 427.646C554.845 428.051 554.116 428.294 553.387 428.618C553.143 428.699 552.981 428.861 552.981 429.185C553.143 429.671 553.468 430.076 554.197 429.995C555.169 429.347 555.655 428.051 557.194 427.727C557.356 430.157 556.303 433.155 559.058 434.37C561.245 435.343 563.757 436.639 565.782 434.046C566.593 434.775 566.674 435.991 567.727 436.315C568.618 435.991 569.185 435.343 569.914 434.775C571.292 433.722 572.588 432.669 574.451 432.912C575.262 432.993 575.829 432.588 576.315 432.021C577.125 431.049 577.854 429.914 578.745 429.023C581.257 426.349 582.958 422.866 586.28 420.921C586.766 420.678 587.09 420.111 587.414 419.625C589.278 416.708 591.222 413.873 591.951 410.389C592.356 408.363 593.005 406.338 593.572 404.312C592.356 402.206 590.655 400.424 590.25 397.912C590.088 397.183 589.683 396.778 589.278 396.616Z" fill="#3ABF0A"/>
<path d="M261.315 188.155C263.259 188.155 263.502 187.993 263.34 186.13C263.097 183.699 264.475 182.646 266.257 181.674C267.229 181.106 268.363 180.863 269.093 179.891C267.877 178.271 268.282 177.299 270.956 175.84C270.551 174.787 269.498 173.896 269.741 172.275C273.549 171.465 277.113 169.926 281.083 167.819C279.868 167.9 279.139 167.819 278.41 167.981C274.359 168.549 274.44 168.387 270.794 167.414C266.662 166.361 262.611 165.146 258.236 165.389C253.78 165.551 249.324 165.713 244.949 165.956C243.005 166.037 241.06 165.794 239.359 167.09C238.873 167.495 238.306 167.414 237.738 167.414C233.526 167.414 229.394 167.495 225.181 167.9C221.049 168.306 216.917 169.035 212.785 169.602C212.704 170.412 214.081 170.655 213.271 171.708C212.056 171.87 210.597 172.113 209.22 172.275C207.113 172.6 205.088 172.843 202.982 173.167C202.333 173.248 201.928 173.491 201.685 174.139C201.442 174.949 202.171 175.192 202.657 175.597C202.901 175.84 203.225 176.002 203.549 176.002C205.331 176.326 207.113 176.975 208.977 177.218C211.083 177.461 213.271 177.542 215.296 178.676C217.646 179.972 218.051 181.187 216.674 183.537C216.35 184.104 215.701 184.428 216.188 185.238C217.079 185.319 218.051 185.4 218.78 186.13C217.889 186.94 216.674 186.616 215.62 187.102C215.458 187.669 215.134 188.155 215.458 188.803C216.431 188.803 217.403 188.803 218.294 188.803C218.375 189.613 217.808 189.694 217.241 189.775C214.972 189.937 213.757 191.882 213.595 193.421C213.109 198.039 212.866 202.738 215.377 207.275C216.674 207.113 217.808 207.762 218.942 208.41C221.373 209.868 223.236 209.463 224.938 207.113C225.343 206.627 225.748 206.141 226.072 205.574C227.611 202.981 230.528 201.604 231.905 198.85C232.229 198.201 233.282 197.796 234.174 197.553C235.875 197.229 237.657 196.905 239.359 196.5C240.574 196.176 241.951 196.176 243.005 195.285C246.488 192.368 250.863 191.234 255.076 189.938C257.102 189.208 259.046 188.155 261.315 188.155Z" fill="#3ABF0A"/>
<path d="M583.606 354.324C579.88 352.38 576.234 350.354 572.183 349.22C570.482 348.734 569.347 349.301 568.294 350.354C567.727 350.921 567.322 351.65 566.755 352.218C565.782 353.19 565.053 353.109 564.162 351.975C563.028 350.597 561.65 349.301 562.704 347.032C560.111 346.951 557.681 346.384 555.331 347.843C556.06 348.734 556.546 349.544 557.681 349.949C558.815 350.354 559.706 350.921 559.625 352.542C559.544 353.433 560.03 354.891 561.488 354.972C564 355.053 566.106 356.431 568.375 356.998C570.4 357.484 570.725 359.185 571.292 360.806C571.859 362.345 570.806 362.993 569.914 363.803C569.752 363.965 569.671 364.208 570.076 364.694C572.102 363.641 573.722 365.099 575.505 365.91C575.991 366.153 576.477 366.477 577.044 366.639C578.583 366.963 580.123 367.125 581.095 365.424C581.743 364.37 582.958 363.884 583.85 363.074C585.308 363.965 586.442 364.937 587.414 366.396C589.116 368.988 591.789 369.474 595.111 369.88C592.843 366.801 589.44 365.262 588.711 361.778C589.359 361.373 590.25 361.778 590.412 360.725C590.169 360.4 589.926 359.995 589.683 359.59C589.035 358.051 586.847 358.78 586.28 357.646C585.632 356.187 584.984 354.972 583.606 354.324Z" fill="#3ABF0A"/>
<path d="M531.755 334.637C532.079 334.069 532.241 333.34 531.755 332.854C530.458 331.477 529.243 329.937 527.542 328.965C526.812 330.505 526.407 332.287 525.111 332.935C522.275 334.475 520.655 337.634 517.576 338.85C516.847 339.174 516.199 339.822 516.037 340.632C515.713 342.09 514.822 342.171 513.687 341.928C513.282 341.847 512.958 341.766 512.391 341.604C512.067 342.414 512.067 343.062 511.824 343.63C511.257 345.007 511.419 346.465 512.31 347.519C513.363 348.734 513.687 349.949 513.525 351.488C513.363 353.109 514.66 354.243 516.28 353.757C517.9 353.271 519.359 353.676 520.655 354.405C521.627 354.891 522.68 355.053 523.653 355.053C525.921 355.134 526.488 354.486 526.407 352.218C526.326 350.921 526.407 349.868 527.704 349.139C528.514 348.653 529 347.762 528.919 346.87C528.757 345.088 529.405 343.954 531.349 343.792C531.268 342.819 530.863 342.252 530.377 341.766C528.919 340.065 529.243 338.363 530.296 336.662C530.863 335.933 531.349 335.366 531.755 334.637Z" fill="#3ABF0A"/>
<path d="M165.389 179.648C166.847 180.296 167.9 179.81 168.63 178.514C168.954 177.947 169.116 177.299 170.007 177.542C170.979 177.866 170.007 178.676 170.493 179.243C171.06 179.324 171.708 179.324 172.356 179.567C174.706 180.539 177.055 180.458 179.486 179.891C180.863 179.567 182.079 179.486 183.537 179.729C184.752 179.972 185.886 179.567 186.454 178.19C183.132 177.38 179.891 177.056 176.488 177.947C177.299 176.569 178.433 176.245 179.486 176.164C181.511 176.002 183.537 175.678 185.481 176.164C187.345 176.65 188.965 175.921 190.586 175.597C192.611 175.273 194.555 174.22 196.338 173.167C200.47 170.736 205.088 170.007 209.625 169.116C212.785 168.468 215.863 167.495 219.185 167.009C218.78 166.118 218.213 166.361 217.808 166.361C212.623 166.361 207.437 166.361 202.252 166.361C200.551 166.361 198.849 166.442 197.229 166.928C193.502 167.981 189.694 167.819 185.968 168.225C184.59 168.387 183.294 168.711 181.917 168.468C180.62 168.225 179.567 168.468 178.595 169.44C177.704 170.25 176.569 170.979 175.354 169.926C174.706 173.815 175.354 174.463 180.134 174.301C177.785 176.326 174.868 175.759 172.68 177.218C171.951 176.65 171.465 176.083 170.817 175.84C169.764 175.435 168.63 174.949 167.495 175.435C166.523 175.84 166.928 176.812 166.766 177.542C166.523 178.514 164.822 178.919 164.011 178.271C163.525 177.704 164.093 176.975 163.525 176.407C159.88 175.354 159.799 175.354 158.583 178.676C159.799 179.405 161.095 179.486 162.472 179.567C163.444 179.486 164.417 179.243 165.389 179.648Z" fill="#3ABF0A"/>
<path d="M386.407 377.819C385.192 380.088 383.248 381.384 380.898 382.275C378.549 383.167 377.495 385.273 377.981 387.704C378.468 389.81 379.197 392.16 377.738 394.023C376.118 396.049 376.118 398.317 375.794 400.586C375.551 402.692 378.063 405.69 379.926 405.285C382.032 404.799 383.734 403.907 384.544 401.558C385.354 399.127 385.84 396.616 386.569 394.104C387.704 390.377 389 386.651 389.567 382.762C389.648 382.357 389.81 382.032 390.215 381.87C390.62 381.708 391.025 381.546 391.025 381.06C391.106 378.549 391.836 375.956 389.648 373.769C388.352 374.903 387.218 376.28 386.407 377.819Z" fill="#3ABF0A"/>
<path d="M120.342 186.373C122.368 186.13 123.502 184.509 125.285 184.104C125.366 184.185 125.447 184.266 125.609 184.428C124.961 186.211 123.502 187.669 122.935 189.532C124.312 190.181 125.933 190.424 126.176 191.963C126.986 192.125 127.472 192.044 127.958 191.72C130.551 190.181 133.549 190.505 136.384 190.018C137.599 189.775 139.139 189.856 140.192 190.343C142.623 191.477 144.243 190.505 145.863 188.803C145.377 187.912 144.729 187.264 144.486 186.373C145.701 184.995 145.458 183.456 145.134 181.917C142.947 181.998 141.731 183.294 140.516 184.995C139.706 183.699 138.734 183.375 137.437 183.213C135.574 182.97 133.305 183.132 132.576 180.539C132.414 179.972 131.766 179.81 131.118 179.81C128.768 179.81 126.419 179.891 124.069 179.891C123.502 179.891 122.773 180.134 122.611 180.62C122.287 182.484 120.667 182.565 119.37 183.132C118.236 183.618 116.94 183.861 115.886 184.509C117.507 186.94 117.588 186.778 120.342 186.373Z" fill="#3ABF0A"/>
<path d="M505.262 356.998C504.775 354.972 505.829 353.514 506.558 351.975C505.829 351.407 504.694 352.218 504.451 351.407C503.722 349.382 501.778 348.491 500.562 347.194C500.319 346.303 501.292 346.222 501.13 345.412C499.59 344.197 498.132 342.657 496.268 341.685C494.648 340.875 493.352 339.741 492.461 338.12C492.055 337.391 491.569 336.743 490.84 336.419C488.491 335.285 486.222 334.15 483.954 333.016C483.386 333.421 482.9 333.664 482.9 334.475C485.088 335.366 486.87 336.743 487.681 339.174C487.762 339.498 488.167 339.903 488.572 339.984C490.111 340.47 490.759 341.766 491.488 342.981C492.704 345.169 494.324 347.275 494.648 349.706C495.458 354.972 499.185 357.322 503.236 359.752C504.37 358.78 505.505 358.051 505.262 356.998Z" fill="#3ABF0A"/>
<path d="M545.123 330.019C545.771 330.019 546.338 330.424 546.743 329.775C546.905 328.155 545.852 326.616 546.338 325.076C546.743 323.78 546.419 323.132 545.366 322.484C544.637 321.998 543.907 321.35 544.069 320.377C544.393 317.866 543.016 316.731 540.91 316.002C540.829 315.921 540.748 315.84 540.586 315.678C541.153 314.139 540.424 313.329 538.965 312.762C538.398 312.6 537.912 312.518 537.345 312.437C535.562 312.194 535.4 311.951 535.4 310.088C535.4 309.359 535.238 308.63 535.724 307.981C536.859 306.199 535.805 304.579 535.319 302.958C535.157 302.391 534.509 301.905 533.78 302.067C533.051 302.229 532.484 302.553 532.484 303.525C532.484 304.984 532.484 306.523 531.674 307.738C531.106 308.63 531.268 309.359 531.349 310.25C531.511 311.627 532.484 312.113 533.456 312.924C532.241 314.868 534.023 315.597 534.914 316.893C535.562 316.002 534.995 315.03 535.724 314.382C538.56 314.625 539.451 317.218 541.396 318.838C539.694 320.053 538.479 318.676 536.94 318.271C536.778 319.81 536.778 321.106 537.993 321.998C538.398 322.322 538.641 322.565 538.884 322.97C539.613 324.428 540.099 324.509 541.315 323.942C542.53 323.294 542.368 322.565 541.558 321.674C540.505 320.458 541.315 320.053 542.368 319.729C543.502 321.106 543.34 322.889 544.15 324.185C543.016 325.562 541.72 325.887 540.099 325.481C539.289 326.859 537.669 327.831 538.155 330.262C538.965 328.398 540.18 328.074 541.72 328.155C541.72 330.586 542.692 332.287 545.123 333.097C545.123 332.044 545.123 331.072 545.123 330.019Z" fill="#3ABF0A"/>
<path d="M294.451 228.907C294.532 228.988 294.532 228.988 294.451 228.907C294.532 228.988 294.532 228.907 294.451 228.907C294.532 228.907 294.532 228.907 294.451 228.907Z" fill="#3ABF0A"/>
<path d="M295.181 225.829C295.91 225.181 295.343 224.37 294.37 224.127C293.884 223.965 293.317 224.289 292.993 223.56C291.697 221.13 290.238 218.78 288.294 216.836C288.618 215.782 290.157 215.377 289.59 214.162C288.861 213.595 287.889 214.324 287.16 213.352C287.889 212.542 288.861 211.731 289.023 210.516C287.808 210.192 287.727 211.812 286.755 211.65C284.972 211.245 284.162 212.704 283.109 213.595C281.65 214.729 282.38 216.512 282.218 217.97C282.137 218.942 284.162 219.023 284.405 220.319C286.674 219.995 286.755 221.616 286.998 223.074C286.025 223.398 284.891 223.236 284.486 224.289C284.567 224.775 285.458 224.694 285.134 225.424C284.567 225.991 283.352 225.667 283.109 226.72C283.433 227.53 284.648 226.801 284.81 227.773C284 228.745 283.19 229.637 282.218 230.69C286.187 229.069 290.319 229.069 294.451 229.069C294.451 227.854 294.046 226.801 295.181 225.829Z" fill="#3ABF0A"/>
<path d="M520.412 365.829C521.303 366.072 522.438 366.882 523.086 366.639C525.678 365.586 528.19 366.315 530.782 366.315C534.752 366.315 538.803 366.963 542.692 365.829C542.854 365.748 543.016 365.91 542.935 366.072C540.1 368.502 540.1 368.502 540.019 369.961C542.449 368.016 544.556 365.748 547.553 364.694C546.5 363.722 545.528 363.884 544.475 364.208C542.611 364.694 540.748 365.343 538.884 364.208C538.479 363.965 538.155 363.965 537.75 364.208C535.076 365.748 532.403 364.856 529.729 364.289C528.838 364.127 527.947 363.641 527.137 363.965C524.544 365.019 522.357 363.56 520.088 363.074C519.764 362.102 521.06 362.183 520.979 361.211C519.035 360.481 516.442 361.859 514.903 359.59C513.444 361.535 513.12 361.535 511.176 361.535C510.123 361.535 509.637 360.725 508.988 360.157C507.206 358.537 505.262 358.942 503.965 361.292C505.262 361.535 506.72 361.292 507.611 362.264C508.988 363.803 510.852 364.208 512.796 364.532C515.389 364.856 517.982 365.019 520.412 365.829Z" fill="#3ABF0A"/>
<path d="M537.75 344.278C538.56 344.683 539.37 345.088 540.18 345.331C542.854 346.06 545.041 344.197 544.393 341.685C542.368 343.549 540.018 343.306 537.588 342.738C537.345 342.657 537.102 342.657 536.859 342.576C534.833 342.333 533.699 343.063 533.618 345.088C533.537 346.87 532.97 348.41 532.322 349.949C532.079 350.678 531.349 351.488 531.754 352.218C532.889 354.405 532.565 356.755 532.646 359.104C534.914 358.78 535.238 358.456 535.4 356.512C535.481 355.863 535.4 355.215 535.157 354.648C534.914 353.919 534.752 353.109 535.157 352.38C536.048 352.38 536.859 353.028 536.697 353.352C536.048 355.053 538.074 356.106 537.426 357.565C538.398 358.051 539.289 358.618 540.18 357.727C540.991 356.836 540.748 355.782 540.18 355.053C539.208 353.514 538.884 351.65 537.912 350.111C538.641 349.301 540.099 349.22 540.342 347.681C538.479 347.194 538.479 347.113 537.183 347.924C535.967 348.734 535.481 348.248 534.995 347.194C534.59 346.222 534.428 345.331 535.157 344.521C535.886 343.63 536.778 343.873 537.75 344.278Z" fill="#3ABF0A"/>
<path d="M133.467 177.623C134.845 177.785 134.926 179.648 136.465 179.324C137.356 179.162 138.167 179.729 138.896 180.215C139.949 180.944 140.921 181.025 142.055 180.539C144.405 179.567 146.836 179.162 149.347 179.324C150.481 179.405 151.535 179.081 152.264 177.623C150.724 177.704 151.535 176.083 150.481 175.678C149.347 176.002 148.456 176.731 147.565 177.299C146.349 178.028 145.215 178.19 144 177.299C143.109 176.65 141.974 176.488 140.84 176.245C140.84 175.516 142.136 175.03 141.245 174.139C137.437 174.301 133.954 176.245 129.984 176.65C131.037 178.028 132.333 177.542 133.467 177.623Z" fill="#3ABF0A"/>
<path d="M268.282 196.338C265.204 196.338 261.882 198.363 259.127 195.528C257.993 196.095 257.021 196.419 256.211 197.229C256.454 197.715 256.94 197.877 257.345 198.039C258.317 198.525 259.289 198.687 260.1 199.822C261.153 201.361 262.854 202.252 265.123 201.442C266.662 200.875 268.363 200.389 269.984 199.984C271.361 199.66 272.09 198.931 272.333 197.634C270.551 196.014 270.551 196.338 268.282 196.338Z" fill="#3ABF0A"/>
<path d="M140.921 298.259C138.41 298.016 136.708 296.477 135.25 294.613C135.088 294.451 134.845 294.37 134.602 294.289C131.199 293.074 127.715 292.507 124.151 292.507C122.773 292.507 122.044 293.479 121.072 294.289C120.424 294.856 120.505 295.505 120.991 296.396C122.044 295.91 122.611 295.018 123.259 294.37C123.826 293.803 124.556 293.155 125.366 293.722C126.581 294.532 127.958 294.613 129.255 295.099C131.037 295.667 132.495 296.477 132.414 298.745C132.414 299.637 132.819 300.366 133.873 300.285C135.817 300.123 137.762 299.961 139.625 299.718C140.111 299.556 140.597 299.15 140.921 298.259Z" fill="#3ABF0A"/>
<path d="M282.137 219.266C279.949 218.213 278.572 218.699 277.195 220.968C276.465 221.535 275.898 220.481 275.25 221.049C274.521 222.264 274.845 223.317 275.979 224.208C274.602 225.181 274.602 225.181 273.792 226.477C276.627 228.907 278.653 225.505 281.002 225.91C281.407 224.937 281.975 224.127 281.732 223.236C281.488 222.102 282.38 221.535 282.704 220.643C282.947 220.076 282.785 219.59 282.137 219.266Z" fill="#3ABF0A"/>
<path d="M140.516 304.174C141.894 304.336 143.352 303.687 144.567 304.984C144.81 305.308 145.539 305.146 145.863 304.66C146.917 303.201 148.456 303.282 149.995 303.201C150.725 303.12 151.454 303.444 152.183 302.796C151.373 300.933 149.914 299.799 147.97 299.799C146.431 299.799 144.972 299.718 143.19 299.231C143.109 300.528 143.433 301.662 142.785 302.472C141.65 302.877 140.192 302.067 139.625 303.606C139.868 304.174 140.192 304.174 140.516 304.174Z" fill="#3ABF0A"/>
<path d="M562.218 438.664C561.326 441.095 560.678 443.282 560.192 445.551C563.757 446.685 566.188 444.903 568.294 439.555C566.188 439.799 564 440.933 562.218 438.664Z" fill="#3ABF0A"/>
<path d="M151.211 182.241C151.049 182.646 150.238 182.727 150.4 183.456C151.94 184.752 153.074 186.616 155.667 185.157C157.53 184.104 159.475 183.537 159.231 180.863C157.368 180.944 155.424 181.106 153.56 181.187C152.993 181.998 153.479 182.727 152.912 183.213C152.183 183.213 152.021 182.241 151.211 182.241Z" fill="#3ABF0A"/>
<path d="M531.511 286.917C528.595 289.023 528.433 291.454 530.863 294.694C532.646 292.102 532.808 290.481 531.511 286.917Z" fill="#3ABF0A"/>
<path d="M511.419 299.475C510.366 299.637 509.15 299.475 508.421 300.447C507.773 301.338 507.53 302.229 508.34 303.039C509.15 303.849 509.961 303.444 510.69 302.877C511.581 302.31 511.905 301.419 512.067 300.528C512.148 300.042 511.986 299.393 511.419 299.475Z" fill="#3ABF0A"/>
<path d="M167.657 173.41C164.255 171.303 161.662 171.141 160.447 173.167C162.877 173.491 165.065 175.678 167.657 173.41Z" fill="#3ABF0A"/>
<path d="M171.708 174.868C172.6 174.544 172.519 173.734 172.438 173.005C172.357 172.356 172.275 171.708 171.627 171.222C170.493 171.06 169.683 171.627 168.63 172.356C169.116 173.086 169.359 173.653 169.764 174.22C170.25 174.868 170.898 175.111 171.708 174.868Z" fill="#3ABF0A"/>
<path d="M153.236 172.681C151.616 171.546 150.886 171.87 147.565 174.949C149.995 175.435 151.697 174.301 153.236 172.681Z" fill="#3ABF0A"/>
</g>
<defs>
<clipPath id="clip0_47_563">
<rect width="638" height="638" fill="white"/>
</clipPath>
</defs>
</svg>
